<svg width="81" height="81" viewBox="0 0 81 81" fill="none" xmlns="http://www.w3.org/2000/svg">
<g clip-path="url(#clip0_29_328)">
<path d="M69.1379 69.1378C76.787 61.4883 81 51.3179 81 40.5C81 29.6821 76.787 19.5117 69.1379 11.8622C61.4883 4.21263 51.3181 0 40.5 0C29.6819 0 19.5117 4.21263 11.8621 11.8622C4.21295 19.5117 0 29.6821 0 40.5C0 51.3179 4.21295 61.4883 11.8621 69.1378C19.5117 76.7874 29.6819 81 40.5 81C51.3181 81 61.4883 76.7874 69.1379 69.1378ZM14.3525 14.3523C20.7339 7.97091 29.0377 4.21089 37.9577 3.60925L37.9567 3.60972C37.9237 4.57697 37.833 5.56511 37.6845 6.56401C36.621 13.7233 32.7734 20.9281 26.8507 26.8507C20.9279 32.7734 13.7233 36.6209 6.56384 37.6845C5.57128 37.8321 4.58884 37.9226 3.62712 37.9558C4.21532 29.3516 7.78976 20.9152 14.3525 14.3523ZM3.55293 41.4804C4.71034 41.4483 5.89085 41.3448 7.08149 41.1678C14.9825 39.9939 22.8879 35.7938 29.341 29.3407C35.7941 22.8876 39.9942 14.9823 41.1681 7.08101C41.3459 5.88421 41.4499 4.69768 41.4812 3.53473C42.6637 3.56542 43.8368 3.65149 44.9979 3.79134C44.9567 5.04621 44.8413 6.32132 44.6516 7.59865C43.3677 16.2416 38.8147 24.8474 31.8313 31.8309C24.8482 38.8142 16.2422 43.3673 7.59929 44.6512C6.32828 44.84 5.06013 44.9545 3.81207 44.9964C3.66984 43.8286 3.58377 42.6552 3.55293 41.4804ZM14.3525 66.6475C9.18654 61.4812 5.87202 55.1544 4.40801 48.4984C5.6344 48.4407 6.87519 48.3195 8.11661 48.1352C17.5017 46.741 26.8078 41.8351 34.3215 34.3215C41.8352 26.8077 46.7408 17.5014 48.135 8.11661C48.3201 6.87076 48.4418 5.62554 48.4992 4.39378L48.4913 4.38412C55.3179 5.88057 61.5872 9.29206 66.6477 14.3525C71.5898 19.2946 74.837 25.2989 76.3911 31.6371C74.9589 31.6789 73.504 31.8083 72.0438 32.0252C62.659 33.4193 53.3527 38.325 45.8389 45.8387C38.3252 53.3524 33.4196 62.6587 32.0254 72.044C31.8078 73.5083 31.6778 74.9674 31.6368 76.404L31.6631 76.4199C25.1647 74.8336 19.2032 71.4983 14.3525 66.6475ZM35.1459 77.0946C35.1608 75.6086 35.2818 74.0898 35.5088 72.5614C36.7928 63.9182 41.3458 55.3122 48.3292 48.329C55.3126 41.3458 63.9183 36.7927 72.5611 35.5089C74.0829 35.2828 75.595 35.1614 77.0739 35.1459C77.2436 36.3157 77.3574 37.4921 77.4151 38.6709C76.0016 38.6682 74.5504 38.7738 73.0786 38.9923C65.1775 40.1662 57.2721 44.3665 50.8191 50.8196C50.1317 51.5071 50.1317 52.6222 50.8191 53.3099C51.5067 53.9974 52.6217 53.9974 53.3095 53.3099C59.2322 47.3872 66.4368 43.5397 73.5963 42.4761C74.8994 42.2826 76.18 42.1874 77.4218 42.1904C77.0183 51.0885 73.4276 59.868 66.6475 66.6478C60.0631 73.2322 51.4323 77.0263 42.1898 77.4392C42.1871 76.1895 42.2815 74.9054 42.476 73.5964C42.6188 72.6347 41.9547 71.7386 40.9928 71.5959C40.0308 71.4529 39.1353 72.1171 38.9925 73.0789C38.7764 74.5334 38.6682 75.9684 38.6682 77.3662C38.6682 77.389 38.6694 77.4113 38.6694 77.4341C37.4834 77.3765 36.3083 77.2621 35.1459 77.0946Z" fill="#000072"/>
<path d="M14.3525 66.6475C9.18654 61.4812 5.87202 55.1544 4.40801 48.4984C5.6344 48.4407 6.87519 48.3195 8.11661 48.1352C17.5017 46.741 26.8078 41.8351 34.3215 34.3215C41.8352 26.8077 46.7408 17.5014 48.135 8.11661C48.3201 6.87076 48.4418 5.62554 48.4992 4.39378L48.4913 4.38412C55.3179 5.88057 61.5872 9.29206 66.6477 14.3525C71.5898 19.2946 74.837 25.2989 76.3911 31.6371C74.9589 31.6789 73.504 31.8083 72.0438 32.0252C62.659 33.4193 53.3527 38.325 45.8389 45.8387C38.3252 53.3524 33.4196 62.6587 32.0254 72.044C31.8078 73.5083 31.6778 74.9674 31.6368 76.404L31.6631 76.4199C25.1647 74.8336 19.2032 71.4983 14.3525 66.6475Z" fill="#CAFFB0"/>
<path d="M35.1459 77.0946C35.1608 75.6086 35.2818 74.0898 35.5088 72.5614C36.7928 63.9182 41.3458 55.3122 48.3292 48.329C55.3126 41.3458 63.9183 36.7927 72.5611 35.5089C74.0829 35.2828 75.595 35.1614 77.0739 35.1459C77.2436 36.3157 77.3574 37.4921 77.4151 38.6709C76.0016 38.6682 74.5504 38.7738 73.0786 38.9923C65.1775 40.1662 57.2721 44.3665 50.8191 50.8196C50.1317 51.5071 50.1317 52.6222 50.8191 53.3099C51.5067 53.9974 52.6217 53.9974 53.3095 53.3099C59.2322 47.3872 66.4368 43.5397 73.5963 42.4761C74.8994 42.2826 76.18 42.1874 77.4218 42.1904C77.0183 51.0885 73.4276 59.868 66.6475 66.6478C60.0631 73.2322 51.4323 77.0263 42.1898 77.4392C42.1871 76.1895 42.2815 74.9054 42.476 73.5964C42.6188 72.6347 41.9547 71.7386 40.9928 71.5959C40.0308 71.4529 39.1353 72.1171 38.9925 73.0789C38.7764 74.5334 38.6682 75.9684 38.6682 77.3662C38.6682 77.389 38.6694 77.4113 38.6694 77.4341C37.4834 77.3765 36.3083 77.2621 35.1459 77.0946Z" fill="#CAFFB0"/>
<path d="M14.3525 14.3523C20.7339 7.97091 29.0377 4.21089 37.9577 3.60925L37.9567 3.60972C37.9237 4.57697 37.833 5.56511 37.6845 6.56401C36.621 13.7233 32.7734 20.9281 26.8507 26.8507C20.9279 32.7734 13.7233 36.6209 6.56384 37.6845C5.57128 37.8321 4.58884 37.9226 3.62712 37.9558C4.21532 29.3516 7.78976 20.9152 14.3525 14.3523Z" fill="#CAFFB0"/>
<path d="M3.55293 41.4804C4.71034 41.4483 5.89085 41.3448 7.08149 41.1678C14.9825 39.9939 22.8879 35.7938 29.341 29.3407C35.7941 22.8876 39.9942 14.9823 41.1681 7.08101C41.3459 5.88421 41.4499 4.69768 41.4812 3.53473C42.6637 3.56542 43.8368 3.65149 44.9979 3.79134C44.9567 5.04621 44.8413 6.32132 44.6516 7.59865C43.3677 16.2416 38.8147 24.8474 31.8313 31.8309C24.8482 38.8142 16.2422 43.3673 7.59929 44.6512C6.32828 44.84 5.06013 44.9545 3.81207 44.9964C3.66984 43.8286 3.58377 42.6552 3.55293 41.4804Z" fill="#CAFFB0"/>
<path d="M46.2031 62.3067C46.2031 61.8436 46.0163 61.3893 45.6871 61.0618C45.3597 60.7326 44.9054 60.5459 44.4423 60.5459C43.9791 60.5459 43.5249 60.7326 43.1974 61.0618C42.8698 61.3893 42.6815 61.8436 42.6815 62.3067C42.6815 62.7698 42.8698 63.2241 43.1974 63.5516C43.5251 63.8791 43.9791 64.0675 44.4423 64.0675C44.9054 64.0675 45.3597 63.8791 45.6871 63.5516C46.0163 63.2241 46.2031 62.7698 46.2031 62.3067Z" fill="#000072"/>
</g>
<defs>
<clipPath id="clip0_29_328">
<rect width="81" height="81" fill="white" transform="matrix(0 1 -1 0 81 0)"/>
</clipPath>
</defs>
</svg>
