<svg width="238" height="258" viewBox="0 0 238 258" fill="none" xmlns="http://www.w3.org/2000/svg">
<path d="M164.713 105.682C163.69 105.89 162.499 106.227 161.966 107.124C148.29 130.112 135.104 152.455 122.26 174.989C120.734 177.666 121.142 181 123.042 183.425C135.053 198.755 135.632 213.413 125.089 227.628C110.899 245.932 83.3064 245.094 70.1965 225.556C67.4136 221.038 65.0396 219.278 59.7176 219.01C39.1187 217.839 25.2306 200.178 27.8824 180.064C30.9298 160.243 49.7781 147.235 70.1989 151.955C75.3296 153.307 77.1927 151.622 79.4384 147.767C91.7384 126.222 104.141 105.367 116.045 83.5282C117.117 81.2563 116.503 77.1214 114.818 75.2583C101.237 59.6644 102.497 37.2915 117.9 24.7948C133.596 11.9024 156.378 15.9194 168.492 33.4917C170.279 36.0439 173.444 38.3917 175.908 38.3786C196.009 38.5672 212.858 57.1982 209.912 77.708C206.702 98.4281 188.634 109.935 166.034 105.556C165.643 105.48 165.103 105.602 164.713 105.682V105.682ZM122.953 74.597C125.198 76.7886 125.428 80.2642 123.744 82.9112C118.127 91.7425 112.528 100.202 107.51 109.093C98.8212 124.115 90.63 140.121 81.9409 155.144C79.6952 158.998 77.8453 163.146 71.4253 160.224C60.0659 154.866 48.8479 157.586 40.3238 166.597C32.3867 174.818 30.7674 185.27 35.1593 195.888C40.0489 207.489 50.03 213.052 62.2436 212.297C68.5483 212.066 70.7311 214.912 72.8248 219.532C78.3015 230.341 87.7847 234.921 99.6027 233.873C110.042 233.029 120.149 225.192 123.147 214.534C126.438 203.482 123.922 193.642 114.719 186.203C108.784 181.801 109.358 178.546 113.071 172.713C126.647 150.275 139.93 128.232 152.421 105.602C156.326 98.6844 158.38 95.9145 166.97 99.2188C178.125 103.199 188.449 99.203 195.99 90.6893C202.843 82.2779 204.462 71.8251 199.483 61.9987C194.798 51.7766 185.8 45.7157 174.275 46.3682C167.281 46.701 164.116 44.3532 161.128 38.4574C153.763 24.4069 135.218 20.4658 122.061 29.1079C108.855 37.9814 106.145 55.8223 115.812 68.3524C116.169 68.815 116.601 69.2179 117.066 69.5707C119.359 71.3078 121.235 72.9194 122.953 74.597Z" fill="#000039"/>
<path d="M122.953 74.597C125.198 76.7886 125.428 80.2642 123.744 82.9112C118.127 91.7425 112.528 100.202 107.51 109.093C98.8212 124.115 90.63 140.121 81.9409 155.144C79.6952 158.998 77.8453 163.146 71.4253 160.224C60.0659 154.866 48.8479 157.586 40.3238 166.597C32.3867 174.818 30.7674 185.27 35.1593 195.888C40.0489 207.489 50.03 213.052 62.2436 212.297C68.5483 212.066 70.7311 214.912 72.8248 219.532C78.3015 230.341 87.7847 234.921 99.6027 233.873C110.042 233.029 120.149 225.192 123.147 214.534C126.438 203.482 123.922 193.642 114.719 186.203C108.784 181.801 109.358 178.546 113.071 172.713C126.647 150.275 139.93 128.232 152.421 105.602C156.326 98.6844 158.38 95.9145 166.97 99.2188C178.125 103.199 188.449 99.203 195.99 90.6893C202.843 82.2779 204.462 71.8251 199.483 61.9987C194.798 51.7766 185.8 45.7157 174.275 46.3682C167.281 46.701 164.116 44.3532 161.128 38.4574C153.763 24.4069 135.218 20.4658 122.061 29.1079C108.855 37.9814 106.145 55.8223 115.812 68.3524C116.169 68.815 116.601 69.2179 117.066 69.5707C119.359 71.3078 121.235 72.9194 122.953 74.597Z" fill="white"/>
</svg>
