<svg width="145" height="144" viewBox="0 0 145 144" fill="none" xmlns="http://www.w3.org/2000/svg">
<g clip-path="url(#clip0_30_120)">
<path d="M130.29 2.85352H32.1992V140.41H106.787L130.29 116.906V2.85352Z" fill="#FFAB31"/>
<path d="M130.219 116.908L106.716 140.412L106.695 116.888L130.219 116.908Z" fill="#000072"/>
<path d="M81.5971 91.8125C98.6983 91.8125 112.561 77.9493 112.561 60.8481C112.561 43.747 98.6983 29.8838 81.5971 29.8838C64.496 29.8838 50.6328 43.747 50.6328 60.8481C50.6328 77.9493 64.496 91.8125 81.5971 91.8125Z" fill="#FFAB31"/>
<path d="M55.0929 96.8955L25.7313 126.257C23.2236 128.765 19.158 128.765 16.6503 126.257C14.1426 123.75 14.1426 119.684 16.6503 117.176L46.0119 87.8145L55.0929 96.8955Z" fill="#000072"/>
<path d="M130.213 0H32.1219C30.546 0 29.2681 1.27762 29.2681 2.85381V99.6269C29.2681 100.197 29.0417 100.743 28.6387 101.146L14.6261 115.159C11.0101 118.775 11.0101 124.66 14.6261 128.276C16.4342 130.084 18.8096 130.988 21.1846 130.988C23.5596 130.988 25.9353 130.084 27.7431 128.276V128.276C28.3058 127.713 29.2678 128.112 29.2678 128.907V140.41C29.2678 141.986 30.5457 143.264 32.1216 143.264H106.709C107.466 143.264 108.192 142.963 108.727 142.428L132.23 118.925C132.765 118.39 133.066 117.664 133.066 116.907V2.85381C133.067 1.27762 131.789 0 130.213 0ZM23.7074 124.24C22.3162 125.631 20.053 125.631 18.6624 124.24C17.2717 122.849 17.2717 120.585 18.6624 119.195L44.4867 93.3705C45.3259 92.5313 46.6865 92.5313 47.5258 93.3705L49.5317 95.3764C50.3709 96.2157 50.3709 97.5763 49.5317 98.4155L23.7074 124.24ZM34.976 121.933C34.976 121.363 35.2024 120.817 35.6054 120.414L57.1053 98.914C58.2197 97.7995 58.2197 95.9925 57.1053 94.878L56.0147 93.7874C55.1755 92.9482 55.1755 91.5876 56.0147 90.7484L58.5636 88.1994C59.3501 87.413 60.6025 87.3628 61.4959 88.0253C67.1188 92.1947 74.074 94.6642 81.5958 94.6642C100.243 94.6642 115.414 79.4933 115.414 60.8458C115.414 42.1982 100.243 27.0279 81.5956 27.0279C62.9483 27.0279 47.7771 42.1988 47.7771 60.8461C47.7771 68.5045 50.3374 75.5756 54.6449 81.2507C55.3233 82.1445 55.28 83.4105 54.4866 84.2039L51.9781 86.7123C51.1389 87.5516 49.7783 87.5516 48.939 86.7123L48.0239 85.7972C47.4887 85.2622 46.7628 84.9614 46.0059 84.9614C45.249 84.9614 44.5232 85.2622 43.9879 85.7972L38.6442 91.1409C37.2905 92.4947 34.9757 91.5359 34.9757 89.6214V7.85657C34.9757 6.66974 35.9378 5.70762 37.1247 5.70762H125.21C126.397 5.70762 127.359 6.66974 127.359 7.85658V111.9C127.359 113.087 126.396 114.05 125.208 114.049L106.691 114.032C106.69 114.032 106.689 114.032 106.689 114.032C105.932 114.032 105.206 114.333 104.671 114.868C104.135 115.403 103.834 116.131 103.835 116.888L103.852 135.405C103.853 136.593 102.89 137.556 101.703 137.556H37.125C35.9381 137.556 34.976 136.594 34.976 135.407V121.933ZM53.485 60.8461C53.485 45.3459 66.0953 32.7355 81.5956 32.7355C97.0958 32.7355 109.706 45.3459 109.706 60.8461C109.706 76.3463 97.0958 88.9566 81.5956 88.9566C66.0953 88.9566 53.485 76.3463 53.485 60.8461ZM109.547 121.896C109.546 120.707 110.51 119.744 111.698 119.745L118.147 119.751C120.061 119.752 121.018 122.066 119.665 123.419L113.222 129.862C111.869 131.215 109.555 130.258 109.554 128.344L109.547 121.896Z" fill="#000039"/>
</g>
<g filter="url(#filter0_i_30_120)">
<path d="M98.3487 53.2447C96.238 61.1064 95.529 62.4682 89.3762 58.6011C76.3209 50.3959 85.3796 51.5281 88.1571 47.736C91.3313 43.4021 95.9171 41.259 97.954 42.333C99.9908 43.4069 99.1651 50.204 98.3487 53.2447Z" fill="#F9A429"/>
</g>
<path d="M97.8972 53.1235C97.3684 55.0931 96.9346 56.627 96.4863 57.7716C96.0329 58.9288 95.5959 59.6012 95.1117 59.9371C94.6653 60.2469 94.0974 60.3228 93.213 60.0539C92.3126 59.7801 91.1597 59.17 89.6249 58.2054C86.3627 56.1551 84.5359 54.7195 83.6432 53.6719C83.1981 53.1496 83.0235 52.767 82.9836 52.4906C82.9474 52.2401 83.0148 52.0286 83.1934 51.8069C83.3855 51.5683 83.6966 51.3328 84.121 51.0772C84.4353 50.888 84.7832 50.704 85.1589 50.5052C85.2896 50.4361 85.4236 50.3651 85.5608 50.2916C86.5928 49.7383 87.77 49.0555 88.5342 48.0122C90.082 45.8989 91.9685 44.3285 93.6992 43.4205C94.5648 42.9663 95.3786 42.6846 96.0812 42.5767C96.7887 42.4681 97.3458 42.5408 97.7359 42.7465C98.057 42.9158 98.3456 43.3651 98.5346 44.1703C98.718 44.9509 98.7804 45.9515 98.754 47.0399C98.701 49.214 98.2964 51.6366 97.8972 53.1235Z" stroke="#000072" stroke-width="0.934946"/>
<path d="M91.2654 57.342L91.2104 57.3052L91.145 57.295C90.3755 57.1758 89.9364 56.822 89.6979 56.3489C89.4499 55.857 89.3983 55.194 89.5059 54.4351C89.7209 52.9183 90.55 51.1686 91.3426 50.059C92.249 48.79 93.3327 47.8333 94.3142 47.2681C94.8053 46.9853 95.2619 46.8056 95.6508 46.7293C96.0437 46.6522 96.3379 46.6859 96.5334 46.7889C96.6819 46.8672 96.832 47.1009 96.9219 47.5725C97.0079 48.0232 97.0227 48.6061 96.986 49.2438C96.9127 50.517 96.6382 51.9431 96.3855 52.8218C96.051 53.9848 95.7539 54.9905 95.4426 55.8141C95.1298 56.6419 94.8134 57.255 94.4541 57.6514C94.1072 58.0341 93.727 58.2094 93.2505 58.1836C92.7505 58.1565 92.1094 57.9061 91.2654 57.342Z" fill="#FF7E7E" stroke="#000072" stroke-width="0.598294"/>
<g filter="url(#filter1_i_30_120)">
<path d="M63.9442 53.2447C66.055 61.1064 66.764 62.4682 72.9168 58.6011C85.9721 50.3959 76.9133 51.5281 74.1359 47.736C70.9617 43.4021 66.3758 41.259 64.339 42.333C62.3022 43.4069 63.1279 50.204 63.9442 53.2447Z" fill="#F9A429"/>
</g>
<path d="M64.3957 53.1235C64.9245 55.0931 65.3583 56.627 65.8067 57.7716C66.26 58.9288 66.6971 59.6012 67.1812 59.9371C67.6277 60.2469 68.1955 60.3228 69.08 60.0539C69.9804 59.7801 71.1333 59.17 72.668 58.2054C75.9302 56.1551 77.7571 54.7195 78.6497 53.6719C79.0949 53.1496 79.2695 52.767 79.3094 52.4906C79.3455 52.2401 79.2782 52.0286 79.0996 51.8069C78.9074 51.5683 78.5964 51.3328 78.1719 51.0772C77.8576 50.888 77.5098 50.704 77.1341 50.5052C77.0034 50.4361 76.8694 50.3651 76.7322 50.2916C75.7001 49.7383 74.523 49.0555 73.7588 48.0122C72.211 45.8989 70.3244 44.3285 68.5938 43.4205C67.7282 42.9663 66.9144 42.6846 66.2117 42.5767C65.5043 42.4681 64.9472 42.5408 64.557 42.7465C64.236 42.9158 63.9474 43.3651 63.7583 44.1703C63.575 44.9509 63.5125 45.9515 63.539 47.0399C63.5919 49.214 63.9965 51.6366 64.3957 53.1235Z" stroke="#000072" stroke-width="0.934946"/>
<path d="M71.0236 57.342L71.0786 57.3052L71.1441 57.295C71.9136 57.1758 72.3527 56.822 72.5911 56.3489C72.8391 55.857 72.8908 55.194 72.7832 54.4351C72.5682 52.9183 71.739 51.1686 70.9465 50.059C70.0401 48.79 68.9564 47.8333 67.9749 47.2681C67.4838 46.9853 67.0272 46.8056 66.6383 46.7293C66.2453 46.6522 65.9511 46.6859 65.7556 46.7889C65.6071 46.8672 65.4571 47.1009 65.3671 47.5725C65.2811 48.0232 65.2663 48.6061 65.3031 49.2438C65.3764 50.517 65.6509 51.9431 65.9036 52.8218C66.2381 53.9848 66.5352 54.9905 66.8464 55.8141C67.1593 56.6419 67.4757 57.255 67.8349 57.6514C68.1818 58.0341 68.562 58.2094 69.0386 58.1836C69.5386 58.1565 70.1796 57.9061 71.0236 57.342Z" fill="#FF7E7E" stroke="#000072" stroke-width="0.598294"/>
<g filter="url(#filter2_i_30_120)">
<path d="M96.6147 67.1677C97.1374 64.1961 95.8922 62.2281 94.9039 61.3312C94.6257 61.0788 94.4299 60.7351 94.4142 60.3598C94.1258 53.4746 88.9241 47.9663 81.9676 47.7979H79.7798C72.8206 47.9663 68.1291 53.4745 67.8695 60.3598C67.8554 60.7351 67.6593 61.0788 67.3811 61.3312C66.3928 62.2281 65.1477 64.1961 65.6703 67.1677C66.2829 70.6506 69.3532 72.7549 70.8118 73.3716C72.2704 73.9884 75.6652 74.5655 81.1736 74.6233C86.682 74.6811 90.0146 73.9884 91.4732 73.3716C92.9318 72.7549 96.0021 70.6506 96.6147 67.1677Z" fill="#F9A429"/>
</g>
<path d="M94.684 61.5735C95.6014 62.406 96.793 64.2653 96.2925 67.111C96.0007 68.7697 95.1222 70.1091 94.1285 71.1145C93.133 72.1216 92.0369 72.7781 91.3458 73.0703C89.9476 73.6615 86.6671 74.3538 81.177 74.2961C75.6727 74.2384 72.3342 73.6601 70.9392 73.0703C70.2482 72.7781 69.152 72.1216 68.1565 71.1145C67.1628 70.1091 66.2843 68.7697 65.9926 67.111C65.492 64.2653 66.6836 62.406 67.601 61.5735C67.928 61.2767 68.1783 60.8551 68.1965 60.3721C68.4506 53.6308 73.0281 48.2906 79.7837 48.125H81.9636C88.7337 48.291 93.8057 53.6493 94.0873 60.3735C94.1075 60.8553 94.3567 61.2765 94.684 61.5735Z" stroke="#000072" stroke-width="0.654362"/>
<g filter="url(#filter3_i_30_120)">
<path d="M87.1657 63.7709C93.0439 62.712 97.8489 61.3645 95.5364 68.3019C94.2276 72.2281 89.6471 74.5184 81.0313 74.0178V60.8867C83.976 60.8858 81.8251 64.733 87.1657 63.7709Z" fill="white"/>
</g>
<g filter="url(#filter4_i_30_120)">
<path d="M75.0882 63.7709C69.21 62.712 64.405 61.3645 66.7175 68.3019C68.0263 72.2281 72.6068 74.5184 81.2226 74.0178V60.8867C78.2779 60.8858 80.4288 64.733 75.0882 63.7709Z" fill="white"/>
</g>
<ellipse cx="92.8571" cy="65.4512" rx="2.57708" ry="1.63575" transform="rotate(-9.43014 92.8571 65.4512)" fill="#FF7E7E"/>
<ellipse cx="2.57708" cy="1.63575" rx="2.57708" ry="1.63575" transform="matrix(-0.986486 -0.163845 -0.163845 0.986486 72.1836 64.2598)" fill="#FF7E7E"/>
<path d="M86.5887 55.1482C86.5887 55.8152 84.4139 56.356 83.7468 56.356C83.0798 56.356 82.5391 55.8152 82.5391 55.1482C82.5391 54.4812 83.0798 53.9404 83.7468 53.9404C84.4139 53.9404 86.5887 54.4812 86.5887 55.1482Z" fill="white"/>
<path d="M75.6691 55.159C75.6691 55.826 77.8439 56.3667 78.511 56.3667C79.178 56.3667 79.7188 55.826 79.7188 55.159C79.7188 54.4919 79.178 53.9512 78.511 53.9512C77.8439 53.9512 75.6691 54.4919 75.6691 55.159Z" fill="white"/>
<path d="M82.8895 65.6651C82.8895 69.5587 81.7663 69.2747 81.1612 69.2747C80.5561 69.2747 79.3711 69.5587 79.3711 65.6651C79.3711 64.452 80.0431 62.9764 80.2198 61.5198C80.6102 58.3012 80.7446 55.1748 81.1612 55.1748C81.5777 55.1748 81.7149 58.3012 82.0871 61.5198C82.2555 62.9764 82.8895 64.452 82.8895 65.6651Z" fill="white"/>
<path d="M83.2915 69.902C83.2915 70.907 82.9772 71.8157 82.5483 72.47C82.3339 72.7971 82.0938 73.0563 81.855 73.2321C81.6147 73.409 81.3869 73.4937 81.1934 73.4937C81.0465 73.4937 80.8406 73.4142 80.6025 73.2336C80.3689 73.0564 80.1224 72.7953 79.8975 72.467C79.4473 71.8101 79.0953 70.9021 79.0953 69.902C79.0953 69.6039 79.0611 69.3479 79.0337 69.1432C79.027 69.0926 79.0206 69.0452 79.0153 69.001C78.9863 68.7594 78.9957 68.6519 79.0431 68.5837C79.0887 68.5182 79.2076 68.4392 79.5609 68.3861C79.9046 68.3344 80.4211 68.3131 81.1934 68.3131C81.9658 68.3131 82.4822 68.3344 82.8259 68.3861C83.1793 68.4392 83.2982 68.5182 83.3438 68.5837C83.3912 68.6519 83.4005 68.7594 83.3715 69.001C83.3662 69.0452 83.3599 69.0926 83.3531 69.1433C83.3258 69.3479 83.2915 69.604 83.2915 69.902Z" fill="#000072" stroke="#000072" stroke-width="0.356743"/>
<mask id="path-22-outside-1_30_120" maskUnits="userSpaceOnUse" x="78.8555" y="68.4346" width="4" height="5" fill="black">
<rect fill="white" x="78.8555" y="68.4346" width="4" height="5"/>
<path fill-rule="evenodd" clip-rule="evenodd" d="M80.0486 69.7118C80.1777 69.5432 80.3806 69.4346 80.6086 69.4346C80.8405 69.4346 81.0463 69.5469 81.1751 69.7204C81.3038 69.5469 81.5096 69.4346 81.7415 69.4346C82.0733 69.4346 82.3516 69.6645 82.4274 69.9744C82.5246 70.256 82.4908 70.7133 82.4645 71.07C82.4543 71.2076 82.4452 71.3303 82.4452 71.4221C82.4452 72.0494 81.72 73.1258 81.1739 73.1258C80.6278 73.1258 79.9026 72.0494 79.9026 71.4221C79.9026 71.3314 79.8937 71.2078 79.8837 71.0676C79.8493 70.5865 79.801 69.9112 80.0486 69.7118Z"/>
</mask>
<path fill-rule="evenodd" clip-rule="evenodd" d="M80.0486 69.7118C80.1777 69.5432 80.3806 69.4346 80.6086 69.4346C80.8405 69.4346 81.0463 69.5469 81.1751 69.7204C81.3038 69.5469 81.5096 69.4346 81.7415 69.4346C82.0733 69.4346 82.3516 69.6645 82.4274 69.9744C82.5246 70.256 82.4908 70.7133 82.4645 71.07C82.4543 71.2076 82.4452 71.3303 82.4452 71.4221C82.4452 72.0494 81.72 73.1258 81.1739 73.1258C80.6278 73.1258 79.9026 72.0494 79.9026 71.4221C79.9026 71.3314 79.8937 71.2078 79.8837 71.0676C79.8493 70.5865 79.801 69.9112 80.0486 69.7118Z" fill="#FC6A6C"/>
<path d="M80.0486 69.7118L80.2356 69.9441L80.2635 69.9216L80.2853 69.8931L80.0486 69.7118ZM81.1751 69.7204L80.9357 69.8981L81.1751 70.2206L81.4145 69.8981L81.1751 69.7204ZM82.4274 69.9744L82.1378 70.0452L82.1411 70.0587L82.1456 70.0717L82.4274 69.9744ZM82.4645 71.07L82.1671 71.048L82.1671 71.048L82.4645 71.07ZM79.8837 71.0676L79.5863 71.0888L79.8837 71.0676ZM80.2853 69.8931C80.3607 69.7947 80.4776 69.7327 80.6086 69.7327L80.6086 69.1364C80.2835 69.1364 79.9948 69.2917 79.8119 69.5306L80.2853 69.8931ZM80.6086 69.7327C80.7418 69.7327 80.8605 69.7968 80.9357 69.8981L81.4145 69.5426C81.2321 69.297 80.9392 69.1364 80.6086 69.1364L80.6086 69.7327ZM81.4145 69.8981C81.4896 69.7968 81.6083 69.7327 81.7415 69.7327L81.7415 69.1364C81.4109 69.1364 81.118 69.297 80.9357 69.5426L81.4145 69.8981ZM81.7415 69.7327C81.9317 69.7327 82.0936 69.8647 82.1378 70.0452L82.717 69.9035C82.6096 69.4642 82.2148 69.1364 81.7415 69.1364L81.7415 69.7327ZM82.1456 70.0717C82.1776 70.1644 82.1937 70.3086 82.1941 70.4946C82.1945 70.6755 82.1804 70.8677 82.1671 71.048L82.7618 71.092C82.7748 70.9156 82.7909 70.7007 82.7904 70.4934C82.79 70.2912 82.7745 70.066 82.7092 69.8771L82.1456 70.0717ZM82.1671 71.048C82.1573 71.1812 82.147 71.3167 82.147 71.4221L82.7434 71.4221C82.7434 71.3439 82.7513 71.2341 82.7618 71.092L82.1671 71.048ZM82.147 71.4221C82.147 71.6463 82.0051 72.0109 81.7722 72.3353C81.6597 72.4919 81.5374 72.6226 81.4218 72.711C81.301 72.8034 81.2168 72.8277 81.1739 72.8277L81.1739 73.424C81.4041 73.424 81.6153 73.3137 81.784 73.1847C81.958 73.0517 82.1194 72.874 82.2565 72.6831C82.5227 72.3125 82.7434 71.8251 82.7434 71.4221L82.147 71.4221ZM81.1739 72.8277C81.131 72.8277 81.0468 72.8034 80.926 72.711C80.8103 72.6226 80.6881 72.4919 80.5756 72.3353C80.3426 72.0109 80.2007 71.6463 80.2007 71.4221L79.6044 71.4221C79.6044 71.8251 79.8251 72.3125 80.0913 72.6831C80.2283 72.874 80.3898 73.0517 80.5637 73.1847C80.7325 73.3137 80.9437 73.424 81.1739 73.424L81.1739 72.8277ZM80.2007 71.4221C80.2007 71.3183 80.1908 71.182 80.1811 71.0463L79.5863 71.0888C79.5966 71.2335 79.6044 71.3446 79.6044 71.4221L80.2007 71.4221ZM80.1811 71.0463C80.1636 70.8015 80.1448 70.5323 80.1581 70.3012C80.1647 70.186 80.1787 70.0936 80.1991 70.0261C80.2204 69.9551 80.24 69.9406 80.2356 69.9441L79.8616 69.4796C79.7335 69.5828 79.6662 69.7275 79.628 69.8542C79.5889 69.9843 79.5707 70.1283 79.5627 70.267C79.5469 70.5436 79.5694 70.8526 79.5863 71.0888L80.1811 71.0463Z" fill="#000072" mask="url(#path-22-outside-1_30_120)"/>
<circle cx="77.8995" cy="66.9415" r="3.03231" fill="white"/>
<ellipse cx="84.216" cy="66.7789" rx="3.0246" ry="2.99374" fill="white"/>
<path d="M81.1797 66.7393C81.1797 68.414 82.5373 69.7716 84.212 69.7716C84.6954 69.7871 85.8996 69.6599 86.8488 69.027" stroke="#000072" stroke-width="0.833308" stroke-linecap="round"/>
<ellipse cx="3.04003" cy="2.99374" rx="3.04003" ry="2.99374" transform="matrix(-1 4.48695e-09 4.48695e-09 1 81.1914 63.8164)" fill="white"/>
<path d="M81.1797 66.7393C81.1797 68.414 79.8221 69.7716 78.1474 69.7716C77.664 69.7871 76.4598 69.6599 75.5106 69.027" stroke="#000072" stroke-width="0.833308" stroke-linecap="round"/>
<path d="M84.6057 65.9112C84.6057 67.2218 83.071 67.2296 81.1778 67.2296C79.2847 67.2296 77.75 67.2218 77.75 65.9112C77.75 64.6006 79.2847 63.5381 81.1778 63.5381C83.071 63.5381 84.6057 64.6006 84.6057 65.9112Z" fill="#000072"/>
<path d="M83.0235 64.7246C83.0235 64.9431 82.1972 64.5928 81.1778 64.5928C80.1584 64.5928 79.332 64.9431 79.332 64.7246C79.332 64.5062 80.1584 64.0654 81.1778 64.0654C82.1972 64.0654 83.0235 64.5062 83.0235 64.7246Z" fill="#A5A5F8"/>
<path d="M71.8185 74.6115C71.8185 76.5771 69.9264 78.2631 67.4688 78.2631C65.0111 78.2631 63.119 76.5771 63.119 74.6115C63.119 72.6458 65.0111 70.9598 67.4688 70.9598C69.9264 70.9598 71.8185 72.6458 71.8185 74.6115Z" fill="white" stroke="#000072" stroke-width="0.706768"/>
<path d="M69.6001 77.6728L69.1289 75.7881" stroke="#000072" stroke-width="0.706768" stroke-linecap="round"/>
<path d="M67.2407 77.9091L66.7695 76.0244" stroke="#000072" stroke-width="0.706768" stroke-linecap="round"/>
<path d="M90.4471 74.6115C90.4471 76.5771 92.3392 78.2631 94.7969 78.2631C97.2545 78.2631 99.1466 76.5771 99.1466 74.6115C99.1466 72.6458 97.2545 70.9598 94.7969 70.9598C92.3392 70.9598 90.4471 72.6458 90.4471 74.6115Z" fill="white" stroke="#000072" stroke-width="0.706768"/>
<path d="M92.6655 77.6728L93.1367 75.7881" stroke="#000072" stroke-width="0.706768" stroke-linecap="round"/>
<path d="M95.021 77.9091L95.4922 76.0244" stroke="#000072" stroke-width="0.706768" stroke-linecap="round"/>
<path d="M92.2592 61.8581C92.2592 64.4247 90.1786 63.0431 87.612 63.0431C85.0455 63.0431 82.9648 64.4247 82.9648 61.8581C82.9648 59.2916 85.0455 57.2109 87.612 57.2109C90.1786 57.2109 92.2592 59.2916 92.2592 61.8581Z" fill="#000072"/>
<path d="M91.5916 61.6562C91.5916 63.855 89.8091 62.6713 87.6103 62.6713C85.4114 62.6713 83.6289 63.855 83.6289 61.6562C83.6289 59.4573 85.4114 57.6748 87.6103 57.6748C89.8091 57.6748 91.5916 59.4573 91.5916 61.6562Z" fill="white"/>
<ellipse cx="87.8821" cy="61.7642" rx="2.43991" ry="2.24074" transform="rotate(-16.9666 87.8821 61.7642)" fill="#000072"/>
<circle cx="89.4256" cy="59.9523" r="1.35483" transform="rotate(-16.9666 89.4256 59.9523)" fill="white"/>
<path d="M79.3139 61.8581C79.3139 64.4247 77.2333 63.0431 74.6667 63.0431C72.1002 63.0431 70.0195 64.4247 70.0195 61.8581C70.0195 59.2916 72.1002 57.2109 74.6667 57.2109C77.2333 57.2109 79.3139 59.2916 79.3139 61.8581Z" fill="#000072"/>
<path d="M78.6463 61.6562C78.6463 63.855 76.8638 62.6713 74.665 62.6713C72.4661 62.6713 70.6836 63.855 70.6836 61.6562C70.6836 59.4573 72.4661 57.6748 74.665 57.6748C76.8638 57.6748 78.6463 59.4573 78.6463 61.6562Z" fill="white"/>
<ellipse cx="74.9368" cy="61.7642" rx="2.43991" ry="2.24074" transform="rotate(-16.9666 74.9368 61.7642)" fill="#000072"/>
<circle cx="76.8357" cy="60.2296" r="1.35483" transform="rotate(-16.9666 76.8357 60.2296)" fill="white"/>
<defs>
<filter id="filter0_i_30_120" x="82.5078" y="42.0596" width="16.7188" height="18.626" filterUnits="userSpaceOnUse" color-interpolation-filters="sRGB">
<feFlood flood-opacity="0" result="BackgroundImageFix"/>
<feBlend mode="normal" in="SourceGraphic" in2="BackgroundImageFix" result="shape"/>
<feColorMatrix in="SourceAlpha" type="matrix" values="0 0 0 0 0 0 0 0 0 0 0 0 0 0 0 0 0 0 127 0" result="hardAlpha"/>
<feOffset dy="2.22215"/>
<feComposite in2="hardAlpha" operator="arithmetic" k2="-1" k3="1"/>
<feColorMatrix type="matrix" values="0 0 0 0 1 0 0 0 0 1 0 0 0 0 1 0 0 0 0.5 0"/>
<feBlend mode="normal" in2="shape" result="effect1_innerShadow_30_120"/>
</filter>
<filter id="filter1_i_30_120" x="63.0664" y="42.0596" width="16.7188" height="18.626" filterUnits="userSpaceOnUse" color-interpolation-filters="sRGB">
<feFlood flood-opacity="0" result="BackgroundImageFix"/>
<feBlend mode="normal" in="SourceGraphic" in2="BackgroundImageFix" result="shape"/>
<feColorMatrix in="SourceAlpha" type="matrix" values="0 0 0 0 0 0 0 0 0 0 0 0 0 0 0 0 0 0 127 0" result="hardAlpha"/>
<feOffset dy="2.22215"/>
<feComposite in2="hardAlpha" operator="arithmetic" k2="-1" k3="1"/>
<feColorMatrix type="matrix" values="0 0 0 0 1 0 0 0 0 1 0 0 0 0 1 0 0 0 0.5 0"/>
<feBlend mode="normal" in2="shape" result="effect1_innerShadow_30_120"/>
</filter>
<filter id="filter2_i_30_120" x="65.5469" y="47.7979" width="31.1914" height="26.8291" filterUnits="userSpaceOnUse" color-interpolation-filters="sRGB">
<feFlood flood-opacity="0" result="BackgroundImageFix"/>
<feBlend mode="normal" in="SourceGraphic" in2="BackgroundImageFix" result="shape"/>
<feColorMatrix in="SourceAlpha" type="matrix" values="0 0 0 0 0 0 0 0 0 0 0 0 0 0 0 0 0 0 127 0" result="hardAlpha"/>
<feOffset dy="1.23453"/>
<feComposite in2="hardAlpha" operator="arithmetic" k2="-1" k3="1"/>
<feColorMatrix type="matrix" values="0 0 0 0 1 0 0 0 0 1 0 0 0 0 1 0 0 0 0.5 0"/>
<feBlend mode="normal" in2="shape" result="effect1_innerShadow_30_120"/>
</filter>
<filter id="filter3_i_30_120" x="81.0312" y="60.8867" width="15.0977" height="13.1992" filterUnits="userSpaceOnUse" color-interpolation-filters="sRGB">
<feFlood flood-opacity="0" result="BackgroundImageFix"/>
<feBlend mode="normal" in="SourceGraphic" in2="BackgroundImageFix" result="shape"/>
<feColorMatrix in="SourceAlpha" type="matrix" values="0 0 0 0 0 0 0 0 0 0 0 0 0 0 0 0 0 0 127 0" result="hardAlpha"/>
<feOffset dy="-0.339496"/>
<feComposite in2="hardAlpha" operator="arithmetic" k2="-1" k3="1"/>
<feColorMatrix type="matrix" values="0 0 0 0 0 0 0 0 0 0 0 0 0 0 0 0 0 0 0.25 0"/>
<feBlend mode="normal" in2="shape" result="effect1_innerShadow_30_120"/>
</filter>
<filter id="filter4_i_30_120" x="66.125" y="60.8867" width="15.0977" height="13.1992" filterUnits="userSpaceOnUse" color-interpolation-filters="sRGB">
<feFlood flood-opacity="0" result="BackgroundImageFix"/>
<feBlend mode="normal" in="SourceGraphic" in2="BackgroundImageFix" result="shape"/>
<feColorMatrix in="SourceAlpha" type="matrix" values="0 0 0 0 0 0 0 0 0 0 0 0 0 0 0 0 0 0 127 0" result="hardAlpha"/>
<feOffset dy="-0.339496"/>
<feComposite in2="hardAlpha" operator="arithmetic" k2="-1" k3="1"/>
<feColorMatrix type="matrix" values="0 0 0 0 0 0 0 0 0 0 0 0 0 0 0 0 0 0 0.25 0"/>
<feBlend mode="normal" in2="shape" result="effect1_innerShadow_30_120"/>
</filter>
<clipPath id="clip0_30_120">
<rect width="143.264" height="143.264" fill="white" transform="translate(0.863281)"/>
</clipPath>
</defs>
</svg>
