<svg width="463" height="589" viewBox="0 0 463 589" fill="none" xmlns="http://www.w3.org/2000/svg">
<path d="M273.682 438.289L283.503 375.116M147.336 418.648L157.156 355.475" stroke="#000039" stroke-width="19.1796" stroke-linecap="round"/>
<path d="M272.408 321.632L183.966 307.883C163.12 304.643 152.696 303.022 145.07 309.417C140.816 312.983 138.359 318.266 136.375 326.375C133.627 337.607 132.253 343.223 135.372 347.899C138.491 352.574 144.713 353.541 157.157 355.476L283.504 375.117C295.948 377.051 302.17 378.018 306.561 374.511C310.953 371.002 311.348 365.235 312.139 353.698C312.71 345.37 311.973 339.59 309.003 334.901C303.677 326.493 293.254 324.873 272.408 321.632Z" stroke="#000039" stroke-width="19.1796"/>
<path d="M172.871 254.398C176.542 230.781 178.378 218.972 184.823 210.966C189.046 205.721 194.575 201.68 200.854 199.249C210.439 195.538 222.248 197.374 245.865 201.045C269.481 204.716 281.29 206.552 289.296 212.998C294.542 217.22 298.583 222.749 301.014 229.028C304.724 238.613 302.889 250.422 299.217 274.039L291.361 324.577L165.015 304.936L172.871 254.398Z" stroke="#000039" stroke-width="19.1796"/>
<path fill-rule="evenodd" clip-rule="evenodd" d="M298.969 250.372C307.56 268.919 306.49 282.561 301.384 302.351C303.673 300.678 304.982 299.722 306.246 299.048C311.391 295.789 317.033 294.927 322.626 298.116C328.174 301.587 330.257 306.84 329.245 313.35C327.504 326.415 320.497 336.053 310.792 344.401C304.817 349.27 298.218 348.824 291.644 346.353C283.983 343.422 276.365 340.209 269.03 337.039C256.665 331.843 239.844 327.852 232.979 326.507C231.281 326.243 229.664 325.919 228.047 325.595C227.666 325.519 227.285 325.442 226.903 325.367C226.513 325.322 226.123 325.279 225.733 325.236C224.094 325.053 222.456 324.871 220.757 324.607C213.808 323.805 196.569 322.501 183.21 323.699C177.742 324.244 172.141 324.769 166.511 325.195C163.955 325.389 161.393 325.562 158.835 325.708C151.822 326.067 145.399 324.489 141.184 318.035C134.471 307.135 130.721 295.825 133.028 282.848C134.04 276.338 137.619 271.966 143.96 270.342C150.256 269.002 155.37 271.536 159.283 276.203C160.284 277.228 161.24 278.537 162.913 280.826C164.056 260.42 167.178 247.096 180.994 232.033C184.485 228.227 187.535 227.252 192.001 226.496C192.919 226.341 193.848 226.261 194.764 226.182C198.304 225.876 201.659 225.587 203.518 221.039C204.939 217.491 207.008 217.233 210.405 217.761C221.116 219.609 231.94 221.475 242.745 223.265C253.6 224.842 264.495 226.352 275.278 227.845C278.675 228.373 280.568 229.247 280.845 233.059C281.236 237.956 284.344 239.251 287.625 240.617C288.473 240.97 289.334 241.328 290.161 241.755C294.187 243.831 296.798 245.686 298.969 250.372Z" fill="#FFAB31"/>
<path d="M159.283 276.202C160.283 277.228 161.239 278.536 162.913 280.825C172.556 303.894 169.329 320.017 166.511 325.195C163.955 325.388 161.393 325.562 158.835 325.707C151.821 326.066 145.399 324.488 141.183 318.035C134.471 307.134 130.72 295.825 133.028 282.848C134.04 276.337 137.619 271.965 143.959 270.341C150.256 269.001 155.37 271.535 159.283 276.202Z" fill="white"/>
<path d="M305.431 300.617C304.19 301.253 302.907 302.158 300.661 303.743C284.817 321.833 283.105 337.409 284.23 342.935C286.574 343.863 288.93 344.773 291.29 345.658C297.773 348.047 304.27 348.505 310.128 343.89C319.641 335.976 326.491 326.82 328.141 314.369C329.105 308.165 327.029 303.146 321.551 299.808C316.03 296.74 310.48 297.534 305.431 300.617Z" fill="white"/>
<path d="M184.542 231.133L196.635 227.939L202.846 225.281L206.557 220.06L210.803 220.72L243.356 225.78L277.324 231.061L281.885 239.018L292.548 245.024L294.939 248.294C294.939 248.294 263.579 251.106 257.45 265.659C247.898 288.342 247.769 327.935 247.769 327.935L208.14 321.774C208.14 321.774 220.484 283.966 217.821 259.499C216.087 243.575 184.542 231.133 184.542 231.133Z" fill="white"/>
<mask id="path-8-inside-1_30_96" fill="white">
<path fill-rule="evenodd" clip-rule="evenodd" d="M298.969 250.372C307.56 268.919 306.49 282.561 301.384 302.351C303.673 300.678 304.982 299.722 306.246 299.048C311.391 295.789 317.033 294.927 322.626 298.116C328.174 301.587 330.257 306.84 329.245 313.35C327.504 326.415 320.497 336.053 310.792 344.401C304.817 349.27 298.218 348.824 291.644 346.353C289.252 345.438 286.863 344.495 284.486 343.535C279.252 341.42 274.074 339.219 269.03 337.039C256.665 331.843 239.844 327.852 232.979 326.507C231.281 326.243 229.664 325.919 228.047 325.595C227.666 325.519 227.285 325.442 226.903 325.367C226.513 325.322 226.123 325.279 225.733 325.236C224.094 325.053 222.456 324.871 220.757 324.607C213.808 323.805 196.569 322.501 183.21 323.699C177.742 324.244 172.141 324.769 166.511 325.195C163.955 325.389 161.393 325.562 158.835 325.708C151.822 326.067 145.399 324.489 141.184 318.035C134.471 307.135 130.721 295.825 133.028 282.848C134.04 276.338 137.619 271.966 143.96 270.342C150.256 269.002 155.37 271.536 159.283 276.203C160.284 277.228 161.24 278.537 162.913 280.826C164.056 260.42 167.178 247.096 180.994 232.033C184.485 228.227 187.535 227.252 192.001 226.496C192.919 226.341 193.848 226.261 194.764 226.182C198.304 225.876 201.659 225.587 203.518 221.039C204.939 217.491 207.008 217.233 210.405 217.761C221.116 219.609 231.94 221.475 242.745 223.265C253.6 224.842 264.495 226.352 275.278 227.845C278.675 228.373 280.568 229.247 280.845 233.059C281.236 237.956 284.344 239.251 287.625 240.617C288.473 240.97 289.334 241.328 290.161 241.755C294.187 243.831 296.798 245.686 298.969 250.372Z"/>
</mask>
<path d="M301.384 302.351L297.638 301.385L294.937 311.855L303.666 305.474L301.384 302.351ZM298.969 250.372L302.479 248.746L302.479 248.746L298.969 250.372ZM306.246 299.048L308.064 302.463L308.193 302.394L308.316 302.316L306.246 299.048ZM322.626 298.116L324.678 294.837L324.61 294.795L324.542 294.755L322.626 298.116ZM329.245 313.35L325.422 312.756L325.416 312.798L325.41 312.839L329.245 313.35ZM310.792 344.401L313.236 347.4L313.276 347.367L313.315 347.334L310.792 344.401ZM291.644 346.353L290.263 349.966L290.273 349.97L290.283 349.974L291.644 346.353ZM284.486 343.535L283.037 347.121L283.037 347.121L284.486 343.535ZM269.03 337.039L270.564 333.488L270.546 333.481L270.528 333.473L269.03 337.039ZM232.979 326.507L233.723 322.711L233.648 322.696L233.573 322.684L232.979 326.507ZM228.047 325.595L228.807 321.802L228.807 321.802L228.047 325.595ZM226.903 325.367L227.654 321.572L227.498 321.541L227.341 321.523L226.903 325.367ZM225.733 325.236L225.305 329.08L225.305 329.08L225.733 325.236ZM220.757 324.607L221.351 320.785L221.276 320.773L221.2 320.764L220.757 324.607ZM183.21 323.699L182.865 319.846L182.845 319.848L182.826 319.85L183.21 323.699ZM166.511 325.195L166.803 329.053L166.803 329.053L166.511 325.195ZM158.835 325.708L159.033 329.571L159.044 329.571L159.055 329.57L158.835 325.708ZM141.184 318.035L137.89 320.064L137.917 320.108L137.945 320.151L141.184 318.035ZM133.028 282.848L136.837 283.525L136.844 283.484L136.851 283.442L133.028 282.848ZM143.96 270.342L143.154 266.558L143.077 266.575L143 266.595L143.96 270.342ZM159.283 276.203L156.319 278.688L156.413 278.8L156.514 278.904L159.283 276.203ZM162.913 280.826L159.79 283.109L166.171 291.838L166.775 281.042L162.913 280.826ZM180.994 232.033L183.845 234.648L183.845 234.648L180.994 232.033ZM192.001 226.496L192.646 230.31L192.646 230.31L192.001 226.496ZM194.764 226.182L195.096 230.036L195.096 230.036L194.764 226.182ZM203.518 221.039L207.098 222.502L207.103 222.49L207.108 222.477L203.518 221.039ZM210.405 217.761L211.063 213.949L211.031 213.943L210.999 213.938L210.405 217.761ZM242.745 223.265L242.113 227.081L242.151 227.087L242.189 227.093L242.745 223.265ZM275.278 227.845L275.872 224.023L275.84 224.018L275.808 224.013L275.278 227.845ZM280.845 233.059L276.987 233.34L276.988 233.353L276.989 233.366L280.845 233.059ZM287.625 240.617L286.138 244.188L286.138 244.188L287.625 240.617ZM290.161 241.755L288.389 245.193L288.389 245.193L290.161 241.755ZM305.129 303.318C307.711 293.312 309.359 284.549 309.18 275.816C308.999 267.012 306.969 258.44 302.479 248.746L295.459 251.998C299.559 260.851 301.289 268.374 301.445 275.975C301.602 283.647 300.162 291.601 297.638 301.385L305.129 303.318ZM304.428 295.634C302.863 296.467 301.298 297.622 299.101 299.228L303.666 305.474C306.048 303.733 307.1 302.976 308.064 302.463L304.428 295.634ZM324.542 294.755C317.417 290.693 310.221 291.952 304.176 295.78L308.316 302.316C312.561 299.627 316.65 299.161 320.71 301.476L324.542 294.755ZM333.067 313.944C333.659 310.135 333.382 306.44 331.956 303.081C330.52 299.7 328.035 296.938 324.678 294.837L320.574 301.395C322.764 302.766 324.096 304.365 324.835 306.106C325.584 307.869 325.842 310.055 325.422 312.756L333.067 313.944ZM313.315 347.334C323.456 338.61 331.171 328.182 333.079 313.861L325.41 312.839C323.836 324.649 317.539 333.495 308.269 341.468L313.315 347.334ZM290.283 349.974C297.517 352.694 305.759 353.493 313.236 347.4L308.348 341.402C303.874 345.048 298.919 344.955 293.006 342.732L290.283 349.974ZM283.037 347.121C285.433 348.089 287.844 349.041 290.263 349.966L293.026 342.74C290.659 341.835 288.293 340.901 285.935 339.948L283.037 347.121ZM267.495 340.59C272.552 342.776 277.762 344.99 283.037 347.121L285.935 339.948C280.742 337.849 275.595 335.662 270.564 333.488L267.495 340.59ZM232.235 330.303C239 331.629 255.523 335.559 267.531 340.605L270.528 333.473C257.806 328.127 240.687 324.076 233.723 322.711L232.235 330.303ZM227.287 329.388C228.893 329.71 230.59 330.05 232.385 330.329L233.573 322.684C231.971 322.435 230.435 322.128 228.807 321.802L227.287 329.388ZM226.153 329.162C226.53 329.236 226.906 329.312 227.288 329.388L228.807 321.802C228.427 321.726 228.041 321.649 227.654 321.572L226.153 329.162ZM227.341 321.523C226.944 321.478 226.55 321.434 226.16 321.391L225.305 329.08C225.696 329.124 226.081 329.167 226.466 329.21L227.341 321.523ZM226.161 321.391C224.511 321.208 222.954 321.034 221.351 320.785L220.163 328.43C221.957 328.708 223.678 328.899 225.305 329.08L226.161 321.391ZM221.2 320.764C214.151 319.951 196.61 318.614 182.865 319.846L183.555 327.552C196.528 326.389 213.465 327.66 220.314 328.45L221.2 320.764ZM182.826 319.85C177.372 320.394 171.805 320.915 166.219 321.338L166.803 329.053C172.476 328.623 178.112 328.095 183.594 327.548L182.826 319.85ZM166.219 321.338C163.684 321.53 161.146 321.702 158.615 321.846L159.055 329.57C161.64 329.423 164.227 329.248 166.803 329.053L166.219 321.338ZM158.637 321.845C152.329 322.168 147.579 320.752 144.423 315.92L137.945 320.151C143.219 328.226 151.315 329.966 159.033 329.571L158.637 321.845ZM144.478 316.007C138.066 305.596 134.751 295.256 136.837 283.525L129.22 282.171C126.691 296.395 130.876 308.674 137.89 320.064L144.478 316.007ZM136.851 283.442C137.27 280.741 138.18 278.737 139.429 277.284C140.662 275.85 142.416 274.73 144.919 274.089L143 266.595C139.163 267.577 135.957 269.455 133.562 272.241C131.184 275.008 129.798 278.445 129.206 282.254L136.851 283.442ZM144.765 274.125C149.336 273.152 153.09 274.837 156.319 278.688L162.248 273.718C157.65 268.235 151.176 264.851 143.154 266.558L144.765 274.125ZM156.514 278.904C157.277 279.686 158.049 280.727 159.79 283.109L166.036 278.543C164.43 276.346 163.29 274.77 162.052 273.502L156.514 278.904ZM166.775 281.042C167.34 270.954 168.383 262.939 170.862 255.676C173.318 248.481 177.25 241.838 183.845 234.648L178.143 229.418C170.922 237.292 166.385 244.842 163.54 253.176C160.719 261.443 159.629 270.292 159.051 280.61L166.775 281.042ZM183.845 234.648C185.3 233.061 186.532 232.198 187.758 231.631C189.038 231.037 190.509 230.672 192.646 230.31L191.356 222.682C189.028 223.076 186.74 223.576 184.506 224.611C182.217 225.671 180.179 227.199 178.143 229.418L183.845 234.648ZM192.646 230.31C193.383 230.186 194.155 230.117 195.096 230.036L194.431 222.328C193.541 222.405 192.455 222.496 191.356 222.682L192.646 230.31ZM195.096 230.036C196.724 229.895 199.136 229.726 201.355 228.73C203.844 227.613 205.823 225.622 207.098 222.502L199.937 219.575C199.353 221.003 198.725 221.431 198.188 221.672C197.38 222.034 196.343 222.163 194.431 222.328L195.096 230.036ZM207.108 222.477C207.355 221.861 207.552 221.589 207.637 221.491C207.694 221.426 207.684 221.453 207.641 221.469C207.633 221.473 207.752 221.422 208.126 221.42C208.514 221.417 209.043 221.464 209.811 221.583L210.999 213.938C209.268 213.669 206.974 213.415 204.8 214.273C202.342 215.244 200.868 217.251 199.927 219.6L207.108 222.477ZM209.747 221.573C220.457 223.421 231.293 225.289 242.113 227.081L243.377 219.449C232.587 217.661 221.775 215.797 211.063 213.949L209.747 221.573ZM275.808 224.013C265.024 222.521 254.141 221.012 243.302 219.437L242.189 227.093C253.058 228.673 263.967 230.184 274.747 231.677L275.808 224.013ZM284.703 232.779C284.52 230.255 283.725 227.894 281.677 226.224C279.866 224.746 277.603 224.292 275.872 224.023L274.684 231.667C275.451 231.787 275.97 231.902 276.339 232.023C276.694 232.139 276.793 232.223 276.786 232.218C276.75 232.189 276.749 232.16 276.783 232.24C276.834 232.359 276.939 232.677 276.987 233.34L284.703 232.779ZM289.112 237.046C287.34 236.308 286.391 235.871 285.731 235.28C285.292 234.887 284.824 234.289 284.701 232.752L276.989 233.366C277.257 236.727 278.538 239.224 280.571 241.044C282.383 242.667 284.629 243.56 286.138 244.188L289.112 237.046ZM291.934 238.317C290.943 237.806 289.936 237.389 289.112 237.046L286.138 244.188C287.01 244.551 287.725 244.851 288.389 245.193L291.934 238.317ZM302.479 248.746C301.213 246.014 299.735 243.939 297.875 242.234C296.061 240.57 294.033 239.399 291.934 238.317L288.389 245.193C290.316 246.187 291.606 246.981 292.646 247.935C293.641 248.848 294.554 250.044 295.459 251.998L302.479 248.746Z" fill="#000072" mask="url(#path-8-inside-1_30_96)"/>
<path d="M213.8 306.964C213.475 310.351 213.172 313.621 212.804 316.701C211.128 330.7 208.093 340.789 195.453 340.272C183.494 339.783 180.069 329.092 179.48 315.87C179.31 312.043 179.377 308.004 179.543 303.939C179.992 292.984 177.748 280.993 180.344 272.57C182.308 266.197 187.043 261.867 197.808 261.572C210.382 261.227 214.844 267.59 215.926 276.577C216.995 285.456 214.765 296.897 213.8 306.964Z" fill="#FFAB31"/>
<path d="M180.115 315.968C180.704 329.191 184.128 339.882 196.088 340.371C208.727 340.888 211.763 330.798 213.438 316.8L180.115 315.968Z" fill="white"/>
<path d="M215.935 276.581C217.004 285.46 214.774 296.901 213.809 306.967C213.484 310.354 213.181 313.623 212.813 316.703C211.137 330.703 208.102 340.793 195.462 340.276C183.065 339.769 179.839 328.301 179.436 314.414C179.337 311.026 179.407 307.494 179.552 303.943C180.001 292.988 177.757 280.997 180.353 272.573" stroke="#000072" stroke-width="3.8683" stroke-linecap="round"/>
<path d="M202.517 337.101L201.824 329.49" stroke="#000072" stroke-width="2.86468" stroke-linecap="round"/>
<path d="M192.919 338.509L192.227 330.897" stroke="#000072" stroke-width="2.86468" stroke-linecap="round"/>
<path d="M246.87 312.105C246.151 315.431 245.447 318.639 244.863 321.686C242.21 335.532 242.04 346.067 254.24 349.411C265.783 352.576 272.291 343.429 276.867 331.009C278.191 327.415 279.353 323.546 280.428 319.623C283.326 309.049 289.105 298.305 289.188 289.49C289.251 282.823 286.055 277.259 275.887 273.71C264.011 269.565 257.828 274.272 254.069 282.507C250.355 290.642 249.006 302.22 246.87 312.105Z" fill="#FFAB31"/>
<path d="M276.231 330.911C271.656 343.331 265.147 352.478 253.604 349.313C241.404 345.968 241.575 335.434 244.228 321.587L276.231 330.911Z" fill="white"/>
<path d="M254.063 282.507C250.349 290.643 249 302.22 246.864 312.105C246.145 315.431 245.441 318.638 244.858 321.684C242.204 335.531 242.033 346.067 254.234 349.412C266.199 352.692 272.754 342.744 277.355 329.635C278.477 326.437 279.483 323.051 280.422 319.623C283.32 309.049 289.099 298.305 289.182 289.491" stroke="#000072" stroke-width="3.8683" stroke-linecap="round"/>
<path d="M248.471 344.245L251.441 337.203" stroke="#000072" stroke-width="2.86468" stroke-linecap="round"/>
<path d="M257.19 348.499L260.16 341.457" stroke="#000072" stroke-width="2.86468" stroke-linecap="round"/>
<path d="M155.861 290.694C157.235 293.22 156.166 295.363 153.253 295.323C151.197 295.283 149.398 295.97 147.686 297.043C145.203 298.502 143.274 297.433 143.014 294.563C142.71 291.393 145.02 287.664 147.675 286.976C150.459 286.116 154.273 287.954 155.861 290.694Z" fill="#F6BEC9"/>
<path d="M149.23 281.122C149.671 283.381 148.909 285.138 147.419 285.495C145.95 285.944 144.29 284.765 143.751 282.924C143.596 282.272 143.533 281.597 143.586 280.994C143.669 279.693 144.214 278.677 145.611 278.343C147.102 277.987 148.07 278.74 148.732 279.862C149.03 280.284 149.186 280.936 149.23 281.122Z" fill="#F6BEC9"/>
<path d="M139.648 283.209C141.232 282.83 143.194 284.036 143.639 285.899C144.04 287.576 143.256 289.241 141.88 289.668C140.133 290.184 138.357 288.934 137.796 287C137.395 285.323 138.179 283.658 139.648 283.209Z" fill="#F6BEC9"/>
<path d="M153.688 279.384C152.104 279.763 150.899 281.725 151.344 283.588C151.745 285.265 153.197 286.396 154.617 286.155C156.409 285.825 157.428 283.907 157.054 281.928C156.653 280.251 155.201 279.121 153.688 279.384Z" fill="#F6BEC9"/>
<path d="M304.738 313.838C302.663 315.828 303.03 318.194 305.818 319.041C307.79 319.626 309.295 320.827 310.601 322.369C312.524 324.513 314.686 324.08 315.805 321.425C317.056 318.496 315.988 314.242 313.667 312.78C311.276 311.116 307.083 311.709 304.738 313.838Z" fill="#F6BEC9"/>
<path d="M313.967 306.732C312.861 308.75 313.053 310.656 314.365 311.448C315.628 312.322 317.568 311.702 318.64 310.112C318.986 309.537 319.251 308.914 319.384 308.323C319.699 307.059 319.489 305.925 318.258 305.182C316.946 304.39 315.795 304.814 314.824 305.683C314.412 305.994 314.066 306.568 313.967 306.732Z" fill="#F6BEC9"/>
<path d="M322.461 311.628C321.067 310.786 318.832 311.339 317.842 312.98C316.951 314.456 317.193 316.28 318.373 317.104C319.882 318.127 321.954 317.475 323.075 315.802C323.966 314.326 323.724 312.502 322.461 311.628Z" fill="#F6BEC9"/>
<path d="M310.246 303.721C311.64 304.562 312.193 306.798 311.203 308.438C310.312 309.914 308.585 310.551 307.306 309.89C305.698 309.032 305.309 306.895 306.266 305.123C307.157 303.647 308.884 303.011 310.246 303.721Z" fill="#F6BEC9"/>
<g filter="url(#filter0_i_30_96)">
<path d="M359.456 133.85C339.985 177.863 334.605 185.175 302.171 156.995C233.351 97.2005 285.246 112.042 304.917 92.4102C327.397 69.9733 356.135 61.6177 367.06 69.742C377.984 77.8662 366.987 116.827 359.456 133.85Z" fill="#F9A429"/>
</g>
<path d="M356.928 132.731C352.05 143.758 348.123 152.326 344.464 158.605C340.764 164.954 337.6 168.486 334.466 170.009C331.577 171.413 328.191 171.341 323.268 168.967C318.256 166.549 312.075 161.938 303.984 154.908C286.787 139.967 277.418 129.921 273.155 122.99C271.029 119.534 270.356 117.14 270.374 115.49C270.39 113.993 270.975 112.819 272.22 111.686C273.56 110.466 275.591 109.373 278.303 108.265C280.311 107.445 282.51 106.686 284.885 105.866C285.712 105.581 286.559 105.288 287.427 104.983C293.96 102.688 301.457 99.768 306.869 94.3664C317.831 83.426 330.279 75.9644 341.215 72.2313C346.684 70.3643 351.694 69.4573 355.897 69.4651C360.129 69.4731 363.318 70.4037 365.41 71.9598C367.132 73.2403 368.41 76.1274 368.784 81.0034C369.146 85.7305 368.602 91.6331 367.459 97.9679C365.175 110.621 360.611 124.407 356.928 132.731Z" stroke="#000072" stroke-width="5.52781"/>
<path d="M314.375 151.35L314.087 151.085L313.714 150.966C309.327 149.571 307.082 147.105 306.119 144.125C305.117 141.025 305.417 137.106 306.735 132.769C309.369 124.103 315.802 114.634 321.44 108.871C327.888 102.281 335.088 97.6756 341.336 95.2648C344.461 94.0585 347.292 93.4233 349.634 93.3306C351.999 93.237 353.688 93.701 354.736 94.4808C355.533 95.0731 356.197 96.5746 356.294 99.4117C356.387 102.123 355.945 105.542 355.151 109.234C353.566 116.605 350.667 124.688 348.393 129.592C345.382 136.083 342.733 141.689 340.167 146.218C337.587 150.77 335.182 154.064 332.723 156.054C330.349 157.975 327.968 158.654 325.208 158.07C322.311 157.457 318.793 155.412 314.375 151.35Z" fill="#FF7E7E" stroke="#000072" stroke-width="3.53737"/>
<g filter="url(#filter1_i_30_96)">
<path d="M158.463 102.605C163.654 150.452 166.56 159.052 206.018 142.047C289.743 105.967 235.791 104.355 223.008 79.6774C208.4 51.4749 183.554 34.7895 170.679 39.2141C157.804 43.6386 156.455 84.099 158.463 102.605Z" fill="#F9A429"/>
</g>
<path d="M161.211 102.306C162.511 114.294 163.652 123.649 165.232 130.743C166.83 137.916 168.773 142.241 171.296 144.644C173.623 146.859 176.872 147.818 182.283 147.05C187.792 146.269 195.082 143.751 204.924 139.509C225.845 130.494 237.822 123.766 243.988 118.456C247.063 115.809 248.431 113.732 248.915 112.154C249.353 110.723 249.152 109.426 248.31 107.969C247.404 106.401 245.801 104.742 243.553 102.863C241.889 101.473 240.024 100.081 238.009 98.5789C237.309 98.0563 236.59 97.5202 235.855 96.966C230.328 92.7961 224.071 87.7382 220.554 80.9486C213.431 67.1968 203.835 56.3084 194.549 49.4318C189.904 45.9925 185.406 43.6074 181.399 42.3389C177.364 41.0618 174.043 40.9805 171.577 41.8279C169.548 42.5253 167.454 44.8882 165.618 49.4208C163.838 53.8149 162.564 59.604 161.731 65.9869C160.065 78.7365 160.229 93.2573 161.211 102.306Z" stroke="#000072" stroke-width="5.52781"/>
<path d="M196.104 132.964L196.459 132.799L196.85 132.8C201.454 132.802 204.341 131.134 206.164 128.587C208.059 125.937 208.963 122.111 209.024 117.58C209.145 108.523 205.89 97.5477 202.268 90.3454C198.125 82.1085 192.662 75.5351 187.441 71.3415C184.829 69.2432 182.325 67.7786 180.122 66.9796C177.897 66.1722 176.147 66.1018 174.911 66.5265C173.972 66.8491 172.884 68.0781 171.93 70.7517C171.018 73.3064 170.402 76.6985 170.038 80.4576C169.31 87.9622 169.618 96.5435 170.297 101.906C171.195 109.005 172.017 115.15 173.087 120.245C174.163 125.365 175.455 129.234 177.194 131.876C178.873 134.427 180.935 135.797 183.742 136.079C186.688 136.374 190.661 135.494 196.104 132.964Z" fill="#FF7E7E" stroke="#000072" stroke-width="3.53737"/>
<g filter="url(#filter2_i_30_96)">
<path d="M336.676 213.614C342.429 196.728 336.942 184.099 331.982 177.962C330.586 176.234 329.754 174.049 330.004 171.842C334.572 131.355 309.185 94.4496 268.696 87.1477L255.914 85.1607C215.104 79.8243 182.692 107.744 174.923 147.734C174.499 149.914 173.041 151.743 171.187 152.966C164.598 157.308 155.537 167.675 155.891 185.51C156.307 206.415 172.334 221.497 180.295 226.425C188.256 231.353 207.565 237.807 239.694 243.148C271.823 248.488 291.922 247.468 301.004 245.189C310.086 242.911 329.934 233.406 336.676 213.614Z" fill="#F9A429"/>
</g>
<path d="M330.478 179.178C335.081 184.874 340.354 196.82 334.845 212.99C331.634 222.416 325.285 229.443 318.567 234.414C311.836 239.394 304.836 242.233 300.533 243.313C291.828 245.497 272.034 246.563 240.011 241.24C207.906 235.903 188.927 229.493 181.313 224.78C177.541 222.445 171.733 217.614 166.832 210.826C161.94 204.05 158.023 195.427 157.825 185.472C157.486 168.392 166.136 158.611 172.251 154.581C174.432 153.144 176.276 150.908 176.822 148.103C184.429 108.949 216.021 81.9073 255.64 87.0758L268.376 89.0556C307.778 96.1736 332.543 132.085 328.081 171.625C327.762 174.458 328.835 177.145 330.478 179.178Z" stroke="#000072" stroke-width="3.86887"/>
<g filter="url(#filter3_i_30_96)">
<path d="M284.566 185.181C319.869 184.333 349.165 180.824 329.354 219.254C318.143 241.003 289.302 250.224 239.421 239.474L251.347 162.759C268.551 165.428 252.491 185.951 284.566 185.181Z" fill="white"/>
</g>
<g filter="url(#filter4_i_30_96)">
<path d="M214.008 174.212C180.628 162.688 153.779 150.451 160.989 193.082C165.069 217.208 189.75 234.748 240.54 239.649L252.466 162.933C235.263 160.254 244.335 184.683 214.008 174.212Z" fill="white"/>
</g>
<ellipse cx="316.313" cy="200.173" rx="15.2368" ry="9.67128" transform="rotate(-0.594041 316.313 200.173)" fill="#FF7E7E"/>
<ellipse cx="15.2368" cy="9.67128" rx="15.2368" ry="9.67128" transform="matrix(-0.94961 -0.313433 -0.313433 0.94961 196.594 174.434)" fill="#FF7E7E"/>
<path d="M289.035 134.284C288.429 138.181 275.232 139.365 271.335 138.759C267.438 138.153 264.77 134.503 265.376 130.606C265.982 126.709 269.632 124.041 273.529 124.647C277.426 125.253 289.64 130.387 289.035 134.284Z" fill="white"/>
<path d="M225.221 124.428C224.615 128.325 236.83 133.459 240.727 134.065C244.624 134.671 248.274 132.003 248.88 128.106C249.485 124.209 246.817 120.559 242.92 119.953C239.023 119.347 225.827 120.531 225.221 124.428Z" fill="white"/>
<path d="M257.864 192.365C254.328 215.113 248.024 212.433 244.488 211.884C240.953 211.334 233.772 211.917 237.309 189.17C238.41 182.083 243.677 174.072 246.032 165.723C251.236 147.273 254.86 129.13 257.294 129.509C259.728 129.887 257.69 148.277 256.941 167.418C256.602 176.082 258.966 185.278 257.864 192.365Z" fill="white"/>
<path d="M256.673 215.33C255.76 221.201 253.099 226.225 249.999 229.658C248.449 231.374 246.811 232.67 245.256 233.48C243.692 234.296 242.284 234.583 241.154 234.408C240.295 234.274 239.164 233.623 237.938 232.352C236.734 231.104 235.531 229.355 234.515 227.233C232.482 222.986 231.25 217.362 232.158 211.519C232.429 209.777 232.461 208.25 232.487 207.03C232.494 206.728 232.5 206.445 232.509 206.182C232.559 204.744 232.711 204.125 233.05 203.769C233.376 203.428 234.142 203.075 236.255 203.085C238.31 203.095 241.346 203.44 245.859 204.142C250.371 204.843 253.369 205.436 255.33 206.05C257.346 206.682 257.969 207.251 258.176 207.675C258.391 208.117 258.348 208.753 257.959 210.138C257.888 210.392 257.808 210.663 257.722 210.953C257.377 212.124 256.944 213.588 256.673 215.33Z" fill="#000072" stroke="#000072" stroke-width="2.10922"/>
<circle cx="227.548" cy="195.291" r="17.9284" transform="rotate(8.8361 227.548 195.291)" fill="white"/>
<ellipse cx="264.6" cy="200.082" rx="17.8827" ry="17.7003" transform="rotate(8.8361 264.6 200.082)" fill="white"/>
<path d="M246.883 197.091C245.362 206.875 252.06 216.039 261.844 217.56C264.655 218.09 271.805 218.44 277.925 215.605" stroke="#000072" stroke-width="4.92688" stroke-linecap="round"/>
<ellipse cx="17.974" cy="17.7003" rx="17.974" ry="17.7003" transform="matrix(-0.988132 -0.153609 -0.153609 0.988132 249.621 180.022)" fill="white"/>
<path d="M246.883 197.091C245.362 206.875 236.197 213.573 226.413 212.052C223.575 211.704 216.656 209.867 211.685 205.308" stroke="#000072" stroke-width="4.92688" stroke-linecap="round"/>
<mask id="path-49-outside-2_30_96" maskUnits="userSpaceOnUse" x="231.407" y="207.208" width="23.7565" height="28.7636" fill="black">
<rect fill="white" x="231.407" y="207.208" width="23.7565" height="28.7636"/>
<path fill-rule="evenodd" clip-rule="evenodd" d="M237.945 211.288C238.852 210.419 240.137 209.968 241.47 210.175C242.819 210.385 243.916 211.223 244.513 212.347C245.422 211.457 246.722 210.992 248.071 211.201C249.947 211.493 251.335 212.998 251.569 214.798C251.962 216.524 251.323 219.282 250.827 221.415C250.643 222.21 250.479 222.918 250.395 223.455C249.825 227.12 244.611 232.75 241.42 232.254C238.23 231.758 234.971 224.81 235.54 221.145C235.623 220.616 235.683 219.885 235.752 219.057C235.988 216.217 236.319 212.23 237.945 211.288Z"/>
</mask>
<path fill-rule="evenodd" clip-rule="evenodd" d="M237.945 211.288C238.852 210.419 240.137 209.968 241.47 210.175C242.819 210.385 243.916 211.223 244.513 212.347C245.422 211.457 246.722 210.992 248.071 211.201C249.947 211.493 251.335 212.998 251.569 214.798C251.962 216.524 251.323 219.282 250.827 221.415C250.643 222.21 250.479 222.918 250.395 223.455C249.825 227.12 244.611 232.75 241.42 232.254C238.23 231.758 234.971 224.81 235.54 221.145C235.623 220.616 235.683 219.885 235.752 219.057C235.988 216.217 236.319 212.23 237.945 211.288Z" fill="#FC6A6C"/>
<path d="M237.945 211.288L238.829 212.813L239.011 212.707L239.164 212.561L237.945 211.288ZM244.513 212.347L242.956 213.173L244.061 215.256L245.746 213.606L244.513 212.347ZM251.569 214.798L249.821 215.025L249.831 215.108L249.85 215.19L251.569 214.798ZM250.827 221.415L252.545 221.814L252.545 221.814L250.827 221.415ZM235.752 219.057L237.509 219.203L237.509 219.203L235.752 219.057ZM239.164 212.561C239.693 212.054 240.433 211.798 241.199 211.917L241.741 208.433C239.84 208.138 238.011 208.784 236.726 210.014L239.164 212.561ZM241.199 211.917C241.974 212.038 242.607 212.517 242.956 213.173L246.07 211.52C245.226 209.928 243.665 208.732 241.741 208.433L241.199 211.917ZM245.746 213.606C246.277 213.087 247.025 212.823 247.801 212.943L248.342 209.46C246.418 209.16 244.568 209.826 243.28 211.087L245.746 213.606ZM247.801 212.943C248.876 213.111 249.685 213.975 249.821 215.025L253.317 214.572C252.986 212.02 251.019 209.876 248.342 209.46L247.801 212.943ZM249.85 215.19C249.971 215.72 249.953 216.57 249.787 217.697C249.627 218.785 249.361 219.937 249.11 221.017L252.545 221.814C252.789 220.759 253.09 219.466 253.275 218.211C253.455 216.994 253.56 215.603 253.288 214.407L249.85 215.19ZM249.11 221.017C248.932 221.786 248.749 222.568 248.653 223.184L252.137 223.725C252.208 223.269 252.354 222.634 252.545 221.814L249.11 221.017ZM248.653 223.184C248.45 224.494 247.289 226.495 245.634 228.179C244.834 228.992 244.001 229.644 243.246 230.055C242.456 230.485 241.942 230.551 241.691 230.512L241.15 233.996C242.494 234.205 243.828 233.753 244.932 233.152C246.069 232.533 247.173 231.641 248.148 230.651C250.039 228.727 251.771 226.08 252.137 223.725L248.653 223.184ZM241.691 230.512C241.441 230.473 240.971 230.255 240.349 229.605C239.754 228.983 239.158 228.109 238.643 227.092C237.577 224.985 237.079 222.726 237.282 221.416L233.799 220.875C233.432 223.23 234.279 226.277 235.498 228.684C236.125 229.924 236.907 231.109 237.802 232.044C238.671 232.951 239.805 233.787 241.15 233.996L241.691 230.512ZM237.282 221.416C237.377 220.81 237.442 220.005 237.509 219.203L233.995 218.911C233.924 219.766 233.869 220.422 233.799 220.875L237.282 221.416ZM237.509 219.203C237.629 217.758 237.764 216.169 238.051 214.831C238.194 214.164 238.36 213.637 238.54 213.26C238.729 212.865 238.857 212.797 238.829 212.813L237.061 209.762C236.22 210.25 235.697 211.033 235.359 211.739C235.013 212.464 234.776 213.288 234.604 214.091C234.26 215.692 234.111 217.516 233.995 218.911L237.509 219.203Z" fill="#000072" mask="url(#path-49-outside-2_30_96)"/>
<path d="M267.663 195.365C266.473 203.022 257.5 201.674 246.439 199.954C235.379 198.235 226.42 196.796 227.61 189.139C228.801 181.482 238.732 176.668 249.792 178.388C260.852 180.107 268.853 187.708 267.663 195.365Z" fill="#000072"/>
<path d="M259.503 186.998C259.305 188.274 254.795 185.477 248.84 184.551C242.884 183.625 237.738 184.921 237.936 183.645C238.135 182.369 243.363 180.544 249.319 181.47C255.274 182.396 259.702 185.722 259.503 186.998Z" fill="#A5A5F8"/>
<path d="M316.08 178.642C313.749 193.637 302.848 183.675 287.853 181.344C272.859 179.013 259.448 185.196 261.779 170.201C264.11 155.206 278.156 144.94 293.15 147.271C308.145 149.602 318.411 163.647 316.08 178.642Z" fill="#000072"/>
<path d="M312.35 176.848C310.353 189.695 301.014 181.16 288.168 179.163C275.321 177.166 263.832 182.463 265.829 169.617C267.826 156.77 279.859 147.975 292.705 149.972C305.552 151.969 314.347 164.002 312.35 176.848Z" fill="white"/>
<ellipse cx="290.58" cy="174.114" rx="14.4258" ry="13.2482" transform="rotate(-8.13045 290.58 174.114)" fill="#000072"/>
<circle cx="301.254" cy="164.93" r="8.01033" transform="rotate(-8.13045 301.254 164.93)" fill="white"/>
<path d="M240.431 166.881C238.1 181.876 227.2 171.914 212.205 169.584C197.21 167.253 183.8 173.435 186.131 158.44C188.462 143.446 202.507 133.18 217.502 135.511C232.496 137.842 242.762 151.887 240.431 166.881Z" fill="#000072"/>
<path d="M236.725 165.092C234.728 177.938 225.389 169.403 212.543 167.407C199.696 165.41 188.207 170.706 190.204 157.86C192.201 145.014 204.234 136.218 217.08 138.215C229.927 140.212 238.722 152.245 236.725 165.092Z" fill="white"/>
<ellipse cx="214.947" cy="162.355" rx="14.4258" ry="13.2482" transform="rotate(-8.13045 214.947 162.355)" fill="#000072"/>
<circle cx="227.434" cy="155.115" r="8.01033" transform="rotate(-8.13045 227.434 155.115)" fill="white"/>
<path d="M137.139 247.059C130.458 246.021 123.638 247.679 118.18 251.668L37.0357 310.978C36.4219 311.31 35.8561 311.723 35.3538 312.208L34.9653 312.492C34.1482 313.089 33.6018 313.986 33.4464 314.986V314.986C33.4143 315.192 33.3635 315.395 33.3064 315.595C33.2198 315.899 33.1521 316.208 33.1037 316.52C32.9748 317.349 32.9479 318.193 32.819 319.022L27.88 350.793C26.9007 357.093 31.2138 362.994 37.5136 363.974V363.974C43.8134 364.953 48.1265 370.854 47.1472 377.154L26.4595 510.233C24.5008 522.833 33.1271 534.634 45.7267 536.593V536.593C58.3263 538.552 70.1281 529.926 72.0868 517.326L93.3655 380.444C94.0184 376.244 97.9523 373.369 102.152 374.022V374.022C106.352 374.675 109.227 378.609 108.575 382.809L95.5709 466.458C93.6123 479.058 102.238 490.86 114.838 492.819V492.819C127.438 494.777 139.24 486.151 141.198 473.551L151.468 407.487C153.631 393.575 166.662 384.05 180.574 386.213L251.867 397.295C265.779 399.458 275.303 412.489 273.141 426.401L262.871 492.466C260.912 505.065 269.538 516.867 282.138 518.826V518.826C294.738 520.785 306.539 512.158 308.498 499.559L321.502 415.909C322.155 411.709 326.089 408.833 330.288 409.486V409.486C334.488 410.139 337.364 414.073 336.711 418.273L315.432 555.155C313.473 567.754 322.1 579.556 334.699 581.515V581.515C347.299 583.474 359.101 574.847 361.059 562.248L381.747 429.168C382.726 422.868 388.627 418.555 394.927 419.535V419.535C401.227 420.514 407.128 416.201 408.107 409.901L413.035 378.204C413.164 377.375 413.394 376.563 413.523 375.734C413.571 375.426 413.6 375.115 413.61 374.803C413.617 374.587 413.631 374.37 413.664 374.156V374.156C413.826 373.116 413.567 372.055 412.947 371.205L412.675 370.833C412.355 370.241 411.959 369.694 411.498 369.205V369.205C411.471 369.18 411.447 369.154 411.426 369.124L347.81 282.089C346.606 280.442 344.797 279.34 342.781 279.027V279.027L137.139 247.059ZM122.113 267.856C127.571 263.867 134.391 262.209 141.072 263.247L326.833 292.125C333.514 293.163 339.509 296.813 343.499 302.272L352.329 314.353C365.731 332.689 350.274 358.075 327.832 354.586L121.158 322.458C98.7165 318.97 91.6954 290.089 110.031 276.687L122.113 267.856ZM45.4534 337.949C46.4327 331.649 52.3336 327.336 58.6334 328.315L385.629 379.148C391.929 380.127 396.242 386.028 395.262 392.328V392.328C394.283 398.628 388.382 402.941 382.082 401.961L380.614 401.733C379.911 401.624 379.222 401.433 378.522 401.306C378.459 401.295 378.396 401.284 378.333 401.274C377.504 401.145 376.66 401.118 375.831 400.99L350.333 397.026C349.469 396.891 348.624 396.649 347.759 396.519V396.519V396.519C347.022 396.421 346.274 396.395 345.539 396.28L319.967 392.305C319.138 392.176 318.326 391.946 317.497 391.817V391.817C316.668 391.688 315.824 391.661 314.995 391.532L289.497 387.569C288.633 387.434 287.787 387.192 286.923 387.062V387.062V387.062C286.185 386.964 285.438 386.938 284.703 386.823L152.667 366.298C151.838 366.169 151.026 365.938 150.197 365.81V365.81C149.368 365.681 148.524 365.654 147.695 365.525L122.197 361.561C121.333 361.427 120.487 361.185 119.623 361.055V361.055V361.055C118.885 360.956 118.138 360.93 117.403 360.816L91.8305 356.841C91.0014 356.712 90.1895 356.481 89.3604 356.352V356.352C88.5313 356.223 87.6877 356.197 86.8586 356.068L61.3605 352.104C60.4967 351.97 59.6511 351.727 58.7866 351.597V351.597C58.7783 351.596 58.7701 351.595 58.7618 351.594C58.0403 351.5 57.31 351.474 56.591 351.363L55.087 351.129C48.7872 350.149 44.4741 344.248 45.4534 337.949V337.949ZM62.9473 375.716C63.6002 371.516 67.5342 368.64 71.734 369.293V369.293C75.9339 369.946 78.8093 373.88 78.1564 378.08L56.8777 514.962C56.2248 519.162 52.2909 522.037 48.091 521.384V521.384C43.8911 520.731 41.0157 516.797 41.6686 512.597L62.9473 375.716ZM123.784 385.173C124.437 380.973 128.371 378.098 132.57 378.75V378.75C136.77 379.403 139.646 383.337 138.993 387.537L125.989 471.187C125.336 475.387 121.402 478.262 117.202 477.609V477.609C113.003 476.957 110.127 473.023 110.78 468.823L123.784 385.173ZM291.084 411.18C291.737 406.98 295.67 404.105 299.87 404.758V404.758C304.07 405.411 306.946 409.345 306.293 413.544L293.289 497.194C292.636 501.394 288.702 504.27 284.502 503.617V503.617C280.302 502.964 277.427 499.03 278.08 494.83L291.084 411.18ZM351.92 420.637C352.573 416.438 356.507 413.562 360.707 414.215V414.215C364.907 414.868 367.782 418.802 367.129 423.002L345.85 559.883C345.197 564.083 341.263 566.959 337.064 566.306V566.306C332.864 565.653 329.988 561.719 330.641 557.519L351.92 420.637Z" fill="#000039"/>
<path d="M122.113 267.856C127.571 263.867 134.391 262.209 141.072 263.247L326.833 292.125C333.514 293.163 339.509 296.813 343.499 302.272L352.329 314.353C365.731 332.689 350.274 358.075 327.832 354.586L121.158 322.458C98.7165 318.97 91.6954 290.089 110.031 276.687L122.113 267.856Z" fill="#000039"/>
<path d="M45.4534 337.949C46.4327 331.649 52.3336 327.336 58.6334 328.315L385.629 379.148C391.929 380.127 396.242 386.028 395.262 392.328V392.328C394.283 398.628 388.382 402.941 382.082 401.961L380.614 401.733C379.911 401.624 379.222 401.433 378.522 401.306C378.459 401.295 378.396 401.284 378.333 401.274C377.504 401.145 376.66 401.118 375.831 400.99L350.333 397.026C349.469 396.891 348.624 396.649 347.759 396.519V396.519V396.519C347.022 396.421 346.274 396.395 345.539 396.28L319.967 392.305C319.138 392.176 318.326 391.946 317.497 391.817V391.817C316.668 391.688 315.824 391.661 314.995 391.532L289.497 387.569C288.633 387.434 287.787 387.192 286.923 387.062V387.062V387.062C286.185 386.964 285.438 386.938 284.703 386.823L152.667 366.298C151.838 366.169 151.026 365.938 150.197 365.81V365.81C149.368 365.681 148.524 365.654 147.695 365.525L122.197 361.561C121.333 361.427 120.487 361.185 119.623 361.055V361.055V361.055C118.885 360.956 118.138 360.93 117.403 360.816L91.8305 356.841C91.0014 356.712 90.1895 356.481 89.3604 356.352V356.352C88.5313 356.223 87.6877 356.197 86.8586 356.068L61.3605 352.104C60.4967 351.97 59.6511 351.727 58.7866 351.597V351.597C58.7783 351.596 58.7701 351.595 58.7618 351.594C58.0403 351.5 57.31 351.474 56.591 351.363L55.087 351.129C48.7872 350.149 44.4741 344.248 45.4534 337.949V337.949Z" fill="#000072"/>
<path d="M351.92 420.637C352.573 416.438 356.507 413.562 360.707 414.215V414.215C364.907 414.868 367.782 418.802 367.129 423.002L345.85 559.883C345.197 564.083 341.263 566.959 337.064 566.306V566.306C332.864 565.653 329.988 561.719 330.641 557.519L351.92 420.637Z" fill="#000072"/>
<path d="M291.084 411.18C291.737 406.98 295.67 404.105 299.87 404.758V404.758C304.07 405.411 306.946 409.345 306.293 413.544L293.289 497.194C292.636 501.394 288.702 504.27 284.502 503.617V503.617C280.302 502.964 277.427 499.03 278.08 494.83L291.084 411.18Z" fill="#000072"/>
<path d="M123.784 385.173C124.437 380.973 128.371 378.098 132.57 378.75V378.75C136.77 379.403 139.646 383.337 138.993 387.537L125.989 471.187C125.336 475.387 121.402 478.262 117.202 477.609V477.609C113.003 476.957 110.127 473.023 110.78 468.823L123.784 385.173Z" fill="#000072"/>
<path d="M62.9473 375.716C63.6002 371.516 67.5342 368.64 71.734 369.293V369.293C75.9339 369.946 78.8093 373.88 78.1564 378.08L56.8777 514.962C56.2248 519.162 52.2909 522.037 48.091 521.384V521.384C43.8911 520.731 41.0157 516.797 41.6686 512.597L62.9473 375.716Z" fill="#000072"/>
<path d="M182.599 264.348C180.895 275.311 168.88 283.075 155.172 280.944C141.464 278.813 132.372 267.768 134.077 256.805C135.781 245.841 147.796 238.078 161.504 240.209C175.212 242.34 184.303 253.384 182.599 264.348Z" fill="white" stroke="#000072" stroke-width="3.98941"/>
<path d="M167.552 279.504L166.559 268.583" stroke="#000072" stroke-width="3.98941" stroke-linecap="round"/>
<path d="M154.213 278.774L153.219 267.854" stroke="#000072" stroke-width="3.98941" stroke-linecap="round"/>
<path d="M286.499 280.499C284.795 291.462 293.886 302.507 307.594 304.638C321.302 306.768 333.317 299.005 335.021 288.042C336.726 277.078 327.634 266.034 313.926 263.903C300.218 261.772 288.203 269.535 286.499 280.499Z" fill="white" stroke="#000072" stroke-width="3.98941"/>
<path d="M296.23 299.507L300.492 289.403" stroke="#000072" stroke-width="3.98941" stroke-linecap="round"/>
<path d="M309.164 302.86L313.426 292.757" stroke="#000072" stroke-width="3.98941" stroke-linecap="round"/>
<defs>
<filter id="filter0_i_30_96" x="267.609" y="66.7012" width="104.051" height="106.999" filterUnits="userSpaceOnUse" color-interpolation-filters="sRGB">
<feFlood flood-opacity="0" result="BackgroundImageFix"/>
<feBlend mode="normal" in="SourceGraphic" in2="BackgroundImageFix" result="shape"/>
<feColorMatrix in="SourceAlpha" type="matrix" values="0 0 0 0 0 0 0 0 0 0 0 0 0 0 0 0 0 0 127 0" result="hardAlpha"/>
<feOffset dy="13.1383"/>
<feComposite in2="hardAlpha" operator="arithmetic" k2="-1" k3="1"/>
<feColorMatrix type="matrix" values="0 0 0 0 1 0 0 0 0 1 0 0 0 0 1 0 0 0 0.5 0"/>
<feBlend mode="normal" in2="shape" result="effect1_innerShadow_30_96"/>
</filter>
<filter id="filter1_i_30_96" x="157.711" y="38.5068" width="94.1953" height="111.567" filterUnits="userSpaceOnUse" color-interpolation-filters="sRGB">
<feFlood flood-opacity="0" result="BackgroundImageFix"/>
<feBlend mode="normal" in="SourceGraphic" in2="BackgroundImageFix" result="shape"/>
<feColorMatrix in="SourceAlpha" type="matrix" values="0 0 0 0 0 0 0 0 0 0 0 0 0 0 0 0 0 0 127 0" result="hardAlpha"/>
<feOffset dy="13.1383"/>
<feComposite in2="hardAlpha" operator="arithmetic" k2="-1" k3="1"/>
<feColorMatrix type="matrix" values="0 0 0 0 1 0 0 0 0 1 0 0 0 0 1 0 0 0 0.5 0"/>
<feBlend mode="normal" in2="shape" result="effect1_innerShadow_30_96"/>
</filter>
<filter id="filter2_i_30_96" x="155.883" y="84.5068" width="183.254" height="162.532" filterUnits="userSpaceOnUse" color-interpolation-filters="sRGB">
<feFlood flood-opacity="0" result="BackgroundImageFix"/>
<feBlend mode="normal" in="SourceGraphic" in2="BackgroundImageFix" result="shape"/>
<feColorMatrix in="SourceAlpha" type="matrix" values="0 0 0 0 0 0 0 0 0 0 0 0 0 0 0 0 0 0 127 0" result="hardAlpha"/>
<feOffset dy="7.29908"/>
<feComposite in2="hardAlpha" operator="arithmetic" k2="-1" k3="1"/>
<feColorMatrix type="matrix" values="0 0 0 0 1 0 0 0 0 1 0 0 0 0 1 0 0 0 0.5 0"/>
<feBlend mode="normal" in2="shape" result="effect1_innerShadow_30_96"/>
</filter>
<filter id="filter3_i_30_96" x="239.422" y="162.759" width="96.3398" height="81.2129" filterUnits="userSpaceOnUse" color-interpolation-filters="sRGB">
<feFlood flood-opacity="0" result="BackgroundImageFix"/>
<feBlend mode="normal" in="SourceGraphic" in2="BackgroundImageFix" result="shape"/>
<feColorMatrix in="SourceAlpha" type="matrix" values="0 0 0 0 0 0 0 0 0 0 0 0 0 0 0 0 0 0 127 0" result="hardAlpha"/>
<feOffset dy="-2.00725"/>
<feComposite in2="hardAlpha" operator="arithmetic" k2="-1" k3="1"/>
<feColorMatrix type="matrix" values="0 0 0 0 0 0 0 0 0 0 0 0 0 0 0 0 0 0 0.25 0"/>
<feBlend mode="normal" in2="shape" result="effect1_innerShadow_30_96"/>
</filter>
<filter id="filter4_i_30_96" x="159.809" y="162.727" width="92.6562" height="76.9219" filterUnits="userSpaceOnUse" color-interpolation-filters="sRGB">
<feFlood flood-opacity="0" result="BackgroundImageFix"/>
<feBlend mode="normal" in="SourceGraphic" in2="BackgroundImageFix" result="shape"/>
<feColorMatrix in="SourceAlpha" type="matrix" values="0 0 0 0 0 0 0 0 0 0 0 0 0 0 0 0 0 0 127 0" result="hardAlpha"/>
<feOffset dy="-2.00725"/>
<feComposite in2="hardAlpha" operator="arithmetic" k2="-1" k3="1"/>
<feColorMatrix type="matrix" values="0 0 0 0 0 0 0 0 0 0 0 0 0 0 0 0 0 0 0.25 0"/>
<feBlend mode="normal" in2="shape" result="effect1_innerShadow_30_96"/>
</filter>
</defs>
</svg>
