<svg width="428" height="428" viewBox="0 0 428 428" fill="none" xmlns="http://www.w3.org/2000/svg">
<g clip-path="url(#clip0_30_4)">
<path d="M98.3106 223.663L201.556 342.795L334.21 261.658L275.183 115.481L265.494 142.263L265.488 142.281C259.191 159.683 256.042 168.386 250.295 172.953C245.259 176.956 238.913 178.941 232.493 178.525C225.166 178.05 217.614 172.693 202.51 161.978L166.463 136.409L172.806 180.146C175.465 198.473 176.794 207.636 173.879 214.376C171.326 220.28 166.668 225.025 160.81 227.686C154.125 230.722 144.941 229.561 126.574 227.238L126.566 227.237L98.3106 223.663Z" fill="#000072"/>
<path d="M98.3106 223.663L201.556 342.795L334.21 261.658L275.183 115.481M98.3106 223.663L126.566 227.237M98.3106 223.663C104.416 219.929 106.338 211.953 102.604 205.848C98.8696 199.742 90.8931 197.82 84.7879 201.554C78.6827 205.289 76.7606 213.265 80.4948 219.37C84.2289 225.476 92.2055 227.398 98.3106 223.663ZM275.183 115.481L265.494 142.263M275.183 115.481C281.288 111.747 283.21 103.771 279.476 97.6654C275.742 91.5602 267.765 89.638 261.66 93.3723C255.555 97.1066 253.633 105.083 257.367 111.188C261.101 117.293 269.077 119.216 275.183 115.481ZM126.566 227.237L126.574 227.238M126.566 227.237C126.569 227.237 126.571 227.238 126.574 227.238M166.463 136.409L172.806 180.146C175.465 198.473 176.794 207.636 173.879 214.376C171.326 220.28 166.668 225.025 160.81 227.686C154.125 230.722 144.941 229.561 126.574 227.238M166.463 136.409L202.51 161.978C217.614 172.693 225.166 178.05 232.493 178.525C238.913 178.941 245.259 176.956 250.295 172.953C256.042 168.386 259.191 159.683 265.488 142.281M166.463 136.409C172.568 132.675 174.49 124.698 170.756 118.593C167.021 112.488 159.045 110.566 152.94 114.3C146.834 118.034 144.912 126.011 148.647 132.116C152.381 138.221 160.357 140.143 166.463 136.409ZM265.494 142.263L265.488 142.281M265.494 142.263C265.492 142.269 265.49 142.275 265.488 142.281M159.701 125.354L159.812 125.287M268.421 104.427L268.532 104.359M91.5493 212.609L91.6598 212.541" stroke="#000039" stroke-width="25.9167" stroke-linecap="round" stroke-linejoin="round"/>
</g>
<defs>
<clipPath id="clip0_30_4">
<rect width="311" height="311" fill="white" transform="translate(0 162.273) rotate(-31.4517)"/>
</clipPath>
</defs>
</svg>
