<svg width="308" height="139" viewBox="0 0 308 139" fill="none" xmlns="http://www.w3.org/2000/svg">
<ellipse cx="144.5" cy="110.5" rx="144.5" ry="28.5" fill="black" fill-opacity="0.2"/>
<path d="M84.4062 18.996C93.9376 29.8897 96.0959 43.5865 89.2305 49.5959L83.1477 54.921C80.3271 57.3891 76.4224 58.1713 72.1386 57.4869L82.0133 48.8474C83.913 48.6956 85.5864 48.0752 86.8986 46.9306C92.1853 42.2961 89.8257 30.5749 81.7374 21.331C73.6491 12.0904 62.3426 8.19475 57.0491 12.8291C55.585 14.1102 54.7034 15.9431 54.3724 18.115L44.6526 26.6215C44.4107 22.0476 45.6894 18.0573 48.6345 15.4824L54.7139 10.1604C61.5797 4.15118 74.8713 8.10888 84.4062 18.996Z" fill="#000039"/>
<path d="M82.0133 48.8474L72.1386 57.4869C60.77 56.5983 44.1918 38.9088 44.6526 26.6215L54.3724 18.115C54.7034 15.9431 55.585 14.1102 57.0491 12.8291C62.3426 8.19475 73.6491 12.0904 81.7374 21.331C89.8257 30.5749 92.1853 42.2961 86.8986 46.9306C85.5864 48.0752 83.913 48.6956 82.0133 48.8474Z" fill="#000039"/>
<path d="M81.4062 24.996C90.9376 35.8897 93.0959 49.5865 86.2305 55.5959L80.1477 60.921C77.3271 63.3891 73.4224 64.1713 69.1386 63.4869L79.0133 54.8474C80.913 54.6956 82.5864 54.0752 83.8986 52.9306C89.1853 48.2961 86.8257 36.5749 78.7374 27.331C70.6491 18.0904 59.3426 14.1947 54.0491 18.8291C52.585 20.1102 51.7034 21.9431 51.3724 24.115L41.6526 32.6215C41.4107 28.0476 42.6894 24.0573 45.6345 21.4824L51.7139 16.1604C58.5797 10.1512 71.8713 14.1089 81.4062 24.996Z" fill="#000039"/>
<path d="M79.0133 54.8474L69.1386 63.4869C57.77 62.5983 41.1918 44.9088 41.6526 32.6215L51.3724 24.115C51.7034 21.9431 52.585 20.1102 54.0491 18.8291C59.3426 14.1947 70.6491 18.0904 78.7374 27.331C86.8257 36.5749 89.1853 48.2961 83.8986 52.9306C82.5864 54.0752 80.913 54.6956 79.0133 54.8474Z" fill="#000039"/>
<path d="M87.137 47.2621C89.7076 45.0088 90.472 40.9782 89.52 36.2525C88.571 31.5416 85.9274 26.2267 81.8195 21.5314C77.7115 16.8376 72.7945 13.5119 68.2512 11.9467C63.6936 10.3767 59.5973 10.601 57.0233 12.8541C54.4526 15.1074 53.6881 19.138 54.6402 23.8638C55.5892 28.5747 58.2328 33.8895 62.3407 38.5849C66.4486 43.2786 71.3656 46.6044 75.909 48.1696C80.4667 49.7397 84.5631 49.5153 87.137 47.2621Z" fill="#FFAB31" stroke="#000072" stroke-width="0.695423"/>
<path d="M96.4062 17.996C105.938 28.8897 108.096 42.5865 101.231 48.5959L95.1477 53.921C92.3271 56.3891 88.4224 57.1713 84.1386 56.4869L94.0133 47.8474C95.913 47.6956 97.5864 47.0752 98.8986 45.9306C104.185 41.2961 101.826 29.5749 93.7374 20.331C85.6491 11.0904 74.3426 7.19475 69.0491 11.8291C67.585 13.1102 66.7034 14.9431 66.3724 17.115L56.6526 25.6215C56.4107 21.0476 57.6894 17.0573 60.6345 14.4824L66.7139 9.16038C73.5797 3.15118 86.8713 7.10888 96.4062 17.996Z" fill="#000039"/>
<path d="M94.0133 47.8474L84.1386 56.4869C72.77 55.5983 56.1918 37.9088 56.6526 25.6215L66.3724 17.115C66.7034 14.9431 67.585 13.1102 69.0491 11.8291C74.3426 7.19475 85.6491 11.0904 93.7374 20.331C101.826 29.5749 104.185 41.2961 98.8986 45.9306C97.5864 47.0752 95.913 47.6956 94.0133 47.8474Z" fill="#000039"/>
<path d="M99.1331 46.2621C101.704 44.0088 102.468 39.9782 101.516 35.2525C100.567 30.5416 97.9235 25.2267 93.8156 20.5314C89.7076 15.8376 84.7906 12.5119 80.2473 10.9467C75.6897 9.37668 71.5933 9.60099 69.0194 11.8541C66.4487 14.1074 65.6842 18.138 66.6362 22.8638C67.5853 27.5747 70.2289 32.8895 74.3368 37.5849C78.4447 42.2786 83.3617 45.6044 87.9051 47.1696C92.4627 48.7397 96.5592 48.5153 99.1331 46.2621Z" fill="#FFAB31" stroke="#000072" stroke-width="0.695423"/>
<path d="M111.406 14.996C120.938 25.8897 123.096 39.5865 116.231 45.5959L110.148 50.921C107.327 53.3891 103.422 54.1713 99.1386 53.4869L109.013 44.8474C110.913 44.6956 112.586 44.0752 113.899 42.9306C119.185 38.2961 116.826 26.5749 108.737 17.331C100.649 8.09037 89.3426 4.19475 84.0491 8.82912C82.585 10.1102 81.7034 11.9431 81.3724 14.115L71.6526 22.6215C71.4107 18.0476 72.6894 14.0573 75.6345 11.4824L81.7139 6.16038C88.5797 0.151176 101.871 4.10888 111.406 14.996Z" fill="#000039"/>
<path d="M109.013 44.8474L99.1386 53.4869C87.77 52.5983 71.1918 34.9088 71.6526 22.6215L81.3724 14.115C81.7034 11.9431 82.585 10.1102 84.0491 8.82912C89.3426 4.19475 100.649 8.09037 108.737 17.331C116.826 26.5749 119.185 38.2961 113.899 42.9306C112.586 44.0752 110.913 44.6956 109.013 44.8474Z" fill="#000039"/>
<path d="M114.133 43.2621C116.704 41.0088 117.468 36.9782 116.516 32.2525C115.567 27.5416 112.923 22.2267 108.816 17.5314C104.708 12.8376 99.7906 9.51188 95.2473 7.94674C90.6897 6.37668 86.5933 6.60099 84.0194 8.85406C81.4487 11.1074 80.6842 15.138 81.6362 19.8638C82.5853 24.5747 85.2289 29.8895 89.3368 34.5849C93.4447 39.2786 98.3617 42.6044 102.905 44.1696C107.463 45.7397 111.559 45.5153 114.133 43.2621Z" fill="#FFAB31" stroke="#000072" stroke-width="0.695423"/>
<path d="M119.406 20.996C128.938 31.8897 131.096 45.5865 124.231 51.5959L118.148 56.921C115.327 59.3891 111.422 60.1713 107.139 59.4869L117.013 50.8474C118.913 50.6956 120.586 50.0752 121.899 48.9306C127.185 44.2961 124.826 32.5749 116.737 23.331C108.649 14.0904 97.3426 10.1947 92.0491 14.8291C90.585 16.1102 89.7034 17.9431 89.3724 20.115L79.6526 28.6215C79.4107 24.0476 80.6894 20.0573 83.6345 17.4824L89.7139 12.1604C96.5797 6.15118 109.871 10.1089 119.406 20.996Z" fill="#000039"/>
<path d="M117.013 50.8474L107.139 59.4869C95.77 58.5983 79.1918 40.9088 79.6526 28.6215L89.3724 20.115C89.7034 17.9431 90.585 16.1102 92.0491 14.8291C97.3426 10.1947 108.649 14.0904 116.737 23.331C124.826 32.5749 127.185 44.2961 121.899 48.9306C120.586 50.0752 118.913 50.6956 117.013 50.8474Z" fill="#000039"/>
<path d="M122.133 49.2621C124.704 47.0088 125.468 42.9782 124.516 38.2525C123.567 33.5416 120.923 28.2267 116.816 23.5314C112.708 18.8376 107.791 15.5119 103.247 13.9467C98.6897 12.3767 94.5933 12.601 92.0194 14.8541C89.4487 17.1074 88.6842 21.138 89.6362 25.8638C90.5853 30.5747 93.2289 35.8895 97.3368 40.5849C101.445 45.2786 106.362 48.6044 110.905 50.1696C115.463 51.7397 119.559 51.5153 122.133 49.2621Z" fill="#FFAB31" stroke="#000072" stroke-width="0.695423"/>
<path d="M129.406 11.996C138.938 22.8897 141.096 36.5865 134.231 42.5959L128.148 47.921C125.327 50.3891 121.422 51.1713 117.139 50.4869L127.013 41.8474C128.913 41.6956 130.586 41.0752 131.899 39.9306C137.185 35.2961 134.826 23.5749 126.737 14.331C118.649 5.09037 107.343 1.19475 102.049 5.82912C100.585 7.11015 99.7034 8.94312 99.3724 11.115L89.6526 19.6215C89.4107 15.0476 90.6894 11.0573 93.6345 8.48239L99.7139 3.16038C106.58 -2.84882 119.871 1.10888 129.406 11.996Z" fill="#000039"/>
<path d="M127.013 41.8474L117.139 50.4869C105.77 49.5983 89.1918 31.9088 89.6526 19.6215L99.3724 11.115C99.7034 8.94312 100.585 7.11015 102.049 5.82912C107.343 1.19475 118.649 5.09037 126.737 14.331C134.826 23.5749 137.185 35.2961 131.899 39.9306C130.586 41.0752 128.913 41.6956 127.013 41.8474Z" fill="#000039"/>
<path d="M132.133 40.2621C134.704 38.0088 135.468 33.9782 134.516 29.2525C133.567 24.5416 130.923 19.2267 126.816 14.5314C122.708 9.8376 117.791 6.51188 113.247 4.94674C108.69 3.37668 104.593 3.60099 102.019 5.85406C99.4487 8.10736 98.6842 12.138 99.6362 16.8638C100.585 21.5747 103.229 26.8895 107.337 31.5849C111.445 36.2786 116.362 39.6044 120.905 41.1696C125.463 42.7397 129.559 42.5153 132.133 40.2621Z" fill="#FFAB31" stroke="#000072" stroke-width="0.695423"/>
<path d="M134.406 20.996C143.938 31.8897 146.096 45.5865 139.231 51.5959L133.148 56.921C130.327 59.3891 126.422 60.1713 122.139 59.4869L132.013 50.8474C133.913 50.6956 135.586 50.0752 136.899 48.9306C142.185 44.2961 139.826 32.5749 131.737 23.331C123.649 14.0904 112.343 10.1947 107.049 14.8291C105.585 16.1102 104.703 17.9431 104.372 20.115L94.6526 28.6215C94.4107 24.0476 95.6894 20.0573 98.6345 17.4824L104.714 12.1604C111.58 6.15118 124.871 10.1089 134.406 20.996Z" fill="#000039"/>
<path d="M132.013 50.8474L122.139 59.4869C110.77 58.5983 94.1918 40.9088 94.6526 28.6215L104.372 20.115C104.703 17.9431 105.585 16.1102 107.049 14.8291C112.343 10.1947 123.649 14.0904 131.737 23.331C139.826 32.5749 142.185 44.2961 136.899 48.9306C135.586 50.0752 133.913 50.6956 132.013 50.8474Z" fill="#000039"/>
<path d="M137.133 49.2621C139.704 47.0088 140.468 42.9782 139.516 38.2525C138.567 33.5416 135.923 28.2267 131.816 23.5314C127.708 18.8376 122.791 15.5119 118.247 13.9467C113.69 12.3767 109.593 12.601 107.019 14.8541C104.449 17.1074 103.684 21.138 104.636 25.8638C105.585 30.5747 108.229 35.8895 112.337 40.5849C116.445 45.2786 121.362 48.6044 125.905 50.1696C130.463 51.7397 134.559 51.5153 137.133 49.2621Z" fill="#FFAB31" stroke="#000072" stroke-width="0.695423"/>
<path d="M145.406 18.996C154.938 29.8897 157.096 43.5865 150.231 49.5959L144.148 54.921C141.327 57.3891 137.422 58.1713 133.139 57.4869L143.013 48.8474C144.913 48.6956 146.586 48.0752 147.899 46.9306C153.185 42.2961 150.826 30.5749 142.737 21.331C134.649 12.0904 123.343 8.19475 118.049 12.8291C116.585 14.1102 115.703 15.9431 115.372 18.115L105.653 26.6215C105.411 22.0476 106.689 18.0573 109.634 15.4824L115.714 10.1604C122.58 4.15118 135.871 8.10888 145.406 18.996Z" fill="#000039"/>
<path d="M143.013 48.8474L133.139 57.4869C121.77 56.5983 105.192 38.9088 105.653 26.6215L115.372 18.115C115.703 15.9431 116.585 14.1102 118.049 12.8291C123.343 8.19475 134.649 12.0904 142.737 21.331C150.826 30.5749 153.185 42.2961 147.899 46.9306C146.586 48.0752 144.913 48.6956 143.013 48.8474Z" fill="#000039"/>
<path d="M148.133 47.2621C150.704 45.0088 151.468 40.9782 150.516 36.2525C149.567 31.5416 146.923 26.2267 142.816 21.5314C138.708 16.8376 133.791 13.5119 129.247 11.9467C124.69 10.3767 120.593 10.601 118.019 12.8541C115.449 15.1074 114.684 19.138 115.636 23.8638C116.585 28.5747 119.229 33.8895 123.337 38.5849C127.445 43.2786 132.362 46.6044 136.905 48.1696C141.463 49.7397 145.559 49.5153 148.133 47.2621Z" fill="#FFAB31" stroke="#000072" stroke-width="0.695423"/>
<path d="M148.406 22.996C157.938 33.8897 160.096 47.5865 153.231 53.5959L147.148 58.921C144.327 61.3891 140.422 62.1713 136.139 61.4869L146.013 52.8474C147.913 52.6956 149.586 52.0752 150.899 50.9306C156.185 46.2961 153.826 34.5749 145.737 25.331C137.649 16.0904 126.343 12.1947 121.049 16.8291C119.585 18.1102 118.703 19.9431 118.372 22.115L108.653 30.6215C108.411 26.0476 109.689 22.0573 112.634 19.4824L118.714 14.1604C125.58 8.15118 138.871 12.1089 148.406 22.996Z" fill="#000039"/>
<path d="M146.013 52.8474L136.139 61.4869C124.77 60.5983 108.192 42.9088 108.653 30.6215L118.372 22.115C118.703 19.9431 119.585 18.1102 121.049 16.8291C126.343 12.1947 137.649 16.0904 145.737 25.331C153.826 34.5749 156.185 46.2961 150.899 50.9306C149.586 52.0752 147.913 52.6956 146.013 52.8474Z" fill="#000039"/>
<path d="M151.133 51.2621C153.704 49.0088 154.468 44.9782 153.516 40.2525C152.567 35.5416 149.923 30.2267 145.816 25.5314C141.708 20.8376 136.791 17.5119 132.247 15.9467C127.69 14.3767 123.593 14.601 121.019 16.8541C118.449 19.1074 117.684 23.138 118.636 27.8638C119.585 32.5747 122.229 37.8895 126.337 42.5849C130.445 47.2786 135.362 50.6044 139.905 52.1696C144.463 53.7397 148.559 53.5153 151.133 51.2621Z" fill="#FFAB31" stroke="#000072" stroke-width="0.695423"/>
<path d="M161.406 15.996C170.938 26.8897 173.096 40.5865 166.231 46.5959L160.148 51.921C157.327 54.3891 153.422 55.1713 149.139 54.4869L159.013 45.8474C160.913 45.6956 162.586 45.0752 163.899 43.9306C169.185 39.2961 166.826 27.5749 158.737 18.331C150.649 9.09037 139.343 5.19475 134.049 9.82912C132.585 11.1102 131.703 12.9431 131.372 15.115L121.653 23.6215C121.411 19.0476 122.689 15.0573 125.634 12.4824L131.714 7.16038C138.58 1.15118 151.871 5.10888 161.406 15.996Z" fill="#000039"/>
<path d="M159.013 45.8474L149.139 54.4869C137.77 53.5983 121.192 35.9088 121.653 23.6215L131.372 15.115C131.703 12.9431 132.585 11.1102 134.049 9.82912C139.343 5.19475 150.649 9.09037 158.737 18.331C166.826 27.5749 169.185 39.2961 163.899 43.9306C162.586 45.0752 160.913 45.6956 159.013 45.8474Z" fill="#000039"/>
<path d="M164.133 44.2621C166.704 42.0088 167.468 37.9782 166.516 33.2525C165.567 28.5416 162.923 23.2267 158.816 18.5314C154.708 13.8376 149.791 10.5119 145.247 8.94674C140.69 7.37668 136.593 7.60099 134.019 9.85406C131.449 12.1074 130.684 16.138 131.636 20.8638C132.585 25.5747 135.229 30.8895 139.337 35.5849C143.445 40.2786 148.362 43.6044 152.905 45.1696C157.463 46.7397 161.559 46.5153 164.133 44.2621Z" fill="#FFAB31" stroke="#000072" stroke-width="0.695423"/>
<path d="M167.406 22.996C176.938 33.8897 179.096 47.5865 172.231 53.5959L166.148 58.921C163.327 61.3891 159.422 62.1713 155.139 61.4869L165.013 52.8474C166.913 52.6956 168.586 52.0752 169.899 50.9306C175.185 46.2961 172.826 34.5749 164.737 25.331C156.649 16.0904 145.343 12.1947 140.049 16.8291C138.585 18.1102 137.703 19.9431 137.372 22.115L127.653 30.6215C127.411 26.0476 128.689 22.0573 131.634 19.4824L137.714 14.1604C144.58 8.15118 157.871 12.1089 167.406 22.996Z" fill="#000039"/>
<path d="M165.013 52.8474L155.139 61.4869C143.77 60.5983 127.192 42.9088 127.653 30.6215L137.372 22.115C137.703 19.9431 138.585 18.1102 140.049 16.8291C145.343 12.1947 156.649 16.0904 164.737 25.331C172.826 34.5749 175.185 46.2961 169.899 50.9306C168.586 52.0752 166.913 52.6956 165.013 52.8474Z" fill="#000039"/>
<path d="M170.133 51.2621C172.704 49.0088 173.468 44.9782 172.516 40.2525C171.567 35.5416 168.923 30.2267 164.816 25.5314C160.708 20.8376 155.791 17.5119 151.247 15.9467C146.69 14.3767 142.593 14.601 140.019 16.8541C137.449 19.1074 136.684 23.138 137.636 27.8638C138.585 32.5747 141.229 37.8895 145.337 42.5849C149.445 47.2786 154.362 50.6044 158.905 52.1696C163.463 53.7397 167.559 53.5153 170.133 51.2621Z" fill="#FFAB31" stroke="#000072" stroke-width="0.695423"/>
<path d="M178.406 18.996C187.938 29.8897 190.096 43.5865 183.231 49.5959L177.148 54.921C174.327 57.3891 170.422 58.1713 166.139 57.4869L176.013 48.8474C177.913 48.6956 179.586 48.0752 180.899 46.9306C186.185 42.2961 183.826 30.5749 175.737 21.331C167.649 12.0904 156.343 8.19475 151.049 12.8291C149.585 14.1102 148.703 15.9431 148.372 18.115L138.653 26.6215C138.411 22.0476 139.689 18.0573 142.634 15.4824L148.714 10.1604C155.58 4.15118 168.871 8.10888 178.406 18.996Z" fill="#000039"/>
<path d="M176.013 48.8474L166.139 57.4869C154.77 56.5983 138.192 38.9088 138.653 26.6215L148.372 18.115C148.703 15.9431 149.585 14.1102 151.049 12.8291C156.343 8.19475 167.649 12.0904 175.737 21.331C183.826 30.5749 186.185 42.2961 180.899 46.9306C179.586 48.0752 177.913 48.6956 176.013 48.8474Z" fill="#000039"/>
<path d="M181.133 47.2621C183.704 45.0088 184.468 40.9782 183.516 36.2525C182.567 31.5416 179.923 26.2267 175.816 21.5314C171.708 16.8376 166.791 13.5119 162.247 11.9467C157.69 10.3767 153.593 10.601 151.019 12.8541C148.449 15.1074 147.684 19.138 148.636 23.8638C149.585 28.5747 152.229 33.8895 156.337 38.5849C160.445 43.2786 165.362 46.6044 169.905 48.1696C174.463 49.7397 178.559 49.5153 181.133 47.2621Z" fill="#FFAB31" stroke="#000072" stroke-width="0.695423"/>
<path d="M187.406 24.996C196.938 35.8897 199.096 49.5865 192.231 55.5959L186.148 60.921C183.327 63.3891 179.422 64.1713 175.139 63.4869L185.013 54.8474C186.913 54.6956 188.586 54.0752 189.899 52.9306C195.185 48.2961 192.826 36.5749 184.737 27.331C176.649 18.0904 165.343 14.1947 160.049 18.8291C158.585 20.1102 157.703 21.9431 157.372 24.115L147.653 32.6215C147.411 28.0476 148.689 24.0573 151.634 21.4824L157.714 16.1604C164.58 10.1512 177.871 14.1089 187.406 24.996Z" fill="#000039"/>
<path d="M185.013 54.8474L175.139 63.4869C163.77 62.5983 147.192 44.9088 147.653 32.6215L157.372 24.115C157.703 21.9431 158.585 20.1102 160.049 18.8291C165.343 14.1947 176.649 18.0904 184.737 27.331C192.826 36.5749 195.185 48.2961 189.899 52.9306C188.586 54.0752 186.913 54.6956 185.013 54.8474Z" fill="#000039"/>
<path d="M190.133 53.2621C192.704 51.0088 193.468 46.9782 192.516 42.2525C191.567 37.5416 188.923 32.2267 184.816 27.5314C180.708 22.8376 175.791 19.5119 171.247 17.9467C166.69 16.3767 162.593 16.601 160.019 18.8541C157.449 21.1074 156.684 25.138 157.636 29.8638C158.585 34.5747 161.229 39.8895 165.337 44.5849C169.445 49.2786 174.362 52.6044 178.905 54.1696C183.463 55.7397 187.559 55.5153 190.133 53.2621Z" fill="#FFAB31" stroke="#000072" stroke-width="0.695423"/>
<path d="M195.406 17.996C204.938 28.8897 207.096 42.5865 200.231 48.5959L194.148 53.921C191.327 56.3891 187.422 57.1713 183.139 56.4869L193.013 47.8474C194.913 47.6956 196.586 47.0752 197.899 45.9306C203.185 41.2961 200.826 29.5749 192.737 20.331C184.649 11.0904 173.343 7.19475 168.049 11.8291C166.585 13.1102 165.703 14.9431 165.372 17.115L155.653 25.6215C155.411 21.0476 156.689 17.0573 159.634 14.4824L165.714 9.16038C172.58 3.15118 185.871 7.10888 195.406 17.996Z" fill="#000039"/>
<path d="M193.013 47.8474L183.139 56.4869C171.77 55.5983 155.192 37.9088 155.653 25.6215L165.372 17.115C165.703 14.9431 166.585 13.1102 168.049 11.8291C173.343 7.19475 184.649 11.0904 192.737 20.331C200.826 29.5749 203.185 41.2961 197.899 45.9306C196.586 47.0752 194.913 47.6956 193.013 47.8474Z" fill="#000039"/>
<path d="M198.133 46.2621C200.704 44.0088 201.468 39.9782 200.516 35.2525C199.567 30.5416 196.923 25.2267 192.816 20.5314C188.708 15.8376 183.791 12.5119 179.247 10.9467C174.69 9.37668 170.593 9.60099 168.019 11.8541C165.449 14.1074 164.684 18.138 165.636 22.8638C166.585 27.5747 169.229 32.8895 173.337 37.5849C177.445 42.2786 182.362 45.6044 186.905 47.1696C191.463 48.7397 195.559 48.5153 198.133 46.2621Z" fill="#FFAB31" stroke="#000072" stroke-width="0.695423"/>
<path d="M205.406 22.996C214.938 33.8897 217.096 47.5865 210.231 53.5959L204.148 58.921C201.327 61.3891 197.422 62.1713 193.139 61.4869L203.013 52.8474C204.913 52.6956 206.586 52.0752 207.899 50.9306C213.185 46.2961 210.826 34.5749 202.737 25.331C194.649 16.0904 183.343 12.1947 178.049 16.8291C176.585 18.1102 175.703 19.9431 175.372 22.115L165.653 30.6215C165.411 26.0476 166.689 22.0573 169.634 19.4824L175.714 14.1604C182.58 8.15118 195.871 12.1089 205.406 22.996Z" fill="#000039"/>
<path d="M203.013 52.8474L193.139 61.4869C181.77 60.5983 165.192 42.9088 165.653 30.6215L175.372 22.115C175.703 19.9431 176.585 18.1102 178.049 16.8291C183.343 12.1947 194.649 16.0904 202.737 25.331C210.826 34.5749 213.185 46.2961 207.899 50.9306C206.586 52.0752 204.913 52.6956 203.013 52.8474Z" fill="#000039"/>
<path d="M208.133 51.2621C210.704 49.0088 211.468 44.9782 210.516 40.2525C209.567 35.5416 206.923 30.2267 202.816 25.5314C198.708 20.8376 193.791 17.5119 189.247 15.9467C184.69 14.3767 180.593 14.601 178.019 16.8541C175.449 19.1074 174.684 23.138 175.636 27.8638C176.585 32.5747 179.229 37.8895 183.337 42.5849C187.445 47.2786 192.362 50.6044 196.905 52.1696C201.463 53.7397 205.559 53.5153 208.133 51.2621Z" fill="#FFAB31" stroke="#000072" stroke-width="0.695423"/>
<path d="M211.406 16.996C220.938 27.8897 223.096 41.5865 216.231 47.5959L210.148 52.921C207.327 55.3891 203.422 56.1713 199.139 55.4869L209.013 46.8474C210.913 46.6956 212.586 46.0752 213.899 44.9306C219.185 40.2961 216.826 28.5749 208.737 19.331C200.649 10.0904 189.343 6.19475 184.049 10.8291C182.585 12.1102 181.703 13.9431 181.372 16.115L171.653 24.6215C171.411 20.0476 172.689 16.0573 175.634 13.4824L181.714 8.16038C188.58 2.15118 201.871 6.10888 211.406 16.996Z" fill="#000039"/>
<path d="M209.013 46.8474L199.139 55.4869C187.77 54.5983 171.192 36.9088 171.653 24.6215L181.372 16.115C181.703 13.9431 182.585 12.1102 184.049 10.8291C189.343 6.19475 200.649 10.0904 208.737 19.331C216.826 28.5749 219.185 40.2961 213.899 44.9306C212.586 46.0752 210.913 46.6956 209.013 46.8474Z" fill="#000039"/>
<path d="M214.133 45.2621C216.704 43.0088 217.468 38.9782 216.516 34.2525C215.567 29.5416 212.923 24.2267 208.816 19.5314C204.708 14.8376 199.791 11.5119 195.247 9.94674C190.69 8.37668 186.593 8.60099 184.019 10.8541C181.449 13.1074 180.684 17.138 181.636 21.8638C182.585 26.5747 185.229 31.8895 189.337 36.5849C193.445 41.2786 198.362 44.6044 202.905 46.1696C207.463 47.7397 211.559 47.5153 214.133 45.2621Z" fill="#FFAB31" stroke="#000072" stroke-width="0.695423"/>
<path d="M218.406 21.996C227.938 32.8897 230.096 46.5865 223.231 52.5959L217.148 57.921C214.327 60.3891 210.422 61.1713 206.139 60.4869L216.013 51.8474C217.913 51.6956 219.586 51.0752 220.899 49.9306C226.185 45.2961 223.826 33.5749 215.737 24.331C207.649 15.0904 196.343 11.1947 191.049 15.8291C189.585 17.1102 188.703 18.9431 188.372 21.115L178.653 29.6215C178.411 25.0476 179.689 21.0573 182.634 18.4824L188.714 13.1604C195.58 7.15118 208.871 11.1089 218.406 21.996Z" fill="#000039"/>
<path d="M216.013 51.8474L206.139 60.4869C194.77 59.5983 178.192 41.9088 178.653 29.6215L188.372 21.115C188.703 18.9431 189.585 17.1102 191.049 15.8291C196.343 11.1947 207.649 15.0904 215.737 24.331C223.826 33.5749 226.185 45.2961 220.899 49.9306C219.586 51.0752 217.913 51.6956 216.013 51.8474Z" fill="#000039"/>
<path d="M221.133 50.2621C223.704 48.0088 224.468 43.9782 223.516 39.2525C222.567 34.5416 219.923 29.2267 215.816 24.5314C211.708 19.8376 206.791 16.5119 202.247 14.9467C197.69 13.3767 193.593 13.601 191.019 15.8541C188.449 18.1074 187.684 22.138 188.636 26.8638C189.585 31.5747 192.229 36.8895 196.337 41.5849C200.445 46.2786 205.362 49.6044 209.905 51.1696C214.463 52.7397 218.559 52.5153 221.133 50.2621Z" fill="#FFAB31" stroke="#000072" stroke-width="0.695423"/>
<path d="M227.406 16.996C236.938 27.8897 239.096 41.5865 232.231 47.5959L226.148 52.921C223.327 55.3891 219.422 56.1713 215.139 55.4869L225.013 46.8474C226.913 46.6956 228.586 46.0752 229.899 44.9306C235.185 40.2961 232.826 28.5749 224.737 19.331C216.649 10.0904 205.343 6.19475 200.049 10.8291C198.585 12.1102 197.703 13.9431 197.372 16.115L187.653 24.6215C187.411 20.0476 188.689 16.0573 191.634 13.4824L197.714 8.16038C204.58 2.15118 217.871 6.10888 227.406 16.996Z" fill="#000039"/>
<path d="M225.013 46.8474L215.139 55.4869C203.77 54.5983 187.192 36.9088 187.653 24.6215L197.372 16.115C197.703 13.9431 198.585 12.1102 200.049 10.8291C205.343 6.19475 216.649 10.0904 224.737 19.331C232.826 28.5749 235.185 40.2961 229.899 44.9306C228.586 46.0752 226.913 46.6956 225.013 46.8474Z" fill="#000039"/>
<path d="M230.133 45.2621C232.704 43.0088 233.468 38.9782 232.516 34.2525C231.567 29.5416 228.923 24.2267 224.816 19.5314C220.708 14.8376 215.791 11.5119 211.247 9.94674C206.69 8.37668 202.593 8.60099 200.019 10.8541C197.449 13.1074 196.684 17.138 197.636 21.8638C198.585 26.5747 201.229 31.8895 205.337 36.5849C209.445 41.2786 214.362 44.6044 218.905 46.1696C223.463 47.7397 227.559 47.5153 230.133 45.2621Z" fill="#FFAB31" stroke="#000072" stroke-width="0.695423"/>
<path d="M232.406 19.996C241.938 30.8897 244.096 44.5865 237.231 50.5959L231.148 55.921C228.327 58.3891 224.422 59.1713 220.139 58.4869L230.013 49.8474C231.913 49.6956 233.586 49.0752 234.899 47.9306C240.185 43.2961 237.826 31.5749 229.737 22.331C221.649 13.0904 210.343 9.19475 205.049 13.8291C203.585 15.1102 202.703 16.9431 202.372 19.115L192.653 27.6215C192.411 23.0476 193.689 19.0573 196.634 16.4824L202.714 11.1604C209.58 5.15118 222.871 9.10888 232.406 19.996Z" fill="#000039"/>
<path d="M230.013 49.8474L220.139 58.4869C208.77 57.5983 192.192 39.9088 192.653 27.6215L202.372 19.115C202.703 16.9431 203.585 15.1102 205.049 13.8291C210.343 9.19475 221.649 13.0904 229.737 22.331C237.826 31.5749 240.185 43.2961 234.899 47.9306C233.586 49.0752 231.913 49.6956 230.013 49.8474Z" fill="#000039"/>
<path d="M235.133 48.2621C237.704 46.0088 238.468 41.9782 237.516 37.2525C236.567 32.5416 233.923 27.2267 229.816 22.5314C225.708 17.8376 220.791 14.5119 216.247 12.9467C211.69 11.3767 207.593 11.601 205.019 13.8541C202.449 16.1074 201.684 20.138 202.636 24.8638C203.585 29.5747 206.229 34.8895 210.337 39.5849C214.445 44.2786 219.362 47.6044 223.905 49.1696C228.463 50.7397 232.559 50.5153 235.133 48.2621Z" fill="#FFAB31" stroke="#000072" stroke-width="0.695423"/>
<path d="M237.406 17.996C246.938 28.8897 249.096 42.5865 242.231 48.5959L236.148 53.921C233.327 56.3891 229.422 57.1713 225.139 56.4869L235.013 47.8474C236.913 47.6956 238.586 47.0752 239.899 45.9306C245.185 41.2961 242.826 29.5749 234.737 20.331C226.649 11.0904 215.343 7.19475 210.049 11.8291C208.585 13.1102 207.703 14.9431 207.372 17.115L197.653 25.6215C197.411 21.0476 198.689 17.0573 201.634 14.4824L207.714 9.16038C214.58 3.15118 227.871 7.10888 237.406 17.996Z" fill="#000039"/>
<path d="M235.013 47.8474L225.139 56.4869C213.77 55.5983 197.192 37.9088 197.653 25.6215L207.372 17.115C207.703 14.9431 208.585 13.1102 210.049 11.8291C215.343 7.19475 226.649 11.0904 234.737 20.331C242.826 29.5749 245.185 41.2961 239.899 45.9306C238.586 47.0752 236.913 47.6956 235.013 47.8474Z" fill="#000039"/>
<path d="M240.133 46.2621C242.704 44.0088 243.468 39.9782 242.516 35.2525C241.567 30.5416 238.923 25.2267 234.816 20.5314C230.708 15.8376 225.791 12.5119 221.247 10.9467C216.69 9.37668 212.593 9.60099 210.019 11.8541C207.449 14.1074 206.684 18.138 207.636 22.8638C208.585 27.5747 211.229 32.8895 215.337 37.5849C219.445 42.2786 224.362 45.6044 228.905 47.1696C233.463 48.7397 237.559 48.5153 240.133 46.2621Z" fill="#FFAB31" stroke="#000072" stroke-width="0.695423"/>
<mask id="path-41-inside-1_29_254" fill="white">
<path fill-rule="evenodd" clip-rule="evenodd" d="M16.2641 92.8739C14.891 100.197 19.0103 103.859 25.418 105.232C30.3612 106.193 35.3043 107.278 40.2475 108.362C51.7814 110.893 63.3154 113.424 74.8494 114.386C97.0592 116.121 119.532 117.067 141.869 117.223V117.24C142.412 117.238 142.955 117.236 143.498 117.233C144.041 117.236 144.584 117.238 145.127 117.24V117.223C167.464 117.067 189.937 116.121 212.147 114.386C223.681 113.424 235.215 110.893 246.749 108.362C251.692 107.278 256.635 106.193 261.578 105.232C267.986 103.859 272.105 100.197 270.732 92.8739L270.633 92.344C268.188 79.2966 263.009 51.6551 251.051 32C214.914 39.7763 179.235 43.781 143.498 43.8428C107.762 43.781 72.0819 39.7763 35.9451 32C23.9875 51.6551 18.8082 79.2964 16.3634 92.3439L16.3634 92.344L16.2641 92.8739Z"/>
</mask>
<path fill-rule="evenodd" clip-rule="evenodd" d="M16.2641 92.8739C14.891 100.197 19.0103 103.859 25.418 105.232C30.3612 106.193 35.3043 107.278 40.2475 108.362C51.7814 110.893 63.3154 113.424 74.8494 114.386C97.0592 116.121 119.532 117.067 141.869 117.223V117.24C142.412 117.238 142.955 117.236 143.498 117.233C144.041 117.236 144.584 117.238 145.127 117.24V117.223C167.464 117.067 189.937 116.121 212.147 114.386C223.681 113.424 235.215 110.893 246.749 108.362C251.692 107.278 256.635 106.193 261.578 105.232C267.986 103.859 272.105 100.197 270.732 92.8739L270.633 92.344C268.188 79.2966 263.009 51.6551 251.051 32C214.914 39.7763 179.235 43.781 143.498 43.8428C107.762 43.781 72.0819 39.7763 35.9451 32C23.9875 51.6551 18.8082 79.2964 16.3634 92.3439L16.3634 92.344L16.2641 92.8739Z" fill="white"/>
<path d="M25.418 105.232L24.459 109.707L24.5016 109.716L24.5444 109.724L25.418 105.232ZM16.2641 92.8739L20.7627 93.7173L20.7627 93.7169L16.2641 92.8739ZM40.2475 108.362L39.2664 112.833L39.2664 112.833L40.2475 108.362ZM74.8494 114.386L74.4693 118.947L74.4811 118.948L74.4929 118.949L74.8494 114.386ZM141.869 117.223H146.446V112.678L141.901 112.646L141.869 117.223ZM141.869 117.24H137.292V121.834L141.885 121.817L141.869 117.24ZM143.498 117.233L143.522 112.656L143.498 112.656L143.474 112.656L143.498 117.233ZM145.127 117.24L145.111 121.817L149.704 121.834V117.24H145.127ZM145.127 117.223L145.095 112.646L140.55 112.678V117.223H145.127ZM212.147 114.386L212.503 118.949L212.515 118.948L212.527 118.947L212.147 114.386ZM246.749 108.362L247.73 112.833L247.73 112.833L246.749 108.362ZM261.578 105.232L262.452 109.724L262.494 109.716L262.537 109.707L261.578 105.232ZM270.732 92.8739L266.233 93.7169L266.233 93.7173L270.732 92.8739ZM270.633 92.344L266.134 93.1869L266.134 93.187L270.633 92.344ZM251.051 32L254.961 29.6211L253.27 26.8408L250.088 27.5255L251.051 32ZM143.498 43.8428L143.49 48.4198L143.498 48.4198L143.506 48.4198L143.498 43.8428ZM35.9451 32L36.908 27.5255L33.7263 26.8408L32.0349 29.6211L35.9451 32ZM16.3634 92.3439L11.8647 91.5009L11.8616 91.5176L11.8586 91.5344L16.3634 92.3439ZM16.3634 92.344L20.862 93.187L20.8652 93.1702L20.8682 93.1534L16.3634 92.344ZM26.377 100.756C23.6916 100.181 22.1911 99.2612 21.4476 98.3638C20.8446 97.6361 20.2668 96.3619 20.7627 93.7173L11.7655 92.0304C10.8883 96.709 11.6836 100.927 14.3989 104.204C16.9736 107.312 20.7367 108.909 24.459 109.707L26.377 100.756ZM41.2285 103.892C36.2945 102.809 31.2977 101.712 26.2916 100.739L24.5444 109.724C29.4247 110.673 34.3141 111.746 39.2664 112.833L41.2285 103.892ZM75.2295 109.824C64.0511 108.893 52.8171 106.435 41.2285 103.892L39.2664 112.833C50.7457 115.352 62.5797 117.956 74.4693 118.947L75.2295 109.824ZM141.901 112.646C119.671 112.49 97.3063 111.549 75.2059 109.822L74.4929 118.949C96.8121 120.692 119.393 121.643 141.837 121.8L141.901 112.646ZM137.292 117.223V117.24H146.446V117.223H137.292ZM141.885 121.817C142.431 121.815 142.977 121.813 143.522 121.81L143.474 112.656C142.933 112.659 142.393 112.661 141.853 112.663L141.885 121.817ZM145.143 112.663C144.603 112.661 144.063 112.659 143.522 112.656L143.474 121.81C144.02 121.813 144.565 121.815 145.111 121.817L145.143 112.663ZM140.55 117.223V117.24H149.704V117.223H140.55ZM145.159 121.8C167.603 121.643 190.184 120.692 212.503 118.949L211.79 109.822C189.69 111.549 167.325 112.49 145.095 112.646L145.159 121.8ZM212.527 118.947C224.416 117.956 236.25 115.352 247.73 112.833L245.768 103.892C234.179 106.435 222.945 108.893 211.767 109.824L212.527 118.947ZM247.73 112.833C252.682 111.746 257.571 110.673 262.452 109.724L260.704 100.739C255.698 101.712 250.702 102.809 245.768 103.892L247.73 112.833ZM262.537 109.707C266.259 108.909 270.022 107.312 272.597 104.204C275.313 100.927 276.108 96.709 275.231 92.0304L266.233 93.7173C266.729 96.3619 266.152 97.6361 265.549 98.3638C264.805 99.2612 263.305 100.181 260.619 100.756L262.537 109.707ZM275.231 92.0308L275.131 91.5009L266.134 93.187L266.233 93.7169L275.231 92.0308ZM275.131 91.501C272.716 78.6077 267.427 50.1116 254.961 29.6211L247.141 34.3789C258.59 53.1987 263.66 79.9854 266.134 93.1869L275.131 91.501ZM250.088 27.5255C214.245 35.2386 178.885 39.2046 143.49 39.2659L143.506 48.4198C179.584 48.3574 215.584 44.314 252.014 36.4745L250.088 27.5255ZM34.9822 36.4745C71.4125 44.314 107.412 48.3574 143.49 48.4198L143.506 39.2659C108.111 39.2046 72.7513 35.2386 36.908 27.5255L34.9822 36.4745ZM20.8621 93.1868C23.3357 79.9853 28.4059 53.1987 39.8553 34.3789L32.0349 29.6211C19.5692 50.1115 14.2806 78.6075 11.8647 91.5009L20.8621 93.1868ZM20.8682 93.1534L20.8682 93.1533L11.8586 91.5344L11.8586 91.5345L20.8682 93.1534ZM20.7627 93.7169L20.862 93.187L11.8647 91.5009L11.7654 92.0308L20.7627 93.7169Z" fill="#000072" mask="url(#path-41-inside-1_29_254)"/>
<path d="M58.2836 64.5961C58.263 64.8164 58.258 65.0789 58.4071 65.2424C62.2311 69.433 65.9543 73.4844 69.7374 77.4782C70.1869 77.9527 70.8885 78.0752 71.4978 77.8388C75.3485 76.3445 78.3592 77.1291 80.5954 80.1441C83.437 84.1506 81.5685 89.6993 76.7962 91.1576C75.708 91.4444 75.2045 91.8178 74.8227 92.8815C73.3171 96.9903 68.8777 98.722 64.9585 96.9458C61.1232 95.1073 59.6432 90.4812 61.858 86.627C62.4482 85.6689 62.2209 85.187 61.5767 84.494C57.961 80.6714 54.4914 76.8706 50.7917 73.1103C50.3966 72.7529 49.5196 72.6229 49.0378 72.8502C45.0368 74.647 40.5735 73.0141 38.9852 69.1188C37.3346 65.1395 39.5521 60.7629 43.8642 59.3858C44.4923 59.1801 45.1636 58.6822 45.3125 58.1814C46.588 54.1133 51.4065 51.8403 55.388 53.7004C59.3958 55.6272 60.6193 60.0026 58.3393 64.3202C58.2999 64.3949 58.2914 64.512 58.2836 64.5961V64.5961ZM49.4042 71.1585C49.9872 70.8378 50.7068 71.005 51.1404 71.5096C52.5871 73.1933 53.9595 74.8504 55.4551 76.416C57.9693 79.1042 60.7137 81.7518 63.2279 84.4401C63.8721 85.1331 64.6001 85.7639 63.6119 86.8871C61.8252 88.8628 61.6868 91.307 62.9911 93.5918C64.171 95.7087 66.1928 96.6807 68.6182 96.4428C71.2736 96.1644 73.017 94.481 73.6156 91.9556C73.9568 90.6618 74.6688 90.394 75.7353 90.2534C78.2662 89.8071 79.7795 88.1643 80.2942 85.7011C80.7655 83.5303 79.7968 80.9966 77.8183 79.7323C75.7776 78.384 73.6256 78.289 71.5493 79.6989C70.2905 80.6326 69.6653 80.3158 68.7099 79.2032C64.9914 75.0666 61.3351 71.014 57.5109 67.0859C56.3472 65.8677 55.9114 65.2802 57.1107 63.7402C58.6052 61.7211 58.4296 59.3797 57.1658 57.3251C55.8803 55.4166 53.8585 54.4445 51.5576 54.8502C49.1946 55.172 47.4106 56.6253 46.8337 59.0045C46.4708 60.4445 45.7994 60.9425 44.4189 61.1859C41.1138 61.8161 39.1725 65.3374 40.1167 68.5397C41.1049 71.7662 44.5591 73.4144 47.6973 72.2234C47.8132 72.1795 47.9215 72.1167 48.0218 72.0439C48.5154 71.6856 48.958 71.404 49.4042 71.1585Z" fill="#000039"/>
<path d="M49.4042 71.1585C49.9872 70.8378 50.7068 71.005 51.1404 71.5096C52.5871 73.1933 53.9595 74.8504 55.4551 76.416C57.9693 79.1042 60.7137 81.7518 63.2279 84.4401C63.8721 85.1331 64.6001 85.7639 63.6119 86.8871C61.8252 88.8628 61.6868 91.307 62.9911 93.5918C64.171 95.7087 66.1928 96.6807 68.6182 96.4428C71.2736 96.1644 73.017 94.481 73.6156 91.9556C73.9568 90.6618 74.6688 90.394 75.7353 90.2534C78.2662 89.8071 79.7795 88.1643 80.2942 85.7011C80.7655 83.5303 79.7968 80.9966 77.8183 79.7323C75.7776 78.384 73.6256 78.289 71.5493 79.6989C70.2905 80.6326 69.6653 80.3158 68.7099 79.2032C64.9914 75.0666 61.3351 71.014 57.5109 67.0859C56.3472 65.8677 55.9114 65.2802 57.1107 63.7402C58.6052 61.7211 58.4296 59.3797 57.1658 57.3251C55.8803 55.4166 53.8585 54.4445 51.5576 54.8502C49.1946 55.172 47.4106 56.6253 46.8337 59.0045C46.4708 60.4445 45.7994 60.9425 44.4189 61.1859C41.1138 61.8161 39.1725 65.3374 40.1167 68.5397C41.1049 71.7662 44.5591 73.4144 47.6973 72.2234C47.8132 72.1795 47.9215 72.1167 48.0218 72.0439C48.5154 71.6856 48.958 71.404 49.4042 71.1585Z" fill="#000039"/>
<path d="M237.085 89.2086C235.649 94.7764 231.163 96.453 226.956 92.4213C224.004 89.557 220.437 88.109 216.469 87.3422C210.847 86.0892 209.484 81.8949 213.018 77.3429C216.898 72.2935 225.363 69.9892 230.185 72.6045C235.429 75.144 238.5 83.0353 237.085 89.2086Z" fill="#000039"/>
<path d="M240.449 66.1685C238.014 70.073 234.502 71.6047 231.836 70.0923C229.076 68.7465 228.255 64.7572 229.979 61.3302C230.641 60.1638 231.469 59.092 232.37 58.2813C234.265 56.4933 236.449 55.7499 238.948 57.1678C241.614 58.6801 242.002 61.1025 241.439 63.6467C241.3 64.6689 240.638 65.8353 240.449 66.1685Z" fill="#000039"/>
<path d="M223.583 56.1496C226.416 57.7565 227.642 62.196 225.751 65.5285C224.05 68.5277 220.633 69.8928 218.039 68.6415C214.778 67.0122 213.886 62.7618 215.704 59.1681C217.406 56.1689 220.823 54.8038 223.583 56.1496Z" fill="#000039"/>
<path d="M249.327 69.6981C246.494 68.0912 242.055 69.3168 240.164 72.6493C238.463 75.6485 239.044 79.2822 241.449 80.8667C244.52 82.8292 248.627 81.4145 250.778 78.0099C252.48 75.0107 251.898 71.3771 249.327 69.6981Z" fill="#000039"/>
<path d="M111.208 82.3696L111.763 88.5991C110.18 89.2364 108.227 89.5551 105.904 89.5551C103.704 89.5551 101.885 89.3187 100.445 88.8458C99.0062 88.3524 97.8652 87.6122 97.0222 86.6254C96.1793 85.6385 95.5831 84.3844 95.2336 82.863C94.9046 81.3416 94.7401 79.5427 94.7401 77.4662C94.7401 75.4513 94.8943 73.6935 95.2027 72.1927C95.5317 70.6713 96.1073 69.4069 96.9297 68.3994C97.7521 67.3715 98.8623 66.6005 100.26 66.0865C101.679 65.5725 103.468 65.3155 105.626 65.3155C106.099 65.3155 106.623 65.3464 107.199 65.408C107.795 65.4492 108.371 65.5108 108.926 65.5931C109.502 65.6753 110.036 65.7781 110.53 65.9015C111.044 66.0043 111.455 66.1276 111.763 66.2715L110.653 71.9459C109.008 71.5964 107.538 71.4217 106.243 71.4217C104.907 71.4217 103.982 71.545 103.468 71.7917C102.954 72.0385 102.697 72.5319 102.697 73.272V82.9555C103.17 83.0583 103.642 83.1406 104.115 83.2022C104.609 83.2434 105.112 83.2639 105.626 83.2639C107.682 83.2639 109.543 82.9658 111.208 82.3696ZM113.232 77.4662C113.232 75.3485 113.406 73.529 113.756 72.0076C114.126 70.4657 114.732 69.2013 115.575 68.2144C116.439 67.2276 117.57 66.4977 118.968 66.0248C120.366 65.552 122.093 65.3155 124.149 65.3155C126.225 65.3155 127.952 65.552 129.33 66.0248C130.728 66.4977 131.848 67.2276 132.691 68.2144C133.555 69.2013 134.161 70.4657 134.511 72.0076C134.881 73.529 135.066 75.3485 135.066 77.4662C135.066 79.481 134.901 81.2491 134.572 82.7705C134.243 84.2713 133.657 85.5255 132.814 86.5329C131.992 87.5403 130.872 88.301 129.453 88.815C128.055 89.3084 126.287 89.5551 124.149 89.5551C122.01 89.5551 120.232 89.3084 118.813 88.815C117.415 88.301 116.295 87.5403 115.452 86.5329C114.63 85.5255 114.054 84.2713 113.725 82.7705C113.396 81.2491 113.232 79.481 113.232 77.4662ZM121.188 73.6113V83.2331H124.272C125.3 83.2331 126.03 83.12 126.462 82.8938C126.914 82.6471 127.14 82.1023 127.14 81.2594V71.6376H124.025C123.038 71.6376 122.319 71.7609 121.867 72.0076C121.414 72.2338 121.188 72.7683 121.188 73.6113ZM153.812 81.2902L157.821 89H149.679L146.657 82.1229H145.053V89H137.652V65.8706H149.309C154.613 65.8706 157.266 68.5742 157.266 73.9813C157.266 77.682 156.114 80.1183 153.812 81.2902ZM146.749 71.7917H145.053V76.4176H146.749C147.654 76.4176 148.302 76.3251 148.692 76.1401C149.103 75.955 149.309 75.5336 149.309 74.8757V73.3337C149.309 72.6758 149.103 72.2543 148.692 72.0693C148.302 71.8843 147.654 71.7917 146.749 71.7917ZM172.262 82.1845V81.1977H170.381V75.5233H179.293V87.8898C176.374 89 173.341 89.5551 170.196 89.5551C168.037 89.5551 166.248 89.2981 164.83 88.7841C163.432 88.2701 162.322 87.5094 161.499 86.502C160.677 85.4741 160.101 84.2096 159.772 82.7088C159.464 81.1874 159.31 79.4193 159.31 77.4045C159.31 75.2663 159.505 73.4365 159.896 71.9151C160.286 70.3731 160.934 69.119 161.838 68.1527C162.743 67.1659 163.946 66.4463 165.447 65.994C166.947 65.5417 168.808 65.3155 171.029 65.3155C171.522 65.3155 172.098 65.3464 172.756 65.408C173.434 65.4492 174.112 65.5211 174.791 65.6239C175.469 65.7062 176.107 65.809 176.703 65.9323C177.32 66.0351 177.813 66.1482 178.183 66.2715L177.073 71.9459C176.066 71.7815 175.11 71.6581 174.205 71.5759C173.3 71.4731 172.457 71.4217 171.676 71.4217C170.052 71.4217 168.911 71.545 168.253 71.7917C167.595 72.0385 167.266 72.5319 167.266 73.272V83.7573H169.702C170.607 83.7573 171.255 83.6648 171.645 83.4798C172.056 83.2742 172.262 82.8424 172.262 82.1845ZM190.017 89H182.616V65.8706H190.017V89Z" fill="#000039"/>
<path d="M272.594 52.0211C272.499 52.3819 272.419 52.8171 272.622 53.1299C277.832 61.1487 282.912 68.9086 288.107 76.5889C288.725 77.5013 289.858 77.8977 290.936 77.6717C297.75 76.2433 302.542 78.3746 305.434 84.0025C309.06 91.4456 304.43 100.161 296.093 101.276C294.204 101.455 293.264 101.938 292.337 103.602C288.706 110.022 280.847 111.684 274.817 107.654C268.943 103.544 267.751 95.4439 272.492 89.6418C273.737 88.2103 273.491 87.3466 272.61 86.0172C267.645 78.6676 262.918 71.3942 257.797 64.125C257.238 63.4223 255.815 62.9653 254.952 63.2111C247.805 65.1013 240.83 61.1608 239.257 54.2465C237.604 47.1756 242.493 40.5054 250.043 39.3985C251.144 39.2289 252.397 38.585 252.782 37.7931C256.02 31.3773 264.657 28.9195 270.768 33.1058C276.905 37.4102 277.739 45.0228 272.762 51.5776C272.676 51.691 272.63 51.8834 272.594 52.0211V52.0211ZM256.025 60.4982C257.083 60.1249 258.234 60.6004 258.817 61.5587C260.76 64.7559 262.588 67.8884 264.646 70.9026C268.09 76.0634 271.927 81.2199 275.371 86.3807C276.252 87.7101 277.289 88.9589 275.338 90.5557C271.824 93.3512 270.923 97.3783 272.465 101.536C273.846 105.38 276.942 107.552 281.041 107.822C285.534 108.088 288.895 105.766 290.584 101.731C291.506 99.6727 292.764 99.4226 294.576 99.4814C298.908 99.4338 301.876 97.117 303.408 93.1618C304.787 89.6809 303.872 85.2012 300.928 82.5554C297.904 79.753 294.351 79.0044 290.511 80.7794C288.161 81.9868 287.209 81.2883 285.925 79.1757C280.876 71.2757 275.907 63.5323 270.625 55.9499C269.024 53.6044 268.461 52.5079 270.878 50.2758C273.918 47.3281 274.268 43.3858 272.73 39.6219C271.116 36.0951 268.02 33.9236 264.083 33.9669C260.064 33.8535 256.698 35.7809 255.086 39.5794C254.087 41.8746 252.834 42.5186 250.471 42.5445C244.802 42.6856 240.607 48.009 241.298 53.5939C242.056 59.2311 247.348 62.9203 252.894 61.8009C253.099 61.7595 253.297 61.6849 253.483 61.5913C254.403 61.1309 255.216 60.784 256.025 60.4982Z" fill="#000039"/>
<path d="M256.025 60.4982C257.083 60.1249 258.234 60.6004 258.817 61.5587C260.76 64.7559 262.588 67.8884 264.646 70.9026C268.09 76.0634 271.927 81.2199 275.371 86.3807C276.252 87.7101 277.289 88.9589 275.338 90.5557C271.824 93.3512 270.923 97.3783 272.465 101.536C273.846 105.38 276.942 107.552 281.041 107.822C285.534 108.088 288.895 105.766 290.584 101.731C291.506 99.6727 292.764 99.4226 294.576 99.4814C298.908 99.4338 301.876 97.117 303.408 93.1618C304.787 89.6809 303.872 85.2012 300.928 82.5554C297.904 79.753 294.351 79.0044 290.511 80.7794C288.161 81.9868 287.209 81.2883 285.925 79.1757C280.876 71.2757 275.907 63.5323 270.625 55.9499C269.024 53.6044 268.461 52.5079 270.878 50.2758C273.918 47.3281 274.268 43.3858 272.73 39.6219C271.116 36.0951 268.02 33.9236 264.083 33.9669C260.064 33.8535 256.698 35.7809 255.086 39.5794C254.087 41.8746 252.834 42.5186 250.471 42.5445C244.802 42.6856 240.607 48.009 241.298 53.5939C242.056 59.2311 247.348 62.9203 252.894 61.8009C253.099 61.7595 253.297 61.6849 253.483 61.5913C254.403 61.1309 255.216 60.784 256.025 60.4982Z" fill="white"/>
</svg>
