<svg width="136" height="120" viewBox="0 0 136 120" fill="none" xmlns="http://www.w3.org/2000/svg">
<g filter="url(#filter0_i_18_1607)">
<path d="M118.723 44.5985C112.5 67.7788 110.409 71.7941 92.2677 60.3921C53.774 36.1988 80.4838 39.5372 88.6731 28.356C98.0323 15.5775 111.554 9.25855 117.559 12.4252C123.565 15.5918 121.13 35.6331 118.723 44.5985Z" fill="#F9A429"/>
</g>
<path d="M117.392 44.2411C115.833 50.0486 114.554 54.5713 113.232 57.9461C111.895 61.3582 110.607 63.3407 109.179 64.3312C107.863 65.2447 106.188 65.4684 103.581 64.6755C100.926 63.8683 97.5265 62.0693 93.0011 59.2251C83.3825 53.1798 77.996 48.9472 75.364 45.8583C74.0516 44.3181 73.5367 43.19 73.4191 42.3752C73.3125 41.6366 73.511 41.013 74.0377 40.3591C74.6042 39.6558 75.5213 38.9613 76.7729 38.2078C77.6996 37.6498 78.7251 37.1072 79.8329 36.5211C80.2182 36.3173 80.6135 36.1081 81.018 35.8913C84.061 34.2599 87.5319 32.2468 89.7851 29.1704C94.3487 22.9395 99.9113 18.309 105.014 15.6317C107.566 14.2927 109.966 13.462 112.038 13.1439C114.123 12.8236 115.766 13.0379 116.917 13.6444C117.863 14.1435 118.714 15.4683 119.272 17.8425C119.812 20.1442 119.996 23.0945 119.918 26.3038C119.762 32.7141 118.569 39.857 117.392 44.2411Z" stroke="#000072" stroke-width="2.7567"/>
<path d="M97.8432 56.674L97.6809 56.5656L97.4881 56.5357C95.2192 56.184 93.9244 55.1409 93.2213 53.7461C92.4901 52.2955 92.3379 50.3409 92.6551 48.103C93.2891 43.6308 95.7338 38.4718 98.0707 35.2001C100.743 31.4585 103.939 28.6378 106.832 26.9712C108.28 26.1373 109.627 25.6074 110.773 25.3824C111.932 25.155 112.8 25.2544 113.376 25.5583C113.814 25.7892 114.256 26.4782 114.521 27.8688C114.775 29.1975 114.819 30.9163 114.71 32.7966C114.494 36.5505 113.685 40.7555 112.94 43.3462C111.953 46.7754 111.077 49.7408 110.16 52.1692C109.237 54.61 108.304 56.4175 107.245 57.5864C106.222 58.715 105.101 59.2318 103.696 59.1556C102.222 59.0757 100.332 58.3375 97.8432 56.674Z" fill="#FF7E7E" stroke="#000072" stroke-width="1.76408"/>
<g filter="url(#filter1_i_18_1607)">
<path d="M17.2766 44.5985C23.5001 67.7788 25.5907 71.7941 43.7323 60.3921C82.226 36.1988 55.5162 39.5372 47.3269 28.356C37.9677 15.5775 24.4462 9.25855 18.4406 12.4252C12.435 15.5918 14.8696 35.6331 17.2766 44.5985Z" fill="#F9A429"/>
</g>
<path d="M18.6078 44.2411C20.1671 50.0486 21.4461 54.5713 22.7681 57.9461C24.1047 61.3582 25.3935 63.3407 26.821 64.3312C28.1373 65.2447 29.8116 65.4684 32.4194 64.6755C35.0744 63.8683 38.4735 62.0693 42.9989 59.2251C52.6175 53.1798 58.004 48.9472 60.636 45.8583C61.9484 44.3181 62.4633 43.19 62.5809 42.3752C62.6875 41.6366 62.489 41.013 61.9623 40.3591C61.3958 39.6558 60.4787 38.9613 59.2271 38.2078C58.3004 37.6498 57.2749 37.1072 56.1671 36.5211C55.7818 36.3173 55.3865 36.1081 54.982 35.8913C51.939 34.2599 48.4681 32.2468 46.2149 29.1704C41.6513 22.9395 36.0887 18.309 30.9858 15.6317C28.4336 14.2927 26.0342 13.462 23.9624 13.1439C21.8765 12.8236 20.2338 13.0379 19.0835 13.6444C18.1369 14.1435 17.286 15.4683 16.7285 17.8425C16.188 20.1442 16.0037 23.0945 16.0818 26.3038C16.2378 32.7141 17.4308 39.857 18.6078 44.2411Z" stroke="#000072" stroke-width="2.7567"/>
<path d="M38.1568 56.674L38.3191 56.5656L38.5119 56.5357C40.7808 56.184 42.0756 55.1409 42.7787 53.7461C43.5099 52.2955 43.6621 50.3409 43.3449 48.103C42.7109 43.6308 40.2662 38.4718 37.9293 35.2001C35.2568 31.4585 32.0614 28.6378 29.1675 26.9712C27.7196 26.1373 26.3733 25.6074 25.2266 25.3824C24.068 25.155 23.2005 25.2544 22.6241 25.5583C22.1862 25.7892 21.7439 26.4782 21.4785 27.8688C21.225 29.1975 21.1813 30.9163 21.2896 32.7966C21.5059 36.5505 22.3152 40.7555 23.0604 43.3462C24.0467 46.7754 24.9226 49.7408 25.8404 52.1692C26.7628 54.61 27.6956 56.4175 28.7549 57.5864C29.7777 58.715 30.8988 59.2318 32.3039 59.1556C33.7782 59.0757 35.6683 58.3375 38.1568 56.674Z" fill="#FF7E7E" stroke="#000072" stroke-width="1.76408"/>
<g filter="url(#filter2_i_18_1607)">
<path d="M113.6 85.6473C115.141 76.8855 111.47 71.0828 108.556 68.4384C107.735 67.6941 107.158 66.6807 107.112 65.5742C106.262 45.273 90.9242 29.0317 70.4129 28.5352H63.9619C43.4426 29.0317 29.6098 45.273 28.8445 65.5741C28.8028 66.6808 28.2245 67.6941 27.4044 68.4384C24.4903 71.0828 20.819 76.8855 22.3601 85.6473C24.1663 95.9167 33.2192 102.121 37.5199 103.94C41.8205 105.758 51.8301 107.46 68.0716 107.63C84.3132 107.801 94.1395 105.758 98.4401 103.94C102.741 102.121 111.794 95.9167 113.6 85.6473Z" fill="#F9A429"/>
</g>
<path d="M107.907 69.1528C110.612 71.6073 114.126 77.0898 112.65 85.4802C111.79 90.371 109.199 94.3202 106.269 97.2844C103.334 100.254 100.102 102.19 98.0644 103.051C93.9418 104.794 84.2694 106.836 68.0817 106.666C51.8523 106.495 42.0086 104.79 37.8956 103.051C35.8579 102.19 32.6259 100.254 29.6907 97.2844C26.7608 94.3202 24.1704 90.371 23.3102 85.4802C21.8344 77.0898 25.3478 71.6073 28.0527 69.1528C29.017 68.2777 29.7548 67.0347 29.8085 65.6104C30.5578 45.7336 44.0545 29.9879 63.9737 29.4999H70.4011C90.3628 29.9891 105.318 45.7881 106.148 65.6145C106.207 67.0353 106.942 68.2771 107.907 69.1528Z" stroke="#000072" stroke-width="1.92939"/>
<g filter="url(#filter3_i_18_1607)">
<path d="M85.7516 75.6291C103.083 72.507 117.251 68.5337 110.433 88.9889C106.574 100.565 93.0681 107.318 67.6643 105.842V67.125C76.3466 67.1224 70.0047 78.4658 85.7516 75.6291Z" fill="white"/>
</g>
<g filter="url(#filter4_i_18_1607)">
<path d="M50.1351 75.6291C32.8033 72.507 18.6357 68.5337 25.4541 88.9889C29.3129 100.565 42.8186 107.318 68.2224 105.842V67.125C59.5401 67.1224 65.882 78.4658 50.1351 75.6291Z" fill="white"/>
</g>
<ellipse cx="102.54" cy="80.5832" rx="7.59856" ry="4.82304" transform="rotate(-9.43014 102.54 80.5832)" fill="#FF7E7E"/>
<ellipse cx="7.59856" cy="4.82304" rx="7.59856" ry="4.82304" transform="matrix(-0.986486 -0.163845 -0.163845 0.986486 41.5781 77.0703)" fill="#FF7E7E"/>
<path d="M84.0497 50.2057C84.0497 52.1725 77.6373 53.7668 75.6705 53.7668C73.7038 53.7668 72.1094 52.1725 72.1094 50.2057C72.1094 48.2389 73.7038 46.6445 75.6705 46.6445C77.6373 46.6445 84.0497 48.2389 84.0497 50.2057Z" fill="white"/>
<path d="M51.8448 50.2389C51.8448 52.2057 58.2572 53.8 60.224 53.8C62.1908 53.8 63.7852 52.2057 63.7852 50.2389C63.7852 48.2721 62.1908 46.6777 60.224 46.6777C58.2572 46.6777 51.8448 48.2721 51.8448 50.2389Z" fill="white"/>
<path d="M73.1358 81.2121C73.1358 92.6924 69.8239 91.855 68.0398 91.855C66.2556 91.855 62.7617 92.6924 62.7617 81.2121C62.7617 77.6352 64.7433 73.2845 65.2642 68.9894C66.4153 59.4995 66.8115 50.2812 68.0398 50.2812C69.268 50.2812 69.6725 59.4995 70.7698 68.9894C71.2664 73.2845 73.1358 77.6352 73.1358 81.2121Z" fill="white"/>
<path d="M74.3123 93.7067C74.3123 96.6701 73.3855 99.3495 72.121 101.279C71.4889 102.243 70.7807 103.007 70.0767 103.526C69.3681 104.047 68.6964 104.297 68.1261 104.297C67.6928 104.297 67.0856 104.062 66.3838 103.53C65.6949 103.008 64.9683 102.238 64.3049 101.27C62.9777 99.3328 61.9399 96.6557 61.9399 93.7067C61.9399 92.828 61.8389 92.0729 61.7582 91.4696C61.7382 91.3204 61.7195 91.1804 61.7039 91.0501C61.6184 90.3378 61.6459 90.0208 61.7858 89.8198C61.9201 89.6266 62.2707 89.3938 63.3126 89.2371C64.3259 89.0846 65.8488 89.022 68.1261 89.022C70.4033 89.022 71.9262 89.0846 72.9395 89.2371C73.9814 89.3938 74.332 89.6266 74.4664 89.8198C74.6062 90.0208 74.6338 90.3378 74.5483 91.0501C74.5326 91.1804 74.5139 91.3204 74.4939 91.4697C74.4133 92.073 74.3123 92.828 74.3123 93.7067Z" fill="#000072" stroke="#000072" stroke-width="1.05186"/>
<mask id="path-17-outside-1_18_1607" maskUnits="userSpaceOnUse" x="63.207" y="91.3301" width="10" height="13" fill="black">
<rect fill="white" x="63.207" y="91.3301" width="10" height="13"/>
<path fill-rule="evenodd" clip-rule="evenodd" d="M64.7778 93.1491C65.1585 92.6511 65.757 92.3301 66.4302 92.3301C67.1102 92.3301 67.7141 92.6577 68.0942 93.1645C68.4743 92.6577 69.0782 92.3301 69.7582 92.3301C70.7056 92.3301 71.5052 92.9659 71.7577 93.8362C72.0844 94.6564 71.9802 96.0649 71.8996 97.1547C71.8696 97.5605 71.8429 97.9222 71.8429 98.1928C71.8429 100.042 69.7046 103.216 68.0944 103.216C66.4842 103.216 64.3459 100.042 64.3459 98.1928C64.3459 97.9256 64.3198 97.5609 64.2903 97.1475C64.1888 95.7283 64.0463 93.7357 64.7778 93.1491Z"/>
</mask>
<path fill-rule="evenodd" clip-rule="evenodd" d="M64.7778 93.1491C65.1585 92.6511 65.757 92.3301 66.4302 92.3301C67.1102 92.3301 67.7141 92.6577 68.0942 93.1645C68.4743 92.6577 69.0782 92.3301 69.7582 92.3301C70.7056 92.3301 71.5052 92.9659 71.7577 93.8362C72.0844 94.6564 71.9802 96.0649 71.8996 97.1547C71.8696 97.5605 71.8429 97.9222 71.8429 98.1928C71.8429 100.042 69.7046 103.216 68.0944 103.216C66.4842 103.216 64.3459 100.042 64.3459 98.1928C64.3459 97.9256 64.3198 97.5609 64.2903 97.1475C64.1888 95.7283 64.0463 93.7357 64.7778 93.1491Z" fill="#FC6A6C"/>
<path d="M64.7778 93.1491L65.3278 93.835L65.4112 93.768L65.4762 93.683L64.7778 93.1491ZM68.0942 93.1645L67.3909 93.692L68.0942 94.6298L68.7975 93.692L68.0942 93.1645ZM71.7577 93.8362L70.9134 94.0812L70.9252 94.122L70.941 94.1615L71.7577 93.8362ZM71.8996 97.1547L71.0229 97.0898V97.0898L71.8996 97.1547ZM64.2903 97.1475L63.4134 97.2102L64.2903 97.1475ZM65.4762 93.683C65.6984 93.3923 66.0435 93.2092 66.4302 93.2092L66.4302 91.451C65.4705 91.451 64.6185 91.9098 64.0793 92.6152L65.4762 93.683ZM66.4302 93.2092C66.8207 93.2092 67.169 93.3961 67.3909 93.692L68.7975 92.6371C68.2592 91.9193 67.3997 91.451 66.4302 91.451L66.4302 93.2092ZM68.7975 93.692C69.0194 93.3961 69.3677 93.2092 69.7582 93.2092L69.7582 91.451C68.7887 91.451 67.9291 91.9193 67.3909 92.6371L68.7975 93.692ZM69.7582 93.2092C70.3013 93.2092 70.7662 93.5739 70.9134 94.0812L72.602 93.5913C72.2442 92.358 71.1099 91.451 69.7582 91.451L69.7582 93.2092ZM70.941 94.1615C71.0411 94.4128 71.0978 94.8331 71.1023 95.4014C71.1067 95.9502 71.0637 96.5386 71.0229 97.0898L72.7764 97.2195C72.8162 96.681 72.8656 96.0203 72.8605 95.3873C72.8556 94.7739 72.801 94.0798 72.5745 93.5109L70.941 94.1615ZM71.0229 97.0898C70.9939 97.4826 70.9638 97.8821 70.9638 98.1928L72.722 98.1928C72.722 97.9622 72.7454 97.6384 72.7764 97.2195L71.0229 97.0898ZM70.9638 98.1928C70.9638 98.8539 70.5453 99.9288 69.8584 100.885C69.5267 101.347 69.1663 101.732 68.8254 101.993C68.4692 102.266 68.2208 102.337 68.0944 102.337L68.0944 104.095C68.7731 104.095 69.3958 103.77 69.8934 103.39C70.4063 102.998 70.8824 102.474 71.2865 101.911C72.0713 100.818 72.722 99.3813 72.722 98.1928L70.9638 98.1928ZM68.0944 102.337C67.968 102.337 67.7196 102.266 67.3634 101.993C67.0225 101.732 66.6621 101.347 66.3304 100.885C65.6435 99.9288 65.225 98.8539 65.225 98.1928L63.4668 98.1928C63.4668 99.3813 64.1175 100.818 64.9023 101.911C65.3064 102.474 65.7825 102.998 66.2954 103.39C66.793 103.77 67.4157 104.095 68.0944 104.095L68.0944 102.337ZM65.225 98.1928C65.225 97.8867 65.1958 97.485 65.1672 97.0848L63.4134 97.2102C63.4439 97.6367 63.4668 97.9644 63.4668 98.1928L65.225 98.1928ZM65.1672 97.0848C65.1155 96.3626 65.0601 95.5684 65.0993 94.8866C65.1189 94.5469 65.1604 94.2747 65.2204 94.0756C65.2835 93.8666 65.341 93.8243 65.3278 93.835L64.2278 92.4633C63.8488 92.7672 63.6499 93.194 63.5371 93.5679C63.4213 93.9518 63.3676 94.3764 63.344 94.7855C63.297 95.6015 63.3635 96.5132 63.4134 97.2102L65.1672 97.0848Z" fill="#000072" mask="url(#path-17-outside-1_18_1607)"/>
<circle cx="58.4252" cy="84.9779" r="8.94082" fill="white"/>
<ellipse cx="77.0587" cy="84.5028" rx="8.91807" ry="8.82706" fill="white"/>
<path d="M68.0938 84.3828C68.0938 89.3207 72.0967 93.3236 77.0346 93.3236C78.4599 93.3693 82.0103 92.9943 84.8092 91.1284" stroke="#000072" stroke-width="2.45702" stroke-linecap="round"/>
<ellipse cx="8.96357" cy="8.82706" rx="8.96357" ry="8.82706" transform="matrix(-1 4.48695e-09 4.48695e-09 1 68.1406 75.7656)" fill="white"/>
<path d="M68.0938 84.3828C68.0938 89.3207 64.0908 93.3236 59.1529 93.3236C57.7276 93.3693 54.1772 92.9943 51.3783 91.1284" stroke="#000072" stroke-width="2.45702" stroke-linecap="round"/>
<path d="M78.1984 81.9425C78.1984 85.8069 73.6733 85.8298 68.0914 85.8298C62.5094 85.8298 57.9844 85.8069 57.9844 81.9425C57.9844 78.078 62.5094 74.9453 68.0914 74.9453C73.6733 74.9453 78.1984 78.078 78.1984 81.9425Z" fill="#000072"/>
<path d="M73.5368 78.4437C73.5368 79.0877 71.1002 78.0549 68.0946 78.0549C65.0889 78.0549 62.6523 79.0877 62.6523 78.4437C62.6523 77.7996 65.0889 76.5 68.0946 76.5C71.1002 76.5 73.5368 77.7996 73.5368 78.4437Z" fill="#A5A5F8"/>
<path d="M40.5051 107.596C40.5051 113.392 34.9263 118.363 27.6798 118.363C20.4333 118.363 14.8545 113.392 14.8545 107.596C14.8545 101.8 20.4333 96.8291 27.6798 96.8291C34.9263 96.8291 40.5051 101.8 40.5051 107.596Z" fill="white" stroke="#000072" stroke-width="2.08391"/>
<path d="M33.9518 116.624L32.5625 111.066" stroke="#000072" stroke-width="2.08391" stroke-linecap="round"/>
<path d="M27.0026 117.317L25.6133 111.76" stroke="#000072" stroke-width="2.08391" stroke-linecap="round"/>
<path d="M95.4285 107.596C95.4285 113.392 101.007 118.363 108.254 118.363C115.5 118.363 121.079 113.392 121.079 107.596C121.079 101.8 115.5 96.8291 108.254 96.8291C101.007 96.8291 95.4285 101.8 95.4285 107.596Z" fill="white" stroke="#000072" stroke-width="2.08391"/>
<path d="M101.978 116.624L103.367 111.066" stroke="#000072" stroke-width="2.08391" stroke-linecap="round"/>
<path d="M108.923 117.317L110.312 111.76" stroke="#000072" stroke-width="2.08391" stroke-linecap="round"/>
<path d="M100.776 69.9914C100.776 77.559 94.641 73.4852 87.0734 73.4852C79.5058 73.4852 73.3711 77.559 73.3711 69.9914C73.3711 62.4238 79.5058 56.2891 87.0734 56.2891C94.641 56.2891 100.776 62.4238 100.776 69.9914Z" fill="#000072"/>
<path d="M98.8063 69.3934C98.8063 75.8767 93.5505 72.3866 87.0672 72.3866C80.5839 72.3866 75.3281 75.8767 75.3281 69.3934C75.3281 62.9101 80.5839 57.6543 87.0672 57.6543C93.5505 57.6543 98.8063 62.9101 98.8063 69.3934Z" fill="white"/>
<ellipse cx="87.8675" cy="69.716" rx="7.19411" ry="6.60683" transform="rotate(-16.9666 87.8675 69.716)" fill="#000072"/>
<circle cx="92.4163" cy="64.3719" r="3.99473" transform="rotate(-16.9666 92.4163 64.3719)" fill="white"/>
<path d="M62.6 69.9914C62.6 77.559 56.4652 73.4852 48.8976 73.4852C41.33 73.4852 35.1953 77.559 35.1953 69.9914C35.1953 62.4238 41.33 56.2891 48.8976 56.2891C56.4652 56.2891 62.6 62.4238 62.6 69.9914Z" fill="#000072"/>
<path d="M60.6305 69.3934C60.6305 75.8767 55.3748 72.3866 48.8914 72.3866C42.4081 72.3866 37.1523 75.8767 37.1523 69.3934C37.1523 62.9101 42.4081 57.6543 48.8914 57.6543C55.3748 57.6543 60.6305 62.9101 60.6305 69.3934Z" fill="white"/>
<ellipse cx="49.6918" cy="69.716" rx="7.19411" ry="6.60683" transform="rotate(-16.9666 49.6918 69.716)" fill="#000072"/>
<circle cx="55.2874" cy="65.1883" r="3.99473" transform="rotate(-16.9666 55.2874 65.1883)" fill="white"/>
<defs>
<filter id="filter0_i_18_1607" x="72.0117" y="11.6172" width="49.3008" height="54.9219" filterUnits="userSpaceOnUse" color-interpolation-filters="sRGB">
<feFlood flood-opacity="0" result="BackgroundImageFix"/>
<feBlend mode="normal" in="SourceGraphic" in2="BackgroundImageFix" result="shape"/>
<feColorMatrix in="SourceAlpha" type="matrix" values="0 0 0 0 0 0 0 0 0 0 0 0 0 0 0 0 0 0 127 0" result="hardAlpha"/>
<feOffset dy="6.55205"/>
<feComposite in2="hardAlpha" operator="arithmetic" k2="-1" k3="1"/>
<feColorMatrix type="matrix" values="0 0 0 0 1 0 0 0 0 1 0 0 0 0 1 0 0 0 0.5 0"/>
<feBlend mode="normal" in2="shape" result="effect1_innerShadow_18_1607"/>
</filter>
<filter id="filter1_i_18_1607" x="14.6875" y="11.6172" width="49.3008" height="54.9219" filterUnits="userSpaceOnUse" color-interpolation-filters="sRGB">
<feFlood flood-opacity="0" result="BackgroundImageFix"/>
<feBlend mode="normal" in="SourceGraphic" in2="BackgroundImageFix" result="shape"/>
<feColorMatrix in="SourceAlpha" type="matrix" values="0 0 0 0 0 0 0 0 0 0 0 0 0 0 0 0 0 0 127 0" result="hardAlpha"/>
<feOffset dy="6.55205"/>
<feComposite in2="hardAlpha" operator="arithmetic" k2="-1" k3="1"/>
<feColorMatrix type="matrix" values="0 0 0 0 1 0 0 0 0 1 0 0 0 0 1 0 0 0 0.5 0"/>
<feBlend mode="normal" in2="shape" result="effect1_innerShadow_18_1607"/>
</filter>
<filter id="filter2_i_18_1607" x="21.9961" y="28.5352" width="91.9688" height="79.1055" filterUnits="userSpaceOnUse" color-interpolation-filters="sRGB">
<feFlood flood-opacity="0" result="BackgroundImageFix"/>
<feBlend mode="normal" in="SourceGraphic" in2="BackgroundImageFix" result="shape"/>
<feColorMatrix in="SourceAlpha" type="matrix" values="0 0 0 0 0 0 0 0 0 0 0 0 0 0 0 0 0 0 127 0" result="hardAlpha"/>
<feOffset dy="3.64003"/>
<feComposite in2="hardAlpha" operator="arithmetic" k2="-1" k3="1"/>
<feColorMatrix type="matrix" values="0 0 0 0 1 0 0 0 0 1 0 0 0 0 1 0 0 0 0.5 0"/>
<feBlend mode="normal" in2="shape" result="effect1_innerShadow_18_1607"/>
</filter>
<filter id="filter3_i_18_1607" x="67.6641" y="67.125" width="44.5156" height="38.918" filterUnits="userSpaceOnUse" color-interpolation-filters="sRGB">
<feFlood flood-opacity="0" result="BackgroundImageFix"/>
<feBlend mode="normal" in="SourceGraphic" in2="BackgroundImageFix" result="shape"/>
<feColorMatrix in="SourceAlpha" type="matrix" values="0 0 0 0 0 0 0 0 0 0 0 0 0 0 0 0 0 0 127 0" result="hardAlpha"/>
<feOffset dy="-1.00101"/>
<feComposite in2="hardAlpha" operator="arithmetic" k2="-1" k3="1"/>
<feColorMatrix type="matrix" values="0 0 0 0 0 0 0 0 0 0 0 0 0 0 0 0 0 0 0.25 0"/>
<feBlend mode="normal" in2="shape" result="effect1_innerShadow_18_1607"/>
</filter>
<filter id="filter4_i_18_1607" x="23.707" y="67.125" width="44.5156" height="38.918" filterUnits="userSpaceOnUse" color-interpolation-filters="sRGB">
<feFlood flood-opacity="0" result="BackgroundImageFix"/>
<feBlend mode="normal" in="SourceGraphic" in2="BackgroundImageFix" result="shape"/>
<feColorMatrix in="SourceAlpha" type="matrix" values="0 0 0 0 0 0 0 0 0 0 0 0 0 0 0 0 0 0 127 0" result="hardAlpha"/>
<feOffset dy="-1.00101"/>
<feComposite in2="hardAlpha" operator="arithmetic" k2="-1" k3="1"/>
<feColorMatrix type="matrix" values="0 0 0 0 0 0 0 0 0 0 0 0 0 0 0 0 0 0 0.25 0"/>
<feBlend mode="normal" in2="shape" result="effect1_innerShadow_18_1607"/>
</filter>
</defs>
</svg>
