<svg width="96" height="133" viewBox="0 0 96 133" fill="none" xmlns="http://www.w3.org/2000/svg">
<path d="M96 84.9768C96 121.955 74.5097 132.977 48 132.977C21.4903 132.977 0 121.599 0 84.9768C0 48.3546 48 -0.000976562 48 -0.000976562C48 -0.000976562 96 47.999 96 84.9768Z" fill="#000039"/>
<path d="M44.7861 59.4254L44.9781 54.1134H53.1061L52.9141 59.2334C54.6208 59.3188 56.2208 59.4681 57.7141 59.6814C59.2075 59.8521 60.5941 60.0441 61.8741 60.2574L60.0181 70.1774H50.4181C48.9248 70.1774 47.9221 70.4121 47.4101 70.8814C46.9408 71.3508 46.6848 72.2468 46.6421 73.5694L50.6741 74.0174C53.1061 74.2734 55.1541 74.7214 56.8181 75.3614C58.4821 76.0014 59.8048 76.8121 60.7861 77.7934C61.8101 78.7748 62.5355 79.9054 62.9621 81.1854C63.3888 82.4654 63.6021 83.8734 63.6021 85.4094C63.6021 87.7134 63.3888 89.7401 62.9621 91.4894C62.5781 93.2388 61.9168 94.7108 60.9781 95.9054C60.0395 97.1001 58.7808 98.0388 57.2021 98.7214C55.6235 99.4041 53.6608 99.8308 51.3141 100.001L51.1221 106.465H42.8661L43.1221 100.001C39.0688 99.6601 35.6341 99.1481 32.8181 98.4654L34.6741 88.2894C38.1301 89.2281 41.8421 89.6974 45.8101 89.6974C46.6208 89.6974 47.3888 89.6761 48.1141 89.6334C48.8821 89.5908 49.6288 89.5268 50.3541 89.4414V86.7534L46.3861 86.3054C43.8261 86.0494 41.7355 85.5588 40.1141 84.8334C38.4928 84.1081 37.2128 83.1908 36.2741 82.0814C35.3781 80.9294 34.7595 79.6281 34.4181 78.1774C34.0768 76.6841 33.9061 75.0628 33.9061 73.3134C33.9061 71.0094 34.1408 69.0468 34.6101 67.4254C35.1221 65.7614 35.8261 64.3748 36.7221 63.2654C37.6608 62.1561 38.8128 61.3028 40.1781 60.7054C41.5435 60.1081 43.0795 59.6814 44.7861 59.4254Z" fill="#FFAB31"/>
</svg>
