<svg width="115" height="101" viewBox="0 0 115 101" fill="none" xmlns="http://www.w3.org/2000/svg">
<g filter="url(#filter0_i_5_6)">
<path d="M100.547 37.3423C95.2647 57.0157 93.4904 60.4235 78.0935 50.7465C45.4236 30.2135 68.0924 33.0468 75.0427 23.5572C82.986 12.712 94.4618 7.34905 99.5588 10.0366C104.656 12.7241 102.59 29.7334 100.547 37.3423Z" fill="#F9A429"/>
</g>
<path d="M99.4169 37.039C98.0935 41.9679 97.008 45.8064 95.886 48.6706C94.7516 51.5664 93.6578 53.249 92.4463 54.0897C91.3291 54.865 89.9082 55.0548 87.6949 54.3819C85.4416 53.6968 82.5567 52.1699 78.716 49.7561C70.5526 44.6254 65.981 41.0331 63.7472 38.4116C62.6334 37.1044 62.1963 36.147 62.0965 35.4554C62.0061 34.8285 62.1746 34.2993 62.6216 33.7444C63.1024 33.1474 63.8807 32.558 64.9429 31.9185C65.7294 31.445 66.5999 30.9844 67.54 30.487C67.867 30.314 68.2025 30.1365 68.5458 29.9525C71.1284 28.5679 74.0742 26.8593 75.9865 24.2484C79.8597 18.9602 84.5807 15.0302 88.9116 12.758C91.0776 11.6216 93.114 10.9165 94.8724 10.6465C96.6427 10.3747 98.0369 10.5566 99.0132 11.0714C99.8166 11.495 100.539 12.6193 101.012 14.6343C101.471 16.5878 101.627 19.0918 101.561 21.8155C101.428 27.2559 100.416 33.3182 99.4169 37.039Z" stroke="#000072" stroke-width="2.33963"/>
<path d="M82.8298 47.5926L82.6921 47.5005L82.5284 47.4752C80.6028 47.1767 79.5038 46.2914 78.9072 45.1076C78.2866 43.8765 78.1574 42.2176 78.4266 40.3183C78.9647 36.5227 81.0395 32.1442 83.0228 29.3675C85.2911 26.192 88.003 23.798 90.459 22.3835C91.6879 21.6758 92.8305 21.2261 93.8037 21.0351C94.787 20.8422 95.5233 20.9265 96.0125 21.1844C96.3842 21.3804 96.7596 21.9651 96.9848 23.1453C97.2 24.273 97.237 25.7318 97.1451 27.3276C96.9615 30.5135 96.2746 34.0824 95.6423 36.2811C94.8052 39.1915 94.0618 41.7083 93.2828 43.7693C92.4999 45.8408 91.7083 47.3749 90.8092 48.3669C89.9412 49.3247 88.9897 49.7634 87.7972 49.6987C86.5459 49.6309 84.9418 49.0044 82.8298 47.5926Z" fill="#FF7E7E" stroke="#000072" stroke-width="1.49719"/>
<g filter="url(#filter1_i_5_6)">
<path d="M14.4533 37.3423C19.7353 57.0157 21.5096 60.4235 36.9065 50.7465C69.5764 30.2135 46.9076 33.0468 39.9573 23.5572C32.014 12.712 20.5382 7.34905 15.4412 10.0366C10.3442 12.7241 12.4105 29.7334 14.4533 37.3423Z" fill="#F9A429"/>
</g>
<path d="M15.5831 37.039C16.9065 41.9679 17.992 45.8064 19.114 48.6706C20.2484 51.5664 21.3422 53.249 22.5537 54.0897C23.6709 54.865 25.0918 55.0548 27.3051 54.3819C29.5584 53.6968 32.4433 52.1699 36.284 49.7561C44.4474 44.6254 49.019 41.0331 51.2528 38.4116C52.3666 37.1044 52.8037 36.147 52.9035 35.4554C52.9939 34.8285 52.8254 34.2993 52.3784 33.7444C51.8976 33.1474 51.1193 32.558 50.0571 31.9185C49.2706 31.445 48.4001 30.9844 47.46 30.487C47.133 30.314 46.7975 30.1365 46.4542 29.9525C43.8716 28.5679 40.9258 26.8593 39.0135 24.2484C35.1403 18.9602 30.4193 15.0302 26.0884 12.758C23.9224 11.6216 21.886 10.9165 20.1276 10.6465C18.3573 10.3747 16.9631 10.5566 15.9868 11.0714C15.1834 11.495 14.4613 12.6193 13.9881 14.6343C13.5294 16.5878 13.373 19.0918 13.4393 21.8155C13.5717 27.2559 14.5842 33.3182 15.5831 37.039Z" stroke="#000072" stroke-width="2.33963"/>
<path d="M32.1702 47.5926L32.3079 47.5005L32.4716 47.4752C34.3972 47.1767 35.4962 46.2914 36.0928 45.1076C36.7134 43.8765 36.8426 42.2176 36.5734 40.3183C36.0353 36.5227 33.9605 32.1442 31.9772 29.3675C29.7089 26.192 26.997 23.798 24.541 22.3835C23.3121 21.6758 22.1695 21.2261 21.1963 21.0351C20.213 20.8422 19.4767 20.9265 18.9875 21.1844C18.6158 21.3804 18.2404 21.9651 18.0152 23.1453C17.8 24.273 17.763 25.7318 17.8549 27.3276C18.0385 30.5135 18.7254 34.0824 19.3577 36.2811C20.1948 39.1915 20.9382 41.7083 21.7172 43.7693C22.5001 45.8408 23.2917 47.3749 24.1908 48.3669C25.0588 49.3247 26.0103 49.7634 27.2028 49.6987C28.4541 49.6309 30.0582 49.0044 32.1702 47.5926Z" fill="#FF7E7E" stroke="#000072" stroke-width="1.49719"/>
<g filter="url(#filter2_i_5_6)">
<path d="M96.2059 72.1825C97.5138 64.7463 94.398 59.8215 91.9248 57.5771C91.2287 56.9455 90.7387 56.0854 90.6993 55.1462C89.9777 37.9165 76.9608 24.1324 59.5527 23.7109H54.0777C36.6628 24.1324 24.9227 37.9165 24.2732 55.1462C24.2378 56.0855 23.7471 56.9455 23.051 57.5771C20.5778 59.8215 17.4619 64.7463 18.7699 72.1825C20.3029 80.8983 27.9861 86.164 31.6361 87.7074C35.2861 89.2509 43.7813 90.695 57.5656 90.8397C71.35 90.9844 79.6896 89.2509 83.3396 87.7074C86.9896 86.164 94.6729 80.8983 96.2059 72.1825Z" fill="#F9A429"/>
</g>
<path d="M91.3745 58.1835C93.6702 60.2666 96.652 64.9196 95.3995 72.0406C94.6694 76.1915 92.471 79.5432 89.9843 82.059C87.4932 84.5794 84.7502 86.2221 83.0208 86.9533C79.5219 88.4329 71.3129 90.1652 57.5742 90.021C43.8002 89.8764 35.4457 88.4294 31.955 86.9533C30.2256 86.2221 27.4825 84.5794 24.9914 82.059C22.5048 79.5432 20.3063 76.1915 19.5762 72.0406C18.3237 64.9196 21.3056 60.2666 23.6012 58.1835C24.4196 57.4408 25.0458 56.3859 25.0914 55.177C25.7273 38.3074 37.1821 24.9439 54.0876 24.5297H59.5427C76.4843 24.9449 89.1766 38.3537 89.8813 55.1805C89.9318 56.3863 90.5555 57.4402 91.3745 58.1835Z" stroke="#000072" stroke-width="1.63749"/>
<g filter="url(#filter3_i_5_6)">
<path d="M72.5625 63.6794C87.2721 61.0297 99.2963 57.6575 93.5094 75.018C90.2344 84.8429 78.772 90.5742 57.2116 89.3215V56.4619C64.5803 56.4597 59.1979 66.0869 72.5625 63.6794Z" fill="white"/>
</g>
<g filter="url(#filter4_i_5_6)">
<path d="M42.3399 63.6794C27.6302 61.0297 15.6061 57.6575 21.3929 75.018C24.6679 84.8429 36.1303 90.5742 57.6907 89.3215V56.4619C50.322 56.4597 55.7044 66.0869 42.3399 63.6794Z" fill="white"/>
</g>
<ellipse cx="86.8137" cy="67.8857" rx="6.44896" ry="4.09335" transform="rotate(-9.43014 86.8137 67.8857)" fill="#FF7E7E"/>
<ellipse cx="6.44896" cy="4.09335" rx="6.44896" ry="4.09335" transform="matrix(-0.986486 -0.163845 -0.163845 0.986486 35.0703 64.9043)" fill="#FF7E7E"/>
<path d="M71.1221 42.1025C71.1221 43.7717 65.6799 45.1248 64.0107 45.1248C62.3414 45.1248 60.9883 43.7717 60.9883 42.1025C60.9883 40.4332 62.3414 39.0801 64.0107 39.0801C65.6799 39.0801 71.1221 40.4332 71.1221 42.1025Z" fill="white"/>
<path d="M43.7919 42.1298C43.7919 43.799 49.2342 45.1522 50.9034 45.1522C52.5726 45.1522 53.9258 43.799 53.9258 42.1298C53.9258 40.4606 52.5726 39.1074 50.9034 39.1074C49.2342 39.1074 43.7919 40.4606 43.7919 42.1298Z" fill="white"/>
<path d="M61.8632 68.4202C61.8632 78.1636 59.0524 77.4529 57.5381 77.4529C56.0239 77.4529 53.0586 78.1636 53.0586 68.4202C53.0586 65.3844 54.7404 61.692 55.1825 58.0467C56.1594 49.9925 56.4957 42.1689 57.5381 42.1689C58.5806 42.1689 58.9238 49.9925 59.8551 58.0467C60.2766 61.692 61.8632 65.3844 61.8632 68.4202Z" fill="white"/>
<path d="M62.8568 78.102C62.8568 80.6171 62.0702 82.8911 60.9971 84.5284C60.4606 85.347 59.8596 85.9955 59.262 86.4354C58.6606 86.8781 58.0906 87.0899 57.6065 87.0899C57.2388 87.0899 56.7235 86.891 56.1279 86.4393C55.5432 85.9958 54.9265 85.3424 54.3635 84.5207C53.2371 82.8769 52.3562 80.6048 52.3562 78.102C52.3562 77.3562 52.2705 76.7154 52.2021 76.2033C52.1851 76.0767 52.1692 75.9579 52.156 75.8473C52.0834 75.2428 52.1068 74.9737 52.2255 74.8031C52.3395 74.6392 52.637 74.4416 53.5213 74.3086C54.3813 74.1792 55.6738 74.126 57.6065 74.126C59.5392 74.126 60.8317 74.1792 61.6917 74.3086C62.5759 74.4416 62.8735 74.6392 62.9876 74.8031C63.1063 74.9737 63.1297 75.2428 63.0571 75.8473C63.0438 75.9579 63.0279 76.0767 63.011 76.2034C62.9425 76.7154 62.8568 77.3562 62.8568 78.102Z" fill="#000072" stroke="#000072" stroke-width="0.892723"/>
<circle cx="49.3733" cy="71.6145" r="7.58815" fill="white"/>
<ellipse cx="65.1821" cy="71.2094" rx="7.56884" ry="7.4916" fill="white"/>
<path d="M57.5781 71.1104C57.5781 75.3012 60.9755 78.6985 65.1663 78.6985C66.376 78.7373 69.3892 78.419 71.7647 76.8354" stroke="#000072" stroke-width="2.08529" stroke-linecap="round"/>
<ellipse cx="7.60745" cy="7.4916" rx="7.60745" ry="7.4916" transform="matrix(-1 4.48695e-09 4.48695e-09 1 57.6133 63.7939)" fill="white"/>
<path d="M57.5781 71.1104C57.5781 75.3012 54.1808 78.6985 49.99 78.6985C48.7803 78.7373 45.767 78.419 43.3916 76.8354" stroke="#000072" stroke-width="2.08529" stroke-linecap="round"/>
<mask id="path-22-outside-1_5_6" maskUnits="userSpaceOnUse" x="53.2773" y="75.9346" width="9" height="11" fill="black">
<rect fill="white" x="53.2773" y="75.9346" width="9" height="11"/>
<path fill-rule="evenodd" clip-rule="evenodd" d="M54.7605 77.6285C55.0836 77.2065 55.5912 76.9346 56.162 76.9346C56.7403 76.9346 57.2537 77.2137 57.5761 77.6453C57.8986 77.2137 58.412 76.9346 58.9903 76.9346C59.797 76.9346 60.4775 77.4778 60.6894 78.2201C60.9621 78.9176 60.8742 80.1063 60.8061 81.027C60.7807 81.3715 60.758 81.6784 60.758 81.9081C60.758 83.4779 58.9432 86.1717 57.5766 86.1717C56.21 86.1717 54.3952 83.4779 54.3952 81.9081C54.3952 81.6813 54.3731 81.3718 54.348 81.021C54.2619 79.8173 54.1411 78.1276 54.7605 77.6285Z"/>
</mask>
<path fill-rule="evenodd" clip-rule="evenodd" d="M54.7605 77.6285C55.0836 77.2065 55.5912 76.9346 56.162 76.9346C56.7403 76.9346 57.2537 77.2137 57.5761 77.6453C57.8986 77.2137 58.412 76.9346 58.9903 76.9346C59.797 76.9346 60.4775 77.4778 60.6894 78.2201C60.9621 78.9176 60.8742 80.1063 60.8061 81.027C60.7807 81.3715 60.758 81.6784 60.758 81.9081C60.758 83.4779 58.9432 86.1717 57.5766 86.1717C56.21 86.1717 54.3952 83.4779 54.3952 81.9081C54.3952 81.6813 54.3731 81.3718 54.348 81.021C54.2619 79.8173 54.1411 78.1276 54.7605 77.6285Z" fill="#FC6A6C"/>
<path d="M54.7605 77.6285L55.2286 78.2095L55.2984 78.1533L55.3529 78.0821L54.7605 77.6285ZM57.5761 77.6453L56.9784 78.0919L57.5761 78.8919L58.1739 78.0919L57.5761 77.6453ZM60.6894 78.2201L59.9719 78.4249L59.9816 78.4589L59.9945 78.4918L60.6894 78.2201ZM60.8061 81.027L60.062 80.972L60.062 80.972L60.8061 81.027ZM54.348 81.021L55.0922 80.9678L54.348 81.021ZM55.3529 78.0821C55.5415 77.8358 55.8341 77.6807 56.162 77.6807L56.162 76.1884C55.3483 76.1884 54.6258 76.5772 54.1681 77.1749L55.3529 78.0821ZM56.162 77.6807C56.4941 77.6807 56.7902 77.84 56.9784 78.0919L58.1739 77.1987C57.7172 76.5875 56.9865 76.1884 56.162 76.1884L56.162 77.6807ZM58.1739 78.0919C58.3621 77.84 58.6582 77.6807 58.9903 77.6807L58.9903 76.1884C58.1658 76.1884 57.4351 76.5875 56.9784 77.1987L58.1739 78.0919ZM58.9903 77.6807C59.4528 77.6807 59.8484 77.9922 59.9719 78.4249L61.4069 78.0153C61.1065 76.9633 60.1412 76.1884 58.9903 76.1884L58.9903 77.6807ZM59.9945 78.4918C60.0789 78.7077 60.126 79.0651 60.1295 79.5452C60.1328 80.0093 60.0965 80.5063 60.062 80.972L61.5502 81.0821C61.5839 80.6271 61.6255 80.0693 61.6217 79.5345C61.6179 79.0157 61.5726 78.43 61.3843 77.9484L59.9945 78.4918ZM60.062 80.972C60.0374 81.3054 60.0118 81.6444 60.0118 81.9081L61.5041 81.9081C61.5041 81.7124 61.5239 81.4376 61.5502 81.0821L60.062 80.972ZM60.0118 81.9081C60.0118 82.4692 59.6567 83.3815 59.0737 84.1933C58.7922 84.5854 58.4863 84.9123 58.197 85.1335C57.8947 85.3647 57.6839 85.4255 57.5766 85.4255L57.5766 86.9178C58.1526 86.9178 58.6811 86.6419 59.1034 86.3189C59.5387 85.9861 59.9428 85.5414 60.2858 85.0638C60.9518 84.1363 61.5041 82.9168 61.5041 81.9081L60.0118 81.9081ZM57.5766 85.4255C57.4693 85.4255 57.2585 85.3647 56.9562 85.1335C56.6668 84.9123 56.361 84.5854 56.0795 84.1933C55.4965 83.3815 55.1413 82.4692 55.1413 81.9081L53.6491 81.9081C53.6491 82.9168 54.2013 84.1363 54.8674 85.0638C55.2104 85.5414 55.6145 85.9861 56.0497 86.3189C56.4721 86.6419 57.0006 86.9178 57.5766 86.9178L57.5766 85.4255ZM55.1413 81.9081C55.1413 81.6483 55.1165 81.3074 55.0922 80.9678L53.6038 81.0742C53.6297 81.4362 53.6491 81.7143 53.6491 81.9081L55.1413 81.9081ZM55.0922 80.9678C55.0484 80.3552 55.0014 79.6817 55.0346 79.1033C55.0511 78.8151 55.0862 78.584 55.1371 78.4148C55.1906 78.2372 55.2395 78.2007 55.2286 78.2095L54.2923 77.0476C53.9718 77.3059 53.8035 77.6678 53.7081 77.985C53.6102 78.3106 53.5647 78.6707 53.5448 79.0178C53.5051 79.7099 53.5615 80.483 53.6038 81.0742L55.0922 80.9678Z" fill="#000072" mask="url(#path-22-outside-1_5_6)"/>
<path d="M66.1558 69.0382C66.1558 72.3179 62.3154 72.3374 57.5779 72.3374C52.8405 72.3374 49 72.3179 49 69.0382C49 65.7584 52.8405 63.0996 57.5779 63.0996C62.3154 63.0996 66.1558 65.7584 66.1558 69.0382Z" fill="#000072"/>
<path d="M62.1987 66.0685C62.1987 66.6152 60.1307 65.7386 57.5798 65.7386C55.0289 65.7386 52.9609 66.6152 52.9609 66.0685C52.9609 65.5219 55.0289 64.4189 57.5798 64.4189C60.1307 64.4189 62.1987 65.5219 62.1987 66.0685Z" fill="#A5A5F8"/>
<path d="M34.162 90.8084C34.162 95.7272 29.4272 99.9463 23.2771 99.9463C17.1269 99.9463 12.3921 95.7272 12.3921 90.8084C12.3921 85.8896 17.1269 81.6705 23.2771 81.6705C29.4272 81.6705 34.162 85.8896 34.162 90.8084Z" fill="white" stroke="#000072" stroke-width="1.76863"/>
<path d="M28.6049 98.4722L27.4258 93.7559" stroke="#000072" stroke-width="1.76863" stroke-linecap="round"/>
<path d="M22.7103 99.0611L21.5312 94.3447" stroke="#000072" stroke-width="1.76863" stroke-linecap="round"/>
<path d="M80.7794 90.8084C80.7794 95.7272 85.5142 99.9463 91.6643 99.9463C97.8145 99.9463 102.549 95.7272 102.549 90.8084C102.549 85.8896 97.8145 81.6705 91.6643 81.6705C85.5142 81.6705 80.7794 85.8896 80.7794 90.8084Z" fill="white" stroke="#000072" stroke-width="1.76863"/>
<path d="M86.3365 98.4722L87.5156 93.7559" stroke="#000072" stroke-width="1.76863" stroke-linecap="round"/>
<path d="M92.2311 99.0611L93.4102 94.3447" stroke="#000072" stroke-width="1.76863" stroke-linecap="round"/>
<path d="M85.3171 58.8959C85.3171 65.3185 80.1105 61.8611 73.6879 61.8611C67.2652 61.8611 62.0586 65.3185 62.0586 58.8959C62.0586 52.4732 67.2652 47.2666 73.6879 47.2666C80.1105 47.2666 85.3171 52.4732 85.3171 58.8959Z" fill="#000072"/>
<path d="M83.641 58.3879C83.641 63.8903 79.1804 60.9283 73.6779 60.9283C68.1755 60.9283 63.7148 63.8903 63.7148 58.3879C63.7148 52.8854 68.1755 48.4248 73.6779 48.4248C79.1804 48.4248 83.641 52.8854 83.641 58.3879Z" fill="white"/>
<ellipse cx="74.359" cy="58.6596" rx="6.1057" ry="5.60728" transform="rotate(-16.9666 74.359 58.6596)" fill="#000072"/>
<circle cx="78.2243" cy="54.1245" r="3.39036" transform="rotate(-16.9666 78.2243 54.1245)" fill="white"/>
<path d="M52.9148 58.8959C52.9148 65.3185 47.7082 61.8611 41.2855 61.8611C34.8629 61.8611 29.6562 65.3185 29.6562 58.8959C29.6562 52.4732 34.8629 47.2666 41.2855 47.2666C47.7082 47.2666 52.9148 52.4732 52.9148 58.8959Z" fill="#000072"/>
<path d="M51.2464 58.3879C51.2464 63.8903 46.7858 60.9283 41.2834 60.9283C35.7809 60.9283 31.3203 63.8903 31.3203 58.3879C31.3203 52.8854 35.7809 48.4248 41.2834 48.4248C46.7858 48.4248 51.2464 52.8854 51.2464 58.3879Z" fill="white"/>
<ellipse cx="41.9606" cy="58.6596" rx="6.1057" ry="5.60728" transform="rotate(-16.9666 41.9606 58.6596)" fill="#000072"/>
<circle cx="46.7126" cy="54.8198" r="3.39036" transform="rotate(-16.9666 46.7126 54.8198)" fill="white"/>
<defs>
<filter id="filter0_i_5_6" x="60.9023" y="9.35156" width="41.8438" height="46.6113" filterUnits="userSpaceOnUse" color-interpolation-filters="sRGB">
<feFlood flood-opacity="0" result="BackgroundImageFix"/>
<feBlend mode="normal" in="SourceGraphic" in2="BackgroundImageFix" result="shape"/>
<feColorMatrix in="SourceAlpha" type="matrix" values="0 0 0 0 0 0 0 0 0 0 0 0 0 0 0 0 0 0 127 0" result="hardAlpha"/>
<feOffset dy="5.56078"/>
<feComposite in2="hardAlpha" operator="arithmetic" k2="-1" k3="1"/>
<feColorMatrix type="matrix" values="0 0 0 0 1 0 0 0 0 1 0 0 0 0 1 0 0 0 0.5 0"/>
<feBlend mode="normal" in2="shape" result="effect1_innerShadow_5_6"/>
</filter>
<filter id="filter1_i_5_6" x="12.2539" y="9.35156" width="41.8438" height="46.6113" filterUnits="userSpaceOnUse" color-interpolation-filters="sRGB">
<feFlood flood-opacity="0" result="BackgroundImageFix"/>
<feBlend mode="normal" in="SourceGraphic" in2="BackgroundImageFix" result="shape"/>
<feColorMatrix in="SourceAlpha" type="matrix" values="0 0 0 0 0 0 0 0 0 0 0 0 0 0 0 0 0 0 127 0" result="hardAlpha"/>
<feOffset dy="5.56078"/>
<feComposite in2="hardAlpha" operator="arithmetic" k2="-1" k3="1"/>
<feColorMatrix type="matrix" values="0 0 0 0 1 0 0 0 0 1 0 0 0 0 1 0 0 0 0.5 0"/>
<feBlend mode="normal" in2="shape" result="effect1_innerShadow_5_6"/>
</filter>
<filter id="filter2_i_5_6" x="18.4609" y="23.7109" width="78.0547" height="67.1377" filterUnits="userSpaceOnUse" color-interpolation-filters="sRGB">
<feFlood flood-opacity="0" result="BackgroundImageFix"/>
<feBlend mode="normal" in="SourceGraphic" in2="BackgroundImageFix" result="shape"/>
<feColorMatrix in="SourceAlpha" type="matrix" values="0 0 0 0 0 0 0 0 0 0 0 0 0 0 0 0 0 0 127 0" result="hardAlpha"/>
<feOffset dy="3.08932"/>
<feComposite in2="hardAlpha" operator="arithmetic" k2="-1" k3="1"/>
<feColorMatrix type="matrix" values="0 0 0 0 1 0 0 0 0 1 0 0 0 0 1 0 0 0 0.5 0"/>
<feBlend mode="normal" in2="shape" result="effect1_innerShadow_5_6"/>
</filter>
<filter id="filter3_i_5_6" x="57.2109" y="56.4619" width="37.7812" height="33.0303" filterUnits="userSpaceOnUse" color-interpolation-filters="sRGB">
<feFlood flood-opacity="0" result="BackgroundImageFix"/>
<feBlend mode="normal" in="SourceGraphic" in2="BackgroundImageFix" result="shape"/>
<feColorMatrix in="SourceAlpha" type="matrix" values="0 0 0 0 0 0 0 0 0 0 0 0 0 0 0 0 0 0 127 0" result="hardAlpha"/>
<feOffset dy="-0.849563"/>
<feComposite in2="hardAlpha" operator="arithmetic" k2="-1" k3="1"/>
<feColorMatrix type="matrix" values="0 0 0 0 0 0 0 0 0 0 0 0 0 0 0 0 0 0 0.25 0"/>
<feBlend mode="normal" in2="shape" result="effect1_innerShadow_5_6"/>
</filter>
<filter id="filter4_i_5_6" x="19.9102" y="56.4619" width="37.7812" height="33.0303" filterUnits="userSpaceOnUse" color-interpolation-filters="sRGB">
<feFlood flood-opacity="0" result="BackgroundImageFix"/>
<feBlend mode="normal" in="SourceGraphic" in2="BackgroundImageFix" result="shape"/>
<feColorMatrix in="SourceAlpha" type="matrix" values="0 0 0 0 0 0 0 0 0 0 0 0 0 0 0 0 0 0 127 0" result="hardAlpha"/>
<feOffset dy="-0.849563"/>
<feComposite in2="hardAlpha" operator="arithmetic" k2="-1" k3="1"/>
<feColorMatrix type="matrix" values="0 0 0 0 0 0 0 0 0 0 0 0 0 0 0 0 0 0 0.25 0"/>
<feBlend mode="normal" in2="shape" result="effect1_innerShadow_5_6"/>
</filter>
</defs>
</svg>
