<svg width="135" height="129" viewBox="0 0 135 129" fill="none" xmlns="http://www.w3.org/2000/svg">
<path d="M74.1322 7.3417C72.8248 7.14875 71.49 7.28002 70.2452 7.72397C69.0004 8.16792 67.8836 8.91097 66.9931 9.88778L37.2633 40.6884C36.5646 41.4289 35.7289 42.0268 34.8027 42.4492L11.6046 53.0283C9.65764 53.9162 8.14299 55.5414 7.3939 57.5464C6.6448 59.5514 6.72262 61.772 7.61023 63.7196L7.87797 64.3071L0.536816 67.6549L8.56902 85.2793L15.9102 81.9315L16.2582 82.6952C17.1779 84.5912 18.8023 86.0521 20.7845 86.7658C22.7666 87.4795 24.9492 87.3894 26.8658 86.5147L44.1893 101.179C45.3592 102.165 46.7834 102.801 48.2982 103.014C49.8131 103.227 51.3573 103.008 52.7535 102.383L56.4534 100.695C58.3832 99.7965 59.8796 98.1713 60.6168 96.1738C61.354 94.1762 61.2722 91.9682 60.3891 90.0307L53.6153 75.1675L95.8287 73.1594C96.8664 73.1085 97.8849 72.8608 98.83 72.4294C100.286 71.737 101.509 70.6367 102.352 69.2622C103.021 68.1692 103.419 66.9328 103.516 65.655C103.612 64.3773 103.402 63.095 102.905 61.9143L80.12 11.9197C79.5698 10.7267 78.7368 9.68615 77.6933 8.88834C76.6498 8.09053 75.4274 7.55961 74.1322 7.3417ZM34.0384 51.6674L42.6864 70.6431L23.5994 79.3474L14.9514 60.3718L34.0384 51.6674ZM53.0479 93.3786L49.348 95.0659L35.0292 82.7919L45.9528 77.8103L53.0479 93.3786ZM52.6021 67.1855C51.7424 67.147 50.8809 67.1838 50.0276 67.2952L41.1921 47.9084C41.8638 47.4172 42.4923 46.8695 43.0706 46.2712L72.7789 15.2675L95.4832 65.0859L52.6021 67.1855ZM88.3016 29.405L94.9951 44.092C96.9421 43.2041 98.4568 41.5789 99.2059 39.5739C99.955 37.5689 99.8772 35.3483 98.9895 33.4007C98.1019 31.4531 96.4772 29.938 94.4729 29.1886C92.4685 28.4393 90.2486 28.5171 88.3016 29.405Z" fill="#000039"/>
<path d="M52.6021 67.1855C51.7424 67.147 50.8809 67.1838 50.0276 67.2952L41.1921 47.9084C41.8638 47.4172 42.4923 46.8695 43.0706 46.2712L72.7789 15.2675L95.4832 65.0859L52.6021 67.1855Z" fill="#000072"/>
<path d="M34.0384 51.6674L42.6864 70.6431L23.5994 79.3474L14.9514 60.3718L34.0384 51.6674Z" fill="#000072"/>
<path d="M53.0479 93.3786L49.348 95.0659L35.0292 82.7919L45.9528 77.8103L53.0479 93.3786Z" fill="#000072"/>
<path d="M41.6791 83.4101C49.9169 80.0623 60.2036 85.121 64.3872 95.4219C68.5708 105.723 64.7256 116.525 56.4878 119.872C48.2501 123.22 37.9634 118.162 33.7798 107.861C29.5962 97.5598 33.4413 86.758 41.6791 83.4101Z" fill="white" stroke="#000072" stroke-width="3.19727"/>
<path d="M58.2958 87.5026L51.1992 92.6875" stroke="#000072" stroke-width="3.19727" stroke-linecap="round"/>
<path d="M63.288 96.9743L56.1914 102.159" stroke="#000072" stroke-width="3.19727" stroke-linecap="round"/>
<path d="M117.342 55.6314C130.97 48.6645 136.371 31.9685 129.404 18.3399C122.437 4.71127 105.741 -0.68913 92.1123 6.27776" stroke="#000072" stroke-width="3.15421" stroke-linecap="round"/>
<path d="M112.65 50.2296C122.696 45.0936 126.678 32.7854 121.542 22.7385C116.406 12.6915 104.098 8.71039 94.0506 13.8464" stroke="#000072" stroke-width="3.15421" stroke-linecap="round"/>
<path d="M126.303 39.3658L127.285 43.6516C127.395 44.1293 127.774 44.4982 128.255 44.594L132.554 45.4503C133.221 45.5833 133.221 46.5376 132.554 46.6705L128.255 47.5269C127.774 47.6227 127.395 47.9916 127.285 48.4693L126.303 52.7551C126.155 53.3992 125.238 53.3992 125.09 52.7551L124.108 48.4693C123.998 47.9916 123.618 47.6227 123.138 47.5269L118.839 46.6705C118.172 46.5376 118.172 45.5833 118.839 45.4503L123.138 44.594C123.618 44.4982 123.998 44.1293 124.108 43.6516L125.09 39.3658C125.238 38.7217 126.155 38.7217 126.303 39.3658Z" fill="#FFE500" stroke="#000039" stroke-width="0.622316"/>
<path d="M128.146 13.5914L128.767 16.2995C128.836 16.6013 129.076 16.8344 129.38 16.8949L132.096 17.4361C132.518 17.5201 132.518 18.1231 132.096 18.2071L129.38 18.7482C129.076 18.8087 128.836 19.0418 128.767 19.3437L128.146 22.0518C128.053 22.4588 127.473 22.4588 127.38 22.0518L126.759 19.3437C126.69 19.0418 126.45 18.8087 126.146 18.7482L123.43 18.2071C123.008 18.1231 123.008 17.5201 123.43 17.4361L126.146 16.8949C126.45 16.8344 126.69 16.6013 126.759 16.2995L127.38 13.5914C127.473 13.1844 128.053 13.1844 128.146 13.5914Z" fill="#FFE500" stroke="#000039" stroke-width="0.393229"/>
<path d="M102.444 1.55277L103.282 5.20875C103.375 5.61624 103.699 5.93096 104.109 6.01264L107.776 6.74317C108.346 6.85658 108.346 7.67065 107.776 7.78406L104.109 8.51459C103.699 8.59626 103.375 8.91098 103.282 9.31848L102.444 12.9745C102.318 13.5239 101.535 13.5239 101.409 12.9745L100.571 9.31848C100.478 8.91098 100.154 8.59626 99.7439 8.51459L96.0767 7.78406C95.5074 7.67065 95.5074 6.85658 96.0767 6.74317L99.7439 6.01264C100.154 5.93096 100.478 5.61624 100.571 5.20875L101.409 1.55277C101.535 1.0033 102.318 1.0033 102.444 1.55277Z" fill="#FFE500" stroke="#000039" stroke-width="0.530868"/>
</svg>
