<svg width="106" height="105" viewBox="0 0 106 105" fill="none" xmlns="http://www.w3.org/2000/svg">
<path d="M51.9678 -0.0078125C52.6976 -0.0078125 53.4274 -0.0078125 54.1572 -0.0078125C54.4398 0.062815 54.7223 0.180528 55.0048 0.180528C58.3007 0.180528 61.526 0.722006 64.7278 1.42828C69.4834 2.48769 74.0036 4.2063 78.2648 6.56054C82.0786 8.65583 85.61 11.1984 88.7883 14.1883C94.2972 19.3441 98.5348 25.3945 101.431 32.3631C102.914 35.8945 104.091 39.52 104.632 43.3339C105.033 46.1826 105.409 49.0783 105.48 51.9505C105.598 57.0121 104.891 62.0031 103.502 66.8529C101.925 72.3618 99.5236 77.4941 96.2512 82.2261C93.5909 86.0871 90.4598 89.5478 86.9049 92.5613C83.6089 95.3628 80.0069 97.7171 76.1459 99.624C73.1325 101.107 69.9778 102.284 66.7054 103.155C62.7267 104.238 58.6774 104.78 54.581 104.968C50.9319 105.133 47.3064 104.756 43.7044 104.121C38.6663 103.226 33.8636 101.602 29.2728 99.2473C23.0341 96.0455 17.6428 91.8079 13.0991 86.4638C9.56777 82.2967 6.74267 77.7295 4.64738 72.6914C2.26959 66.9941 0.92767 61.0614 0.668703 54.8697C0.64516 54.5872 0.574534 54.2812 0.503906 53.9987C0.503906 53.0334 0.503906 52.0917 0.503906 51.1265C0.598076 50.0435 0.715789 48.9606 0.809959 47.8776C1.23372 43.0985 2.29314 38.4606 3.9882 33.964C6.41307 27.584 9.94444 21.9102 14.5588 16.8957C18.9612 12.1166 24.117 8.27914 29.932 5.40696C32.9219 3.92378 36.0531 2.74666 39.3019 1.92267C43.1394 0.933887 47.0239 0.204069 51.0026 0.156984C51.3321 0.180527 51.6617 0.062815 51.9678 -0.0078125ZM51.0026 88.818C53.0978 88.6768 55.1931 88.6532 57.2649 88.3707C62.4913 87.688 67.4588 86.1106 72.2379 83.8976C78.3354 81.0725 83.8679 77.3999 88.5293 72.5031C91.8959 68.9481 94.5326 64.9695 95.9216 60.2374C96.5102 58.2599 96.4631 56.4 94.9799 54.7991C93.9441 53.6926 92.6257 53.1982 91.119 53.1982C88.3409 53.1982 85.5629 53.1982 82.7849 53.2218C82.1493 53.2218 81.9374 53.0334 81.9138 52.3507C81.8903 51.1971 81.7726 50.0435 81.6313 48.8899C81.2311 45.2879 80.1952 41.8507 78.6414 38.5783C76.7345 34.5526 74.1213 31.0683 70.8724 28.0548C67.9767 25.3475 64.6807 23.2051 61.0317 21.6513C56.488 19.7208 51.7088 18.7556 46.7414 18.8262C43.469 18.8733 40.2436 19.297 37.1125 20.2387C32.8513 21.4865 28.9432 23.4876 25.4354 26.2656C20.6798 30.0089 17.1014 34.6232 14.7942 40.2028C12.3458 46.1355 11.5689 52.3036 12.6989 58.6601C13.9231 65.4874 17.1484 71.3259 21.8805 76.3405C26.589 81.3315 32.2156 84.9335 38.7605 87.0288C42.7862 88.253 46.8355 88.8651 51.0026 88.818Z" fill="#000039"/>
<path d="M49.2853 50.4429C49.2853 51.6435 49.2853 52.8677 49.2853 54.0684C49.2617 56.611 47.2371 58.6356 44.718 58.6356C42.1754 58.6356 40.1037 56.5874 40.0802 54.0449C40.0566 51.5964 40.0566 49.1716 40.0802 46.7231C40.1037 44.3454 42.1048 42.2265 44.3649 42.1559C46.9781 42.0617 49.0734 43.851 49.2146 46.3935C49.2853 47.7355 49.2382 49.0774 49.2382 50.4193C49.2853 50.4429 49.2853 50.4429 49.2853 50.4429Z" fill="#000039"/>
<path d="M23.9284 50.3971C23.9284 49.1729 23.9284 47.9251 23.9284 46.7009C23.952 44.1583 25.9295 42.1572 28.4015 42.1572C31.0147 42.1572 33.0158 44.0877 33.0394 46.6774C33.0629 49.1729 33.0629 51.6449 33.0394 54.1404C33.0158 56.3769 31.5327 58.072 29.249 58.5899C27.3892 58.9901 25.1997 57.8836 24.3522 56.0002C24.1168 55.4587 23.9755 54.8231 23.9284 54.2345C23.9049 52.9632 23.9284 51.6919 23.9284 50.3971Z" fill="#000039"/>
</svg>
