<svg width="90" height="104" viewBox="0 0 90 104" fill="none" xmlns="http://www.w3.org/2000/svg">
<path d="M84.6639 39.1778V75.0359L44.9839 98.0634L5.28797 75.0359V28.9808L45 5.92118L75.4946 23.6334L80.1033 20.9678L45 0.589844L0.695312 26.2991V77.7015L45 103.411L89.3047 77.7015V36.5121L84.6639 39.1778Z" fill="#000039"/>
<path d="M33.886 75.0676H27.2539V52.6824H49.3822C51.4697 52.6663 53.477 51.8152 54.9544 50.3058C56.4317 48.8123 57.2507 46.789 57.2668 44.6854C57.2828 43.6416 57.0741 42.6139 56.6726 41.6504C56.2711 40.6869 55.677 39.8197 54.9383 39.0971C54.2157 38.3584 53.3486 37.7643 52.4011 37.3628C51.4537 36.9614 50.426 36.7526 49.3822 36.7687H27.2539V29.96H49.3982C53.2683 29.976 56.9938 31.5497 59.7237 34.2957C62.4696 37.0577 64.0112 40.7832 64.0433 44.6854C64.0594 47.6722 63.1601 50.5787 61.458 53.0196C59.8843 55.348 57.6682 57.1787 55.0828 58.2706C52.5135 59.0896 49.8479 59.4911 47.1661 59.475H33.886V75.0676Z" fill="#000039"/>
<path d="M63.8895 74.5046H56.1494L50.1758 64.0347C52.5363 63.8901 54.8648 63.4084 57.0969 62.6055L63.8895 74.5046Z" fill="#000039"/>
<path d="M80.0391 31.7257L84.6157 34.279L89.1923 31.7257V26.3141L84.6157 23.6484L80.0391 26.3141V31.7257Z" fill="#000039"/>
</svg>
