<svg width="40" height="46" viewBox="0 0 40 46" fill="none" xmlns="http://www.w3.org/2000/svg">
<path d="M37.382 17.179V33.1426L19.7169 43.3943L2.04461 33.1426V12.6394L19.724 2.37346L33.2999 10.2588L35.3517 9.07205L19.724 0L0 11.4455V34.3294L19.724 45.7749L39.448 34.3294V15.9923L37.382 17.179Z" fill="#000039"/>
<path d="M14.7767 33.1567H11.8242V23.191H21.6755C22.6049 23.1838 23.4985 22.8049 24.1562 22.1329C24.8139 21.4681 25.1785 20.5673 25.1856 19.6308C25.1928 19.1661 25.0999 18.7086 24.9211 18.2796C24.7424 17.8507 24.4779 17.4647 24.149 17.143C23.8273 16.8141 23.4413 16.5496 23.0195 16.3709C22.5977 16.1921 22.1402 16.0992 21.6755 16.1064H11.8242V13.0752H21.6826C23.4056 13.0823 25.0641 13.7829 26.2794 15.0054C27.5019 16.235 28.1882 17.8936 28.2025 19.6308C28.2097 20.9605 27.8093 22.2545 27.0515 23.3411C26.3509 24.3777 25.3644 25.1927 24.2134 25.6788C23.0696 26.0434 21.8828 26.2222 20.6889 26.215H14.7767V33.1567Z" fill="#000039"/>
<path d="M28.1326 32.9068H24.6868L22.0273 28.2456C23.0782 28.1813 24.1148 27.9668 25.1086 27.6094L28.1326 32.9068Z" fill="#000039"/>
<path d="M35.3242 13.8616L37.3617 14.9982L39.3991 13.8616V11.4524L37.3617 10.2656L35.3242 11.4524V13.8616Z" fill="#000039"/>
</svg>
