<svg width="90" height="78" viewBox="0 0 90 78" fill="none" xmlns="http://www.w3.org/2000/svg">
<g clip-path="url(#clip0_18_1593)">
<path d="M88.9623 61.3264L74.2963 76.6492C73.9775 76.9821 73.5917 77.2474 73.163 77.4288C72.7344 77.6102 72.272 77.7037 71.8047 77.7034H2.28074C1.949 77.7034 1.62449 77.609 1.34709 77.4318C1.06968 77.2546 0.851458 77.0023 0.71923 76.7059C0.587002 76.4095 0.546531 76.0819 0.602788 75.7634C0.659045 75.4449 0.80958 75.1494 1.0359 74.9131L15.713 59.5903C16.0309 59.2583 16.4154 58.9935 16.8426 58.8122C17.27 58.6308 17.7309 58.5369 18.197 58.5361H87.7171C88.0489 58.5361 88.3733 58.6306 88.651 58.8077C88.928 58.9849 89.1462 59.2373 89.279 59.5336C89.4109 59.8301 89.4514 60.1576 89.3951 60.4761C89.3388 60.7946 89.1884 61.0901 88.9623 61.3264ZM74.2963 30.4707C73.9775 30.1378 73.5917 29.8724 73.163 29.691C72.7344 29.5098 72.272 29.4163 71.8047 29.4165H2.28074C1.949 29.4165 1.62449 29.5109 1.34709 29.6881C1.06968 29.8654 0.851458 30.1177 0.71923 30.414C0.587002 30.7104 0.546531 31.038 0.602788 31.3565C0.659045 31.6749 0.80958 31.9705 1.0359 32.2069L15.713 47.5297C16.0309 47.8616 16.4154 48.1264 16.8426 48.3078C17.27 48.4891 17.7309 48.5831 18.197 48.5838H87.7171C88.0489 48.5838 88.3733 48.4894 88.651 48.3122C88.928 48.1349 89.1462 47.8826 89.279 47.5863C89.4109 47.2899 89.4514 46.9623 89.3951 46.6438C89.3388 46.3254 89.1884 46.0298 88.9623 45.7935L74.2963 30.4707ZM2.28074 19.4642H71.8047C72.272 19.4644 72.7344 19.371 73.163 19.1896C73.5917 19.0082 73.9775 18.7429 74.2963 18.41L88.9623 3.0872C89.1884 2.85091 89.3388 2.55537 89.3951 2.23688C89.4514 1.91838 89.4109 1.59082 89.279 1.29443C89.1462 0.998047 88.928 0.745742 88.651 0.568522C88.3733 0.391301 88.0489 0.296886 87.7171 0.296875H18.197C17.7309 0.297648 17.27 0.391609 16.8426 0.572942C16.4154 0.754276 16.0309 1.01912 15.713 1.35108L1.03968 16.6739C0.813583 16.9099 0.663114 17.2052 0.606729 17.5233C0.550344 17.8414 0.590495 18.1687 0.722256 18.465C0.854018 18.7612 1.07166 19.0135 1.3485 19.191C1.62534 19.3685 1.94933 19.4634 2.28074 19.4642Z" fill="#000039"/>
</g>
<defs>
<clipPath id="clip0_18_1593">
<rect width="88.8416" height="77.4066" fill="white" transform="translate(0.578125 0.296875)"/>
</clipPath>
</defs>
</svg>
