<svg width="30" height="26" viewBox="0 0 30 26" fill="none" xmlns="http://www.w3.org/2000/svg">
<g clip-path="url(#clip0_5_862)">
<path d="M29.6873 20.4991L24.7611 25.6459C24.654 25.7577 24.5244 25.8468 24.3805 25.9078C24.2365 25.9687 24.0812 26.0001 23.9242 26H0.571891C0.460463 26 0.351464 25.9683 0.258287 25.9088C0.165109 25.8492 0.0918095 25.7645 0.0473956 25.6649C0.00298182 25.5654 -0.0106122 25.4554 0.00828401 25.3484C0.0271802 25.2414 0.0777432 25.1421 0.153761 25.0628L5.08362 19.916C5.19043 19.8045 5.31957 19.7155 5.46307 19.6546C5.6066 19.5937 5.76142 19.5622 5.91798 19.5619H29.269C29.3804 19.5619 29.4894 19.5936 29.5827 19.6531C29.6757 19.7127 29.749 19.7974 29.7936 19.897C29.838 19.9965 29.8515 20.1065 29.8326 20.2135C29.8137 20.3205 29.7632 20.4198 29.6873 20.4991ZM24.7611 10.135C24.654 10.0232 24.5244 9.9341 24.3805 9.87317C24.2365 9.81228 24.0812 9.78088 23.9242 9.78096H0.571891C0.460463 9.78096 0.351464 9.81267 0.258287 9.8722C0.165109 9.93173 0.0918095 10.0165 0.0473956 10.116C0.00298182 10.2156 -0.0106122 10.3256 0.00828401 10.4326C0.0271802 10.5395 0.0777432 10.6388 0.153761 10.7182L5.08362 15.865C5.19043 15.9765 5.31957 16.0654 5.46307 16.1263C5.6066 16.1872 5.76142 16.2188 5.91798 16.219H29.269C29.3804 16.219 29.4894 16.1873 29.5827 16.1278C29.6757 16.0683 29.749 15.9835 29.7936 15.884C29.838 15.7844 29.8515 15.6744 29.8326 15.5674C29.8137 15.4605 29.7632 15.3612 29.6873 15.2818L24.7611 10.135ZM0.571891 6.4381H23.9242C24.0812 6.43816 24.2365 6.40678 24.3805 6.34586C24.5244 6.28494 24.654 6.1958 24.7611 6.084L29.6873 0.937238C29.7632 0.857873 29.8137 0.758603 29.8326 0.651625C29.8515 0.544647 29.838 0.434622 29.7936 0.335069C29.749 0.235516 29.6757 0.150769 29.5827 0.0912432C29.4894 0.0317167 29.3804 3.66582e-06 29.269 0H5.91798C5.76142 0.000259526 5.6066 0.0318202 5.46307 0.0927278C5.31957 0.153636 5.19043 0.242594 5.08362 0.354096L0.155032 5.50086C0.0790876 5.58013 0.0285468 5.67932 0.00960774 5.78615C-0.00933131 5.89302 0.0041548 6.00296 0.048412 6.10247C0.0926693 6.20197 0.165774 6.28671 0.25876 6.34633C0.351747 6.40596 0.460572 6.43784 0.571891 6.4381Z" fill="#000039"/>
</g>
<defs>
<clipPath id="clip0_5_862">
<rect width="29.8409" height="26" fill="white"/>
</clipPath>
</defs>
</svg>
