<svg width="83" height="81" viewBox="0 0 83 81" fill="none" xmlns="http://www.w3.org/2000/svg">
<path d="M44.9305 4.6326L50.1941 27.5943C50.7808 30.1536 52.815 32.1302 55.3901 32.6432L78.4221 37.2313C81.9978 37.9436 81.9978 43.0564 78.4221 43.7687L55.3901 48.3568C52.815 48.8698 50.7808 50.8464 50.1941 53.4057L44.9305 76.3674C44.1394 79.8183 39.2242 79.8184 38.4332 76.3674L33.1695 53.4057C32.5828 50.8464 30.5486 48.8698 27.9735 48.3568L4.94156 43.7687C1.36584 43.0564 1.36586 37.9436 4.94155 37.2313L27.9735 32.6432C30.5486 32.1302 32.5828 30.1536 33.1695 27.5943L38.4332 4.6326C39.2242 1.18165 44.1394 1.18165 44.9305 4.6326Z" fill="#FFE500" stroke="#000039" stroke-width="3.33415"/>
</svg>
