<svg width="532" height="796" viewBox="0 0 532 796" fill="none" xmlns="http://www.w3.org/2000/svg">
<path d="M167.131 262.179C169.785 264.293 172.738 267.027 172.96 270.412C178.634 357.195 183.842 441.386 187.776 525.626C188.243 535.634 182.142 544.689 173.055 548.91C115.627 575.583 92.3076 617.188 101.862 673.935C115.94 747.906 197.108 786.217 263.931 748.978C278.663 740.001 288.14 738.405 303.951 745.488C365.35 772.509 431.658 741.854 453.674 679.673C474.111 617.758 438.717 552.248 372.595 535.768C355.736 532.11 352.827 524.478 352.013 509.996C348.193 429.425 343.06 350.699 340.819 269.862C341.069 261.699 348.951 250.626 356.583 247.717C418.949 222.598 448.331 155.928 422.165 96.9864C395.732 36.4653 323.808 14.4649 262.771 47.4815C253.826 52.2362 241.19 54.3634 234.074 50.6887C175.567 21.5563 99.2509 50.6487 77.5004 114.409C56.2063 179.17 91.5549 239.181 163.49 259.864C164.735 260.221 166.119 261.373 167.131 262.179ZM329.977 235.095C322.691 237.553 318.31 244.845 319.029 252.5C320.087 263.777 321.213 274.925 322.302 286C324.631 309.665 326.798 332.993 327.797 356.518C330.787 412.864 330.883 471.323 333.873 527.669C334.687 542.151 333.921 556.898 356.832 557.913C397.65 559.162 426.129 583.605 437.516 622.295C448.371 657.826 437.629 690.496 409.23 714.769C377.938 741.153 340.811 742.531 306.546 722.312C288.623 712.335 278.098 717.355 265.212 727.646C233.388 750.872 199.155 750.138 166.469 729.653C137.473 711.795 119.768 674.169 126.82 638.871C133.605 601.995 155.42 577.206 193.063 569.244C216.755 565.255 219.898 554.98 217.755 532.601C211.875 451.913 206.234 372.647 203.304 293C203.146 288.7 202.996 284.399 202.854 280.097C202.257 266.044 201.433 256.366 196 249.962C191.456 244.607 183.689 241.542 170.136 240.125C152.573 237.853 138.01 230.955 126.5 220.684C112.981 208.62 103.673 191.904 98.6628 172.569C95.1576 156.302 95.6966 140.438 100.282 126C105.416 109.833 115.623 95.4551 130.906 84.3017C159.571 61.6083 194.586 57.3372 227.006 76.243C246.774 87.5333 259.41 85.4061 276.769 72.7377C318.852 42.9124 378.389 58.8765 403.742 103.336C416.147 125.63 417.937 150.472 410.986 172.569C404.91 191.884 392.155 209.101 373.973 220.684C370.778 222.719 367.416 224.58 363.892 226.249C362.175 227.062 360.338 227.588 358.468 227.923C347.597 229.868 338.666 232.164 329.977 235.095Z" fill="#000039"/>
<path d="M329.977 235.095C322.691 237.553 318.31 244.845 319.029 252.5C320.087 263.777 321.213 274.925 322.302 286C324.631 309.665 326.798 332.993 327.797 356.518C330.787 412.864 330.883 471.323 333.873 527.669C334.687 542.151 333.921 556.898 356.832 557.913C397.65 559.162 426.129 583.605 437.516 622.295C448.371 657.826 437.629 690.496 409.23 714.769C377.938 741.153 340.811 742.531 306.546 722.312C288.623 712.335 278.098 717.355 265.212 727.646C233.388 750.872 199.155 750.138 166.469 729.653C137.473 711.795 119.768 674.169 126.82 638.871C133.605 601.995 155.42 577.206 193.063 569.244C216.755 565.255 219.898 554.98 217.755 532.601C211.875 451.913 206.234 372.647 203.304 293C203.146 288.7 202.996 284.399 202.854 280.097C202.257 266.044 201.433 256.366 196 249.962C191.456 244.607 183.689 241.542 170.136 240.125C152.573 237.853 138.01 230.955 126.5 220.684C112.981 208.62 103.673 191.904 98.6628 172.569C95.1576 156.302 95.6966 140.438 100.282 126C105.416 109.833 115.623 95.4551 130.906 84.3017C159.571 61.6083 194.586 57.3372 227.006 76.243C246.774 87.5333 259.41 85.4061 276.769 72.7377C318.852 42.9124 378.389 58.8765 403.742 103.336C416.147 125.63 417.937 150.472 410.986 172.569C404.91 191.884 392.155 209.101 373.973 220.684C370.778 222.719 367.416 224.58 363.892 226.249C362.175 227.062 360.338 227.588 358.468 227.923C347.597 229.868 338.666 232.164 329.977 235.095Z" fill="white"/>
<path d="M361.888 228.807L361.855 228.822L361.821 228.835C355.228 231.339 348.709 232.524 342.974 233.566C341.064 233.913 339.24 234.244 337.53 234.603C330.535 236.072 325.529 237.972 322.802 242.744C321.224 245.506 321.031 247.479 320.686 251.005C320.64 251.476 320.591 251.975 320.535 252.507C321.312 260.782 322.125 268.987 322.934 277.148C323.222 280.054 323.509 282.956 323.795 285.853L323.947 287.405L322.39 287.497L203.392 294.497L201.861 294.587L201.805 293.055C201.646 288.756 201.496 284.455 201.354 280.154C201.055 273.12 200.702 267.295 199.767 262.445C198.835 257.611 197.345 253.866 194.856 250.932C190.703 246.038 183.442 243.024 169.979 241.617L169.961 241.615L169.943 241.612C152.088 239.303 137.242 232.28 125.501 221.803L122.565 219.183L126.499 219.183L373.973 219.183L379.119 219.183L374.779 221.949C370.74 224.522 366.438 226.82 361.888 228.807Z" fill="white" stroke="#000039" stroke-width="3"/>
<path d="M97.2111 172.946L96.725 171.069L98.6632 171.069L410.986 171.069L413.031 171.069L412.417 173.019C406.237 192.665 393.265 210.174 374.78 221.949L374.411 222.184L373.974 222.184L126.5 222.184L125.928 222.184L125.502 221.803C111.72 209.506 102.28 192.509 97.2111 172.946Z" fill="#FFAB31" stroke="#000039" stroke-width="3"/>
<path d="M98.8519 125.546L99.1587 124.58L100.17 124.505L403.63 101.841L404.587 101.77L405.053 102.608C417.664 125.272 419.488 150.542 412.417 173.02L412.087 174.069L410.986 174.069L98.6627 174.069L97.4515 174.069L97.1963 172.885C93.642 156.39 94.1798 140.258 98.8519 125.546Z" fill="white" stroke="#000039" stroke-width="3"/>
<path d="M100.393 127.496L98.1803 127.662L98.852 125.546C104.083 109.073 114.48 94.4401 129.998 83.1078C159.097 60.0835 194.766 55.7089 227.756 74.9443C237.489 80.5024 245.276 82.6475 252.656 81.9813C260.059 81.3131 267.293 77.7964 275.885 71.5265L275.893 71.5204L275.902 71.5143C318.772 41.131 379.293 57.4334 405.045 102.594L406.221 104.656L403.854 104.833L100.393 127.496Z" fill="#FFAB31" stroke="#000039" stroke-width="3"/>
<path d="M333.872 527.669C330.882 471.322 330.786 412.864 327.796 356.518C326.797 332.993 324.631 309.665 322.302 286L203.303 293C206.234 372.647 211.874 451.913 217.754 532.601C219.897 554.98 216.755 565.255 193.062 569.244C155.42 577.206 133.604 601.994 126.819 638.871C119.767 674.168 137.472 711.795 166.468 729.653C199.154 750.138 233.388 750.871 265.211 727.646C278.097 717.355 288.622 712.335 306.545 722.311C340.811 742.531 377.937 741.153 409.229 714.768C437.628 690.496 448.371 657.826 437.515 622.295C426.129 583.605 397.649 559.162 356.831 557.913C333.92 556.898 334.686 542.151 333.872 527.669Z" fill="#000072"/>
<path d="M226.437 665.964C221.723 665.964 217.598 665.268 214.062 663.875C210.527 662.429 207.768 660.42 205.786 657.848C203.804 655.223 202.812 652.17 202.812 648.688C202.812 645.206 203.777 642.259 205.705 639.848C207.687 637.384 210.446 635.536 213.982 634.304C217.518 633.018 221.669 632.375 226.437 632.375C231.259 632.375 235.437 633.018 238.973 634.304C242.562 635.536 245.321 637.384 247.25 639.848C249.232 642.259 250.223 645.206 250.223 648.688C250.223 652.17 249.232 655.223 247.25 657.848C245.267 660.42 242.482 662.429 238.892 663.875C235.357 665.268 231.205 665.964 226.437 665.964ZM226.437 656.402C229.705 656.402 232.276 655.679 234.151 654.232C236.08 652.786 237.044 650.804 237.044 648.286C237.044 645.768 236.08 643.813 234.151 642.42C232.276 640.973 229.705 640.25 226.437 640.25C223.223 640.25 220.678 640.973 218.803 642.42C216.928 643.813 215.991 645.768 215.991 648.286C215.991 650.804 216.928 652.786 218.803 654.232C220.678 655.679 223.223 656.402 226.437 656.402ZM226.437 638.965C222.098 638.965 218.294 638.375 215.027 637.197C211.812 636.018 209.295 634.304 207.473 632.054C205.705 629.75 204.821 627.018 204.821 623.858C204.821 620.536 205.732 617.697 207.553 615.34C209.375 612.929 211.92 611.081 215.187 609.795C218.455 608.456 222.205 607.786 226.437 607.786C230.776 607.786 234.553 608.456 237.767 609.795C241.035 611.081 243.58 612.929 245.401 615.34C247.276 617.697 248.214 620.536 248.214 623.858C248.214 627.018 247.303 629.75 245.482 632.054C243.714 634.304 241.196 636.018 237.928 637.197C234.66 638.375 230.83 638.965 226.437 638.965ZM226.437 631.331C229.169 631.331 231.312 630.715 232.866 629.483C234.473 628.25 235.276 626.563 235.276 624.42C235.276 622.17 234.446 620.429 232.785 619.197C231.178 617.965 229.062 617.349 226.437 617.349C223.866 617.349 221.777 617.965 220.169 619.197C218.562 620.429 217.759 622.17 217.759 624.42C217.759 626.563 218.536 628.25 220.089 629.483C221.643 630.715 223.759 631.331 226.437 631.331ZM280.289 665.964C275.681 665.964 271.556 664.839 267.914 662.589C264.271 660.286 261.405 656.964 259.316 652.625C257.226 648.286 256.182 643.036 256.182 636.875C256.182 630.715 257.226 625.465 259.316 621.125C261.405 616.786 264.271 613.492 267.914 611.242C271.556 608.938 275.681 607.786 280.289 607.786C284.949 607.786 289.074 608.938 292.663 611.242C296.306 613.492 299.172 616.786 301.262 621.125C303.351 625.465 304.395 630.715 304.395 636.875C304.395 643.036 303.351 648.286 301.262 652.625C299.172 656.964 296.306 660.286 292.663 662.589C289.074 664.839 284.949 665.964 280.289 665.964ZM280.289 654.955C282.485 654.955 284.387 654.339 285.994 653.107C287.655 651.875 288.94 649.92 289.851 647.241C290.815 644.563 291.297 641.107 291.297 636.875C291.297 632.643 290.815 629.188 289.851 626.509C288.94 623.831 287.655 621.875 285.994 620.643C284.387 619.411 282.485 618.795 280.289 618.795C278.146 618.795 276.244 619.411 274.583 620.643C272.976 621.875 271.69 623.831 270.726 626.509C269.815 629.188 269.36 632.643 269.36 636.875C269.36 641.107 269.815 644.563 270.726 647.241C271.69 649.92 272.976 651.875 274.583 653.107C276.244 654.339 278.146 654.955 280.289 654.955ZM318.836 665L357.247 608.751H366.809L328.399 665H318.836ZM323.738 639.125C321.006 639.125 318.595 638.509 316.506 637.277C314.417 635.991 312.756 634.197 311.524 631.893C310.345 629.536 309.756 626.777 309.756 623.616C309.756 620.456 310.345 617.724 311.524 615.42C312.756 613.117 314.417 611.322 316.506 610.036C318.595 608.751 321.006 608.108 323.738 608.108C326.47 608.108 328.881 608.751 330.97 610.036C333.059 611.322 334.693 613.117 335.872 615.42C337.05 617.724 337.64 620.456 337.64 623.616C337.64 626.777 337.05 629.536 335.872 631.893C334.693 634.197 333.059 635.991 330.97 637.277C328.881 638.509 326.47 639.125 323.738 639.125ZM323.738 632.536C325.506 632.536 326.926 631.813 327.997 630.366C329.068 628.866 329.604 626.616 329.604 623.616C329.604 620.617 329.068 618.393 327.997 616.947C326.926 615.447 325.506 614.697 323.738 614.697C322.024 614.697 320.604 615.447 319.479 616.947C318.408 618.393 317.872 620.617 317.872 623.616C317.872 626.563 318.408 628.786 319.479 630.286C320.604 631.786 322.024 632.536 323.738 632.536ZM361.907 665.643C359.229 665.643 356.818 665.027 354.675 663.795C352.586 662.509 350.952 660.714 349.774 658.411C348.595 656.054 348.006 653.295 348.006 650.134C348.006 646.973 348.595 644.241 349.774 641.938C350.952 639.634 352.586 637.84 354.675 636.554C356.818 635.268 359.229 634.625 361.907 634.625C364.693 634.625 367.13 635.268 369.22 636.554C371.309 637.84 372.943 639.634 374.121 641.938C375.3 644.241 375.889 646.973 375.889 650.134C375.889 653.295 375.3 656.054 374.121 658.411C372.943 660.714 371.309 662.509 369.22 663.795C367.13 665.027 364.693 665.643 361.907 665.643ZM361.907 659.054C363.675 659.054 365.095 658.33 366.166 656.884C367.238 655.384 367.773 653.134 367.773 650.134C367.773 647.188 367.238 644.964 366.166 643.465C365.095 641.965 363.675 641.215 361.907 641.215C360.193 641.215 358.773 641.965 357.648 643.465C356.577 644.911 356.041 647.134 356.041 650.134C356.041 653.134 356.577 655.384 357.648 656.884C358.773 658.33 360.193 659.054 361.907 659.054Z" fill="#FFAB31"/>
<path d="M254.821 271.425C253.095 271.425 251.382 271.201 249.68 270.752C248.002 270.279 246.56 269.617 245.355 268.766L247.624 264.37C248.569 265.055 249.656 265.599 250.885 266.001C252.138 266.403 253.403 266.604 254.679 266.604C256.121 266.604 257.255 266.32 258.083 265.753C258.91 265.185 259.324 264.394 259.324 263.377C259.324 262.739 259.158 262.172 258.827 261.675C258.496 261.179 257.905 260.801 257.055 260.541C256.227 260.281 255.057 260.151 253.545 260.151H247.198L248.475 246.182H263.614V250.791H250.531L253.509 248.167L252.623 258.13L249.645 255.506H254.892C257.35 255.506 259.324 255.849 260.813 256.535C262.325 257.196 263.425 258.106 264.11 259.265C264.795 260.423 265.138 261.735 265.138 263.2C265.138 264.665 264.772 266.025 264.039 267.277C263.306 268.506 262.172 269.511 260.635 270.291C259.123 271.047 257.185 271.425 254.821 271.425ZM270.703 271L287.65 246.182H291.87L274.922 271H270.703ZM272.866 259.584C271.66 259.584 270.597 259.312 269.675 258.768C268.753 258.201 268.02 257.409 267.477 256.393C266.957 255.353 266.697 254.135 266.697 252.741C266.697 251.346 266.957 250.141 267.477 249.125C268.02 248.108 268.753 247.316 269.675 246.749C270.597 246.182 271.66 245.898 272.866 245.898C274.071 245.898 275.135 246.182 276.057 246.749C276.979 247.316 277.7 248.108 278.22 249.125C278.74 250.141 279 251.346 279 252.741C279 254.135 278.74 255.353 278.22 256.393C277.7 257.409 276.979 258.201 276.057 258.768C275.135 259.312 274.071 259.584 272.866 259.584ZM272.866 256.676C273.646 256.676 274.272 256.357 274.745 255.719C275.218 255.057 275.454 254.065 275.454 252.741C275.454 251.417 275.218 250.436 274.745 249.798C274.272 249.136 273.646 248.805 272.866 248.805C272.11 248.805 271.483 249.136 270.987 249.798C270.514 250.436 270.278 251.417 270.278 252.741C270.278 254.041 270.514 255.022 270.987 255.684C271.483 256.345 272.11 256.676 272.866 256.676ZM289.707 271.284C288.525 271.284 287.461 271.012 286.516 270.468C285.594 269.901 284.873 269.109 284.353 268.093C283.833 267.053 283.573 265.835 283.573 264.441C283.573 263.046 283.833 261.841 284.353 260.825C284.873 259.808 285.594 259.016 286.516 258.449C287.461 257.882 288.525 257.598 289.707 257.598C290.936 257.598 292.011 257.882 292.933 258.449C293.855 259.016 294.576 259.808 295.096 260.825C295.616 261.841 295.876 263.046 295.876 264.441C295.876 265.835 295.616 267.053 295.096 268.093C294.576 269.109 293.855 269.901 292.933 270.468C292.011 271.012 290.936 271.284 289.707 271.284ZM289.707 268.376C290.487 268.376 291.113 268.057 291.586 267.419C292.059 266.757 292.295 265.765 292.295 264.441C292.295 263.141 292.059 262.16 291.586 261.498C291.113 260.836 290.487 260.505 289.707 260.505C288.95 260.505 288.324 260.836 287.828 261.498C287.355 262.136 287.119 263.117 287.119 264.441C287.119 265.765 287.355 266.757 287.828 267.419C288.324 268.057 288.95 268.376 289.707 268.376Z" fill="#000039"/>
<path d="M197.821 211.425C196.095 211.425 194.382 211.201 192.68 210.752C191.002 210.279 189.56 209.617 188.355 208.766L190.624 204.37C191.569 205.055 192.656 205.599 193.885 206.001C195.138 206.403 196.403 206.604 197.679 206.604C199.121 206.604 200.255 206.32 201.083 205.753C201.91 205.185 202.324 204.394 202.324 203.377C202.324 202.739 202.158 202.172 201.827 201.675C201.496 201.179 200.905 200.801 200.055 200.541C199.227 200.281 198.057 200.151 196.545 200.151H190.198L191.475 186.182H206.614V190.791H193.531L196.509 188.167L195.623 198.13L192.645 195.506H197.892C200.35 195.506 202.324 195.849 203.813 196.535C205.325 197.196 206.425 198.106 207.11 199.265C207.795 200.423 208.138 201.735 208.138 203.2C208.138 204.665 207.772 206.025 207.039 207.277C206.306 208.506 205.172 209.511 203.635 210.291C202.123 211.047 200.185 211.425 197.821 211.425ZM213.703 211L230.65 186.182H234.87L217.922 211H213.703ZM215.866 199.584C214.66 199.584 213.597 199.312 212.675 198.768C211.753 198.201 211.02 197.409 210.477 196.393C209.957 195.353 209.697 194.135 209.697 192.741C209.697 191.346 209.957 190.141 210.477 189.125C211.02 188.108 211.753 187.316 212.675 186.749C213.597 186.182 214.66 185.898 215.866 185.898C217.071 185.898 218.135 186.182 219.057 186.749C219.979 187.316 220.7 188.108 221.22 189.125C221.74 190.141 222 191.346 222 192.741C222 194.135 221.74 195.353 221.22 196.393C220.7 197.409 219.979 198.201 219.057 198.768C218.135 199.312 217.071 199.584 215.866 199.584ZM215.866 196.676C216.646 196.676 217.272 196.357 217.745 195.719C218.218 195.057 218.454 194.065 218.454 192.741C218.454 191.417 218.218 190.436 217.745 189.798C217.272 189.136 216.646 188.805 215.866 188.805C215.11 188.805 214.483 189.136 213.987 189.798C213.514 190.436 213.278 191.417 213.278 192.741C213.278 194.041 213.514 195.022 213.987 195.684C214.483 196.345 215.11 196.676 215.866 196.676ZM232.707 211.284C231.525 211.284 230.461 211.012 229.516 210.468C228.594 209.901 227.873 209.109 227.353 208.093C226.833 207.053 226.573 205.835 226.573 204.441C226.573 203.046 226.833 201.841 227.353 200.825C227.873 199.808 228.594 199.016 229.516 198.449C230.461 197.882 231.525 197.598 232.707 197.598C233.936 197.598 235.011 197.882 235.933 198.449C236.855 199.016 237.576 199.808 238.096 200.825C238.616 201.841 238.876 203.046 238.876 204.441C238.876 205.835 238.616 207.053 238.096 208.093C237.576 209.109 236.855 209.901 235.933 210.468C235.011 211.012 233.936 211.284 232.707 211.284ZM232.707 208.376C233.487 208.376 234.113 208.057 234.586 207.419C235.059 206.757 235.295 205.765 235.295 204.441C235.295 203.141 235.059 202.16 234.586 201.498C234.113 200.836 233.487 200.505 232.707 200.505C231.95 200.505 231.324 200.836 230.828 201.498C230.355 202.136 230.119 203.117 230.119 204.441C230.119 205.765 230.355 206.757 230.828 207.419C231.324 208.057 231.95 208.376 232.707 208.376Z" fill="#000039"/>
<path d="M166.821 107.425C165.095 107.425 163.382 107.201 161.68 106.752C160.002 106.279 158.56 105.617 157.355 104.766L159.624 100.37C160.569 101.055 161.656 101.599 162.885 102.001C164.138 102.403 165.403 102.604 166.679 102.604C168.121 102.604 169.255 102.32 170.083 101.753C170.91 101.185 171.324 100.394 171.324 99.3773C171.324 98.7391 171.158 98.1718 170.827 97.6755C170.496 97.1791 169.905 96.8009 169.055 96.5409C168.227 96.2809 167.057 96.1509 165.545 96.1509H159.198L160.475 82.1818H175.614V86.7909H162.531L165.509 84.1673L164.623 94.13L161.645 91.5064H166.892C169.35 91.5064 171.324 91.8491 172.813 92.5345C174.325 93.1964 175.425 94.1064 176.11 95.2645C176.795 96.4227 177.138 97.7345 177.138 99.2C177.138 100.665 176.772 102.025 176.039 103.277C175.306 104.506 174.172 105.511 172.635 106.291C171.123 107.047 169.185 107.425 166.821 107.425ZM182.703 107L199.65 82.1818H203.87L186.922 107H182.703ZM184.866 95.5836C183.66 95.5836 182.597 95.3118 181.675 94.7682C180.753 94.2009 180.02 93.4091 179.477 92.3927C178.957 91.3527 178.697 90.1355 178.697 88.7409C178.697 87.3464 178.957 86.1409 179.477 85.1245C180.02 84.1082 180.753 83.3164 181.675 82.7491C182.597 82.1818 183.66 81.8982 184.866 81.8982C186.071 81.8982 187.135 82.1818 188.057 82.7491C188.979 83.3164 189.7 84.1082 190.22 85.1245C190.74 86.1409 191 87.3464 191 88.7409C191 90.1355 190.74 91.3527 190.22 92.3927C189.7 93.4091 188.979 94.2009 188.057 94.7682C187.135 95.3118 186.071 95.5836 184.866 95.5836ZM184.866 92.6764C185.646 92.6764 186.272 92.3573 186.745 91.7191C187.218 91.0573 187.454 90.0645 187.454 88.7409C187.454 87.4173 187.218 86.4364 186.745 85.7982C186.272 85.1364 185.646 84.8055 184.866 84.8055C184.11 84.8055 183.483 85.1364 182.987 85.7982C182.514 86.4364 182.278 87.4173 182.278 88.7409C182.278 90.0409 182.514 91.0218 182.987 91.6836C183.483 92.3455 184.11 92.6764 184.866 92.6764ZM201.707 107.284C200.525 107.284 199.461 107.012 198.516 106.468C197.594 105.901 196.873 105.109 196.353 104.093C195.833 103.053 195.573 101.835 195.573 100.441C195.573 99.0464 195.833 97.8409 196.353 96.8245C196.873 95.8082 197.594 95.0164 198.516 94.4491C199.461 93.8818 200.525 93.5982 201.707 93.5982C202.936 93.5982 204.011 93.8818 204.933 94.4491C205.855 95.0164 206.576 95.8082 207.096 96.8245C207.616 97.8409 207.876 99.0464 207.876 100.441C207.876 101.835 207.616 103.053 207.096 104.093C206.576 105.109 205.855 105.901 204.933 106.468C204.011 107.012 202.936 107.284 201.707 107.284ZM201.707 104.376C202.487 104.376 203.113 104.057 203.586 103.419C204.059 102.757 204.295 101.765 204.295 100.441C204.295 99.1409 204.059 98.16 203.586 97.4982C203.113 96.8364 202.487 96.5055 201.707 96.5055C200.95 96.5055 200.324 96.8364 199.828 97.4982C199.355 98.1364 199.119 99.1173 199.119 100.441C199.119 101.765 199.355 102.757 199.828 103.419C200.324 104.057 200.95 104.376 201.707 104.376Z" fill="#000039"/>
<path d="M308.821 154.425C307.095 154.425 305.382 154.201 303.68 153.752C302.002 153.279 300.56 152.617 299.355 151.766L301.624 147.37C302.569 148.055 303.656 148.599 304.885 149.001C306.138 149.403 307.403 149.604 308.679 149.604C310.121 149.604 311.255 149.32 312.083 148.753C312.91 148.185 313.324 147.394 313.324 146.377C313.324 145.739 313.158 145.172 312.827 144.675C312.496 144.179 311.905 143.801 311.055 143.541C310.227 143.281 309.057 143.151 307.545 143.151H301.198L302.475 129.182H317.614V133.791H304.531L307.509 131.167L306.623 141.13L303.645 138.506H308.892C311.35 138.506 313.324 138.849 314.813 139.535C316.325 140.196 317.425 141.106 318.11 142.265C318.795 143.423 319.138 144.735 319.138 146.2C319.138 147.665 318.772 149.025 318.039 150.277C317.306 151.506 316.172 152.511 314.635 153.291C313.123 154.047 311.185 154.425 308.821 154.425ZM324.703 154L341.65 129.182H345.87L328.922 154H324.703ZM326.866 142.584C325.66 142.584 324.597 142.312 323.675 141.768C322.753 141.201 322.02 140.409 321.477 139.393C320.957 138.353 320.697 137.135 320.697 135.741C320.697 134.346 320.957 133.141 321.477 132.125C322.02 131.108 322.753 130.316 323.675 129.749C324.597 129.182 325.66 128.898 326.866 128.898C328.071 128.898 329.135 129.182 330.057 129.749C330.979 130.316 331.7 131.108 332.22 132.125C332.74 133.141 333 134.346 333 135.741C333 137.135 332.74 138.353 332.22 139.393C331.7 140.409 330.979 141.201 330.057 141.768C329.135 142.312 328.071 142.584 326.866 142.584ZM326.866 139.676C327.646 139.676 328.272 139.357 328.745 138.719C329.218 138.057 329.454 137.065 329.454 135.741C329.454 134.417 329.218 133.436 328.745 132.798C328.272 132.136 327.646 131.805 326.866 131.805C326.11 131.805 325.483 132.136 324.987 132.798C324.514 133.436 324.278 134.417 324.278 135.741C324.278 137.041 324.514 138.022 324.987 138.684C325.483 139.345 326.11 139.676 326.866 139.676ZM343.707 154.284C342.525 154.284 341.461 154.012 340.516 153.468C339.594 152.901 338.873 152.109 338.353 151.093C337.833 150.053 337.573 148.835 337.573 147.441C337.573 146.046 337.833 144.841 338.353 143.825C338.873 142.808 339.594 142.016 340.516 141.449C341.461 140.882 342.525 140.598 343.707 140.598C344.936 140.598 346.011 140.882 346.933 141.449C347.855 142.016 348.576 142.808 349.096 143.825C349.616 144.841 349.876 146.046 349.876 147.441C349.876 148.835 349.616 150.053 349.096 151.093C348.576 152.109 347.855 152.901 346.933 153.468C346.011 154.012 344.936 154.284 343.707 154.284ZM343.707 151.376C344.487 151.376 345.113 151.057 345.586 150.419C346.059 149.757 346.295 148.765 346.295 147.441C346.295 146.141 346.059 145.16 345.586 144.498C345.113 143.836 344.487 143.505 343.707 143.505C342.95 143.505 342.324 143.836 341.828 144.498C341.355 145.136 341.119 146.117 341.119 147.441C341.119 148.765 341.355 149.757 341.828 150.419C342.324 151.057 342.95 151.376 343.707 151.376Z" fill="#000039"/>
</svg>
