<svg width="121" height="121" viewBox="0 0 121 121" fill="none" xmlns="http://www.w3.org/2000/svg">
<g clip-path="url(#clip0_30_111)">
<path d="M81.8523 29.3684C79.4576 30.3949 76.7324 30.3149 74.4021 29.1497L45.4926 14.6949C43.1624 13.5298 40.4374 13.4497 38.0427 14.476L17.3642 23.3382C14.1076 24.7339 11.9962 27.936 11.9962 31.479V88.6406C11.9962 94.9987 18.4968 99.2857 24.341 96.7819L38.8287 90.5749C41.2231 89.5491 43.9477 89.6293 46.2776 90.7943L75.1863 105.249C77.5174 106.414 80.2437 106.494 82.6389 105.466L103.319 96.595C106.574 95.1987 108.684 91.9973 108.684 88.4554V31.3001C108.684 24.9414 102.183 20.6544 96.3381 23.1594L81.8523 29.3684ZM-0.0898426 23.5083C-0.0898426 19.9653 2.02162 16.7632 5.27817 15.3675L38.4355 1.15722C40.8301 0.130949 43.5552 0.211029 45.8854 1.37614L74.7953 15.8311C77.1254 16.9962 79.8503 17.0763 82.2448 16.0502L116.558 1.34592C117.018 1.14882 117.52 1.06897 118.018 1.11352C118.516 1.15808 118.996 1.32565 119.413 1.60121C119.831 1.87676 120.173 2.25167 120.41 2.69229C120.647 3.13291 120.771 3.62545 120.77 4.12571V96.43C120.77 99.973 118.659 103.175 115.402 104.571L82.245 118.781C79.8503 119.807 77.1253 119.727 74.7951 118.562L45.8852 104.107C43.5551 102.942 40.8302 102.862 38.4356 103.888L4.12213 118.592C3.66234 118.789 3.16081 118.869 2.66254 118.825C2.16427 118.78 1.68486 118.613 1.26734 118.337C0.849814 118.062 0.507241 117.687 0.270362 117.246C0.0334831 116.805 -0.0902876 116.313 -0.0898426 115.813V23.5083ZM24.0822 59.9692C24.0822 56.6317 26.7877 53.9261 30.1252 53.9261V53.9261C33.4627 53.9261 36.1682 56.6317 36.1682 59.9692V59.9692C36.1682 63.3066 33.4627 66.0122 30.1252 66.0122V66.0122C26.7877 66.0122 24.0822 63.3066 24.0822 59.9692V59.9692ZM48.2542 59.9692C48.2542 56.6317 50.9598 53.9261 54.2972 53.9261V53.9261C57.6347 53.9261 60.3402 56.6317 60.3402 59.9692V59.9692C60.3402 63.3066 57.6347 66.0122 54.2972 66.0122V66.0122C50.9598 66.0122 48.2542 63.3066 48.2542 59.9692V59.9692Z" fill="#000039"/>
<path d="M91.7718 56.0304C91.6153 56.0623 91.433 56.1139 91.3514 56.2511C89.2583 59.7694 87.2402 63.189 85.2745 66.6379C85.0409 67.0476 85.1033 67.5578 85.3941 67.9291C87.2324 70.2753 87.3211 72.5187 85.7073 74.6944C83.5357 77.4958 79.3126 77.3674 77.3061 74.3772C76.8802 73.6858 76.5168 73.4163 75.7023 73.3754C72.5496 73.1961 70.4241 70.4931 70.8299 67.4146C71.2963 64.381 74.1811 62.3902 77.3065 63.1125C78.0917 63.3194 78.3769 63.0615 78.7206 62.4716C80.6031 59.1741 82.5013 55.9822 84.3232 52.6398C84.4872 52.2921 84.3934 51.6593 84.1355 51.3741C82.0568 48.9875 82.2497 45.5633 84.6071 43.6507C87.0094 41.6775 90.4961 42.2923 92.3502 44.9817C92.6237 45.3723 93.1082 45.7317 93.4852 45.7297C96.5617 45.7585 99.1404 48.61 98.6897 51.749C98.1984 54.9203 95.4331 56.6814 91.974 56.0111C91.9142 55.9995 91.8315 56.0183 91.7718 56.0304V56.0304ZM85.3805 51.2729C85.724 51.6083 85.7593 52.1403 85.5016 52.5454C84.6418 53.897 83.7849 55.1918 83.017 56.5525C81.6871 58.8517 80.4334 61.3013 79.1036 63.6006C78.7599 64.1905 78.4767 64.8254 77.4942 64.3782C75.7556 63.5581 74.0387 63.9744 72.7341 65.3536C71.5193 66.6117 71.2715 68.2115 71.9436 69.8365C72.692 71.612 74.2196 72.4634 76.0889 72.3479C77.0538 72.3126 77.3879 72.7481 77.7084 73.4552C78.5466 75.1095 79.998 75.8106 81.8067 75.6501C83.4045 75.521 84.9513 74.3214 85.4101 72.6904C85.9139 70.9987 85.5288 69.4928 84.1203 68.3542C83.212 67.6804 83.2998 67.1823 83.8681 66.2896C85.9459 62.8554 87.9788 59.4817 89.8906 56.0183C90.4882 54.9595 90.8026 54.5355 92.1172 55.0413C93.8245 55.6505 95.4047 55.0389 96.5589 53.7358C97.6076 52.4485 97.8555 50.8487 97.0935 49.3447C96.3764 47.7802 94.9992 46.8526 93.2353 46.9525C92.1649 47.0034 91.6805 46.6441 91.2233 45.7417C90.0959 43.5913 87.2577 42.9881 85.244 44.3108C83.2228 45.6689 82.808 48.3994 84.2876 50.3172C84.3422 50.388 84.4083 50.4496 84.4795 50.5036C84.8304 50.7695 85.1175 51.0161 85.3805 51.2729Z" fill="#000039"/>
<path d="M85.3805 51.2729C85.724 51.6083 85.7593 52.1403 85.5016 52.5454C84.6418 53.897 83.7849 55.1918 83.017 56.5525C81.6871 58.8517 80.4334 61.3013 79.1036 63.6006C78.7599 64.1905 78.4767 64.8254 77.4942 64.3782C75.7556 63.5581 74.0387 63.9744 72.7341 65.3536C71.5193 66.6117 71.2715 68.2115 71.9436 69.8365C72.692 71.612 74.2196 72.4634 76.0889 72.3479C77.0538 72.3126 77.3879 72.7481 77.7084 73.4552C78.5466 75.1095 79.998 75.8106 81.8067 75.6501C83.4045 75.521 84.9513 74.3214 85.4101 72.6904C85.9139 70.9987 85.5288 69.4928 84.1203 68.3542C83.212 67.6804 83.2998 67.1823 83.8681 66.2896C85.9459 62.8554 87.9788 59.4817 89.8906 56.0183C90.4882 54.9595 90.8026 54.5355 92.1172 55.0413C93.8245 55.6505 95.4047 55.0389 96.5589 53.7358C97.6076 52.4485 97.8555 50.8487 97.0935 49.3447C96.3764 47.7802 94.9992 46.8526 93.2353 46.9525C92.1649 47.0034 91.6805 46.6441 91.2233 45.7417C90.0959 43.5913 87.2577 42.9881 85.244 44.3108C83.2228 45.6689 82.808 48.3994 84.2876 50.3172C84.3422 50.388 84.4083 50.4496 84.4795 50.5036C84.8304 50.7695 85.1175 51.0161 85.3805 51.2729Z" fill="white"/>
<path d="M76.9431 58.0967C77.1018 58.0788 77.2911 58.0715 77.4111 58.1769C80.4879 60.8774 83.463 63.5071 86.3972 66.1809C86.7458 66.4986 86.844 67.0031 86.6819 67.446C85.6575 70.2451 86.2656 72.4063 88.472 73.9777C91.4023 75.972 95.3796 74.5465 96.3652 71.083C96.5569 70.2939 96.8193 69.9254 97.5815 69.6351C100.525 68.4915 101.712 65.2644 100.376 62.4615C98.9963 59.72 95.6379 58.7167 92.8881 60.3684C92.205 60.8076 91.8542 60.6503 91.3452 60.1952C88.5368 57.6398 85.7462 55.1895 82.9815 52.5727C82.7182 52.2926 82.6122 51.6616 82.7694 51.3108C84.01 48.3991 82.7697 45.2017 79.9371 44.11C77.043 42.9746 73.9163 44.6356 72.9828 47.766C72.8432 48.2219 72.4933 48.7132 72.1341 48.8277C69.2167 49.8047 67.644 53.3129 69.0416 56.1595C70.4877 59.0243 73.6615 59.846 76.7448 58.1408C76.7982 58.1113 76.8825 58.1036 76.9431 58.0967V58.0967ZM81.554 51.5988C81.3307 52.0239 81.4614 52.5408 81.8315 52.8466C83.0665 53.8668 84.2812 54.8339 85.4316 55.8911C87.4062 57.6677 89.3547 59.6108 91.3293 61.3873C91.8383 61.8424 92.3036 62.3588 93.1002 61.6302C94.5007 60.3135 96.2623 60.1796 97.9289 61.0888C99.4727 61.9105 100.202 63.3557 100.064 65.1089C99.9005 67.0287 98.7103 68.31 96.8966 68.7771C95.9679 69.0413 95.7846 69.5587 95.698 70.3301C95.4113 72.1624 94.2471 73.2772 92.4772 73.6829C90.9176 74.0532 89.076 73.3896 88.1362 71.9798C87.1349 70.5262 87.0364 68.9749 88.0247 67.4572C88.6808 66.536 88.4435 66.0893 87.6274 65.4155C84.5911 62.7903 81.6161 60.2088 78.7287 57.5045C77.8335 56.6819 77.4036 56.3757 76.3092 57.2625C74.8733 58.3689 73.1816 58.2748 71.6815 57.3917C70.2867 56.4908 69.5571 55.0456 69.8178 53.3799C70.017 51.6705 71.0406 50.3631 72.7492 49.9137C73.783 49.6318 74.1329 49.1404 74.2893 48.141C74.6979 45.7476 77.2114 44.2979 79.535 44.9345C81.8767 45.6024 83.114 48.0716 82.2985 50.3524C82.2684 50.4366 82.2246 50.5157 82.1735 50.589C81.9219 50.9502 81.7249 51.2734 81.554 51.5988Z" fill="#000039"/>
<path d="M81.554 51.5988C81.3307 52.0239 81.4614 52.5408 81.8315 52.8466C83.0665 53.8668 84.2812 54.8339 85.4316 55.8911C87.4062 57.6677 89.3547 59.6108 91.3293 61.3873C91.8383 61.8424 92.3036 62.3588 93.1002 61.6302C94.5007 60.3135 96.2623 60.1796 97.9289 61.0888C99.4727 61.9105 100.202 63.3557 100.064 65.1089C99.9005 67.0287 98.7103 68.31 96.8966 68.7771C95.9679 69.0413 95.7846 69.5587 95.698 70.3301C95.4113 72.1624 94.2471 73.2772 92.4772 73.6829C90.9176 74.0532 89.076 73.3896 88.1362 71.9798C87.1349 70.5262 87.0364 68.9749 88.0247 67.4572C88.6808 66.536 88.4435 66.0893 87.6274 65.4155C84.5911 62.7903 81.6161 60.2088 78.7287 57.5045C77.8335 56.6819 77.4036 56.3757 76.3092 57.2625C74.8733 58.3689 73.1816 58.2748 71.6815 57.3917C70.2867 56.4908 69.5571 55.0456 69.8178 53.3799C70.017 51.6705 71.0406 50.3631 72.7492 49.9137C73.783 49.6318 74.1329 49.1404 74.2893 48.141C74.6979 45.7476 77.2114 44.2979 79.535 44.9345C81.8767 45.6024 83.114 48.0716 82.2985 50.3524C82.2684 50.4366 82.2246 50.5157 82.1735 50.589C81.9219 50.9502 81.7249 51.2734 81.554 51.5988Z" fill="white"/>
</g>
<defs>
<clipPath id="clip0_30_111">
<rect width="120.676" height="120.307" fill="white"/>
</clipPath>
</defs>
</svg>
